# Blender 4.5.0
# www.blender.org
mtllib cloudD.mtl
o cloudD
v -8.899691 -1.164744 0.306599
v -8.819220 -1.729905 0.015871
v -8.748806 -1.633594 0.827417
v -8.624454 -0.315893 -0.221883
v -7.144890 -2.435676 1.741668
v -8.660824 -0.990017 1.234989
v -8.331028 -1.537416 1.813719
v -7.622639 -1.262572 2.565590
v -8.022327 -2.067838 1.725277
v -7.922234 -2.406036 1.295295
v -7.480515 -1.996253 2.234331
v -7.266151 -1.434770 2.671583
v -6.708389 -1.573906 2.736505
v -8.384417 -0.490069 1.478769
v -8.039883 -0.913584 2.207878
v -7.977047 -0.417046 2.018130
v -8.032803 0.104806 1.193771
v -7.266079 -0.532804 2.636961
v -7.344246 0.080989 2.103634
v -7.008209 0.649744 1.553961
v -6.967003 1.226498 1.564151
v -8.487335 -2.229616 0.310897
v -8.070847 -2.560462 -0.008654
v -7.535999 -2.775011 0.173198
v -7.293373 -2.700191 1.008724
v -6.851803 -2.833083 0.424427
v -8.494240 -1.987499 1.042849
v -8.621546 -0.406286 0.685181
v -8.219955 0.161622 0.010821
v -7.630356 1.178389 0.431304
v -7.734650 0.563528 -0.225200
v -7.649448 1.176978 -0.284612
v -7.590542 0.566766 0.790787
v -7.303883 1.389202 1.147504
v -7.489319 1.824412 -0.254771
v -6.656235 -0.710401 2.865110
v -6.068836 -1.148681 2.817134
v -5.924774 -0.545811 2.770528
v -6.428539 -2.500690 1.614410
v -5.625618 -2.172352 1.766063
v -6.637772 -2.141832 2.252625
v -6.057938 -1.599105 2.620198
v -5.846478 -2.002032 2.176758
v -5.422348 -1.349814 2.466260
v -6.317547 0.010629 2.511101
v -6.408524 0.530935 1.878893
v -5.856316 0.453903 1.993641
v -5.422363 0.080743 2.206327
v -7.144459 0.422379 1.683891
v -6.103848 1.423338 2.027106
v -6.245323 2.031475 1.804374
v -5.600571 1.220193 2.115294
v -5.539936 0.365138 1.986835
v -6.347309 -2.694866 1.041987
v -5.998611 -2.728697 0.229479
v -4.171719 0.104220 2.795963
v -5.039917 -1.154816 2.276186
v -4.975296 -1.838528 1.537490
v -5.453224 -2.429225 0.856752
v -4.966766 -1.508977 1.967651
v -4.283058 -1.849103 2.046691
v -4.302559 -2.252305 1.343703
v -4.219578 -1.312752 2.579411
v -5.209637 -0.402313 2.408924
v -5.116623 -0.796013 2.392321
v -4.721786 -0.164676 2.680003
v -4.722668 0.515671 2.480469
v -4.088089 -0.602019 2.874319
v -5.213257 0.736731 2.050917
v -4.685860 1.151353 2.024055
v -4.001686 1.520730 1.700321
v -5.530739 -2.520878 -0.557268
v -4.298843 -2.468580 0.545606
v -4.305267 -2.490576 -0.377175
v -4.973030 -2.235291 0.002548
v -4.963066 -2.018280 1.144673
v -4.964806 -2.171123 0.648565
v -3.366898 0.117950 2.745244
v -4.058498 0.742771 2.499621
v -3.488235 -1.569808 2.445043
v -3.510376 -2.269462 1.585780
v -3.149910 -0.873147 2.730734
v -3.150227 -2.056233 1.842661
v -2.770363 -1.371987 2.331000
v -2.464382 -1.818820 1.772611
v -2.655315 -2.143387 1.424394
v -2.649677 -0.099117 2.456669
v -2.415070 -0.542514 2.324572
v -3.445271 0.689470 2.445992
v -3.560280 1.298627 1.875301
v -3.025105 0.992065 1.979670
v -2.541794 0.645579 1.938925
v -2.587551 2.021100 2.113405
v -3.589695 -2.611424 0.462696
v -2.820068 -2.452040 0.721259
v -2.743416 -2.566946 -0.117216
v -2.632065 -2.534055 0.804778
v -2.221844 -2.460859 1.812910
v -1.756287 -2.539745 2.288829
v -1.756710 -3.092524 1.681232
v -1.260559 -2.410054 2.696588
v -1.253349 -3.130969 2.037575
v -0.762039 -2.737151 2.623828
v -2.245438 -1.394835 1.968043
v -1.996925 -0.941710 1.920040
v -1.393375 -1.726145 2.741741
v -1.807358 -1.730510 2.484327
v -1.258205 -1.116226 2.590626
v -2.081249 0.207760 1.747775
v -1.810162 -0.541534 1.613440
v -1.575233 -0.271006 1.353174
v -1.130543 0.476454 1.650243
v -1.413605 -0.119254 1.365596
v -0.920204 -0.559295 2.172089
v -1.993729 1.043894 2.030603
v -1.217945 1.143881 1.880088
v -1.205666 -3.721006 -0.275374
v -2.244328 -3.170640 0.161843
v -2.114601 -3.092770 1.110742
v -1.644241 -3.552008 0.414871
v -1.322758 -3.560779 1.054027
v -0.591732 -1.390982 2.846904
v -0.494503 -1.895720 2.940326
v 0.244286 -1.240698 2.552859
v 0.216171 -1.964954 2.710559
v -0.704037 -3.349479 1.877226
v -0.004284 -2.932756 2.289254
v 0.105316 -3.377936 1.562105
v 0.264107 -2.482047 2.534580
v 0.775978 -2.832687 1.736500
v -1.000694 0.001765 1.322695
v -0.354855 -0.730593 2.378840
v -0.538132 -0.117125 1.481641
v -0.240002 -0.057003 1.701189
v -0.319214 -0.241361 1.646513
v 0.250256 -0.396977 1.617632
v 0.369423 -0.872095 2.156659
v 0.606903 -0.518805 1.453330
v -0.291405 0.845960 2.229678
v -0.283318 1.461586 2.346066
v 0.797569 1.494976 2.420604
v -0.661247 -3.706972 0.851595
v -0.450523 -3.780433 0.078217
v -0.070076 -3.654279 0.810561
v -0.102627 -3.716065 -0.576791
v 0.729946 -3.390491 0.283466
v -7.361160 1.936828 0.603554
v -7.004135 2.606158 -0.353929
v -6.903870 1.995148 1.332616
v -6.524063 2.646441 1.175018
v -5.559563 2.462632 1.816025
v -5.888687 2.862566 1.408264
v -6.944084 2.573609 0.628554
v -6.136253 3.324128 0.446271
v -6.656593 2.994868 -0.013611
v -5.950184 3.442369 -0.348580
v -5.572792 3.260530 1.107566
v -5.098827 1.834674 2.046044
v -4.879799 2.988445 1.503261
v -4.618385 2.119038 1.901921
v -4.089142 2.470702 1.582247
v -4.213974 2.988602 1.283239
v -5.296707 3.646854 0.318008
v -4.956402 3.546651 0.744262
v -5.036560 3.690217 -0.177624
v -4.315315 3.348914 0.964035
v -4.416180 3.703636 0.145518
v -3.656281 3.219495 1.531971
v -3.313534 2.114583 1.963480
v -2.614166 3.072553 1.881010
v -3.114578 3.994702 1.188667
v -3.632721 4.267362 0.166617
v -3.730083 3.970490 0.826421
v -2.716995 4.565731 0.138863
v -1.737144 2.085391 2.066412
v -1.099781 2.058266 1.927255
v -0.790062 2.821422 1.646141
v -2.212925 3.522444 1.666300
v -1.530602 2.965592 1.834879
v -2.179386 4.047436 1.253072
v -1.587646 3.563702 1.554204
v -1.269978 4.006742 1.065792
v -2.592251 4.413658 0.762185
v -1.933517 4.576064 0.106705
v -1.538414 4.391074 0.565876
v -0.979301 4.141083 0.600439
v -1.053417 4.283613 -0.325014
v -0.306362 2.151949 2.229652
v -0.059692 2.976643 1.810388
v 0.308308 2.132137 2.353068
v -0.561146 3.264117 1.287190
v -0.725361 4.114795 0.008918
v -0.305107 3.612166 0.706159
v -0.228729 3.747160 0.007230
v 0.530479 3.776448 -0.375542
v 0.697548 3.706612 0.694721
v -8.709644 -1.755815 -0.812685
v -8.585352 -1.583166 -1.336655
v -8.511005 -1.067105 -1.571846
v -8.805550 -0.902900 -0.722157
v -8.445423 -0.417689 -1.238529
v -8.159561 -2.303914 -1.168281
v -7.799965 -2.421734 -1.345287
v -7.550858 -2.710691 -0.663158
v -7.057411 -2.544075 -1.561346
v -6.807308 -2.834138 -0.480634
v -8.494465 -2.179537 -0.521855
v -8.031616 0.117886 -1.158100
v -7.423523 0.590068 -1.045799
v -7.364723 1.301893 -0.994131
v -7.459969 -2.106981 -2.125873
v -7.973167 -1.817839 -2.019535
v -7.988457 -1.047641 -2.286524
v -7.523193 -1.538862 -2.510899
v -7.176476 -1.146572 -2.775551
v -7.987907 -0.359165 -1.960417
v -7.342934 0.242297 -1.845804
v -7.233387 -0.164767 -2.413309
v -7.218613 -0.650047 -2.690523
v -6.880497 0.603272 -1.600912
v -6.378563 -2.508344 -1.578703
v -6.109741 -2.689612 -0.764810
v -5.616257 -2.366403 -1.328230
v -6.731434 -2.170126 -2.223741
v -6.555717 -1.628611 -2.698925
v -5.741730 -2.006336 -2.114454
v -5.709595 -1.550088 -2.499413
v -5.690918 -1.001991 -2.708862
v -6.357193 0.033949 -2.487631
v -5.331818 -0.132055 -2.328987
v -6.808144 1.687793 -1.546438
v -6.242252 0.552012 -1.894650
v -6.380508 1.818821 -1.777910
v -5.573151 0.383120 -1.987389
v -6.037888 1.078760 -2.026672
v -5.819534 1.813211 -1.998182
v -5.267269 0.689605 -2.042351
v -6.351295 -1.013396 -2.875475
v -6.288227 -0.514838 -2.815022
v -4.175335 -2.268055 -1.410677
v -4.966694 -2.169181 -0.644090
v -4.965065 -1.819390 -1.558399
v -4.954212 -1.974253 -1.264971
v -4.970913 -1.533691 -1.933084
v -5.005001 -1.317108 -2.153778
v -5.097977 -0.849897 -2.391266
v -4.201096 -1.769661 -2.184849
v -4.229122 -0.984710 -2.731033
v -5.198433 -0.520785 -2.399605
v -4.605602 -0.131641 -2.728388
v -4.415092 0.489027 -2.604847
v -4.874203 1.802309 -2.057184
v -4.911720 0.988727 -2.049820
v -4.471962 1.238728 -1.969765
v -3.851555 1.435874 -1.750406
v -3.751209 0.855010 -2.381702
v -3.898846 0.249589 -2.776831
v -3.648991 -2.547726 -0.715767
v -2.842079 -2.482056 -0.558237
v -3.311367 -2.238223 -1.592827
v -2.720882 -2.233716 -1.237642
v -2.544857 -2.316094 -1.351520
v -3.578514 -0.775540 -2.835705
v -3.487331 -1.539673 -2.463303
v -2.993160 -1.658513 -2.224405
v -2.805244 -1.040603 -2.510620
v -2.579311 -1.977059 -1.623846
v -2.456726 -1.579245 -1.975731
v -3.107006 0.347200 -2.525278
v -2.467384 -0.141557 -2.313820
v -3.099415 1.054814 -1.961374
v -2.588261 0.703025 -1.950121
v -3.108315 -0.289160 -2.740805
v -0.891468 -3.654738 -1.015022
v -2.364342 -2.844234 -1.046421
v -1.937515 -3.360925 -0.604602
v -1.640465 -3.353992 -1.277294
v -1.562664 -0.218108 -1.365288
v -1.016762 0.049531 -1.348799
v -1.633324 -2.355416 -2.485470
v -1.855957 -2.841255 -1.942575
v -1.105305 -2.797083 -2.473577
v -0.915390 -3.347595 -1.835979
v -2.234352 -1.931541 -2.008171
v -2.050224 -1.187751 -2.039667
v -2.143078 -0.921596 -2.006336
v -1.699860 -1.641524 -2.546226
v -1.214848 -1.847764 -2.825840
v -1.262520 -1.085608 -2.563730
v -2.113575 0.253476 -1.764418
v -1.860157 -0.391466 -1.580938
v -1.779289 -0.621357 -1.719250
v -0.981407 -0.131326 -1.356836
v -0.871193 -0.481325 -2.058281
v -1.039875 -0.798507 -2.392782
v -1.948887 1.058320 -2.027235
v -1.175152 0.645174 -1.724001
v -1.222664 1.190547 -1.881012
v 0.070854 -3.337575 -1.664108
v -0.745342 -2.483505 -2.769716
v -0.611126 -2.992232 -2.360784
v 0.164005 -2.948956 -2.174980
v -0.027050 -2.391541 -2.705723
v 0.576588 -2.391124 -2.331636
v 0.251450 -0.950652 -2.333551
v 0.488926 -1.444434 -2.446285
v -0.323669 -0.216240 -1.644678
v -0.424667 -0.092587 -1.534304
v -0.329891 -0.705740 -2.332582
v 0.299904 -0.402325 -1.582626
v 0.235065 0.272138 -2.033873
v 0.238010 -0.118764 -1.702457
v 0.687744 -0.389844 -1.417891
v -0.473190 1.231306 -2.263517
v -0.392300 0.469179 -2.025637
v 0.189503 1.515022 -2.415510
v 0.480137 0.888563 -2.348560
v -0.632122 -1.851333 -2.926716
v -0.380901 -1.250811 -2.766161
v 0.136009 -1.762319 -2.742359
v -7.078827 2.075860 -0.991179
v -6.368134 2.724023 -1.217869
v -6.198971 3.131666 -0.811393
v -6.036556 2.628282 -1.543551
v -5.346039 2.462180 -1.848204
v -5.668808 3.193762 -1.138066
v -5.066605 3.552176 -0.776495
v -4.333099 3.524258 -0.719940
v -4.242043 3.298173 -1.076039
v -4.090939 2.702853 -1.514925
v -4.582859 2.605973 -1.725329
v -5.066978 3.129843 -1.395235
v -3.757744 4.079761 -0.541899
v -3.292328 3.995911 -1.098881
v -3.180702 4.387804 -0.502386
v -2.251678 4.554342 -0.369724
v -3.980637 1.903266 -1.709761
v -3.318890 2.129012 -1.954727
v -3.402294 3.131074 -1.664391
v -2.522091 3.149272 -1.856009
v -2.586708 2.102009 -2.100069
v -2.704948 3.864066 -1.406220
v -2.045704 4.398639 -0.788297
v -1.542316 4.125730 -1.041157
v -1.548050 2.930423 -1.845709
v -1.731953 2.068005 -2.053355
v -1.147675 1.840572 -1.936024
v -0.739712 2.991232 -1.542900
v -1.492886 3.604858 -1.510828
v -0.423870 3.464591 -1.019099
v -0.293720 3.643074 -0.592367
v -0.941364 2.501559 -1.792637
v -0.320354 2.147683 -2.218378
v 0.122433 3.014046 -1.826279
v 0.666035 2.730780 -2.054039
v 0.455776 2.120629 -2.348059
v 1.152767 -2.364681 1.582380
v 0.783699 -1.971045 2.269538
v 0.917744 -0.982354 1.747986
v 1.220303 -1.796325 1.731773
v 1.122272 -1.451471 1.848400
v 1.425068 -2.304225 1.425605
v 1.864372 -1.569225 2.271620
v 1.882858 -2.208098 1.843181
v 2.043705 -1.056785 2.446668
v 0.360168 0.288738 2.073959
v 0.834614 -0.341636 1.463305
v 1.083385 -0.121459 1.686522
v 1.350010 0.158592 1.851181
v 1.486561 -0.826747 2.202992
v 1.553654 -0.311610 2.188488
v 1.710464 0.451726 1.877037
v 0.724468 0.910116 2.354593
v 1.796711 1.330150 2.141058
v 0.841106 -3.132036 1.040887
v 1.400387 -2.640346 0.743644
v 1.412766 -2.763465 0.036437
v 1.878685 -2.783862 0.937257
v 2.376945 -2.525849 1.554073
v 2.558495 -1.901599 2.133440
v 2.565655 -1.018678 2.437444
v 3.060677 -1.906572 1.864288
v 3.013027 -1.159529 2.223221
v 3.497292 -0.867622 1.839050
v 3.470699 -1.822601 1.496832
v 2.294216 0.238645 2.153715
v 2.088661 -0.430017 2.413923
v 2.851074 -0.373844 2.305336
v 2.890995 0.266076 1.958170
v 3.443092 0.426697 1.343975
v 3.397984 -0.172340 1.777598
v 2.167809 0.750613 1.760294
v 2.603428 1.557801 1.584743
v 2.678780 0.946764 1.456125
v 2.967285 0.759785 1.477021
v 3.617107 1.044386 1.660737
v 2.543793 -2.881567 0.760084
v 2.049980 -2.984497 0.226760
v 2.660858 -2.953347 -0.325415
v 2.916191 -2.529898 1.275432
v 3.119549 -2.745322 0.303714
v 3.662701 -2.032334 0.927200
v 3.671967 -2.175059 0.462830
v 3.537006 -1.372857 1.733540
v 3.694443 -1.816475 1.402616
v 4.159950 -1.689361 2.020401
v 4.319134 -2.092086 1.592585
v 4.179222 -1.078439 2.381016
v 4.509838 -1.307387 2.377190
v 4.851868 -1.551856 2.195612
v 4.856361 -2.072884 1.560161
v 3.623741 -0.245762 1.771948
v 4.114986 -0.507896 2.319010
v 4.168915 0.062274 1.960052
v 4.821495 -0.784230 2.438181
v 4.463211 -0.107002 2.224324
v 4.563599 0.492550 1.557359
v 4.912636 -0.189423 2.178584
v 4.482414 1.192590 1.610793
v 3.726120 0.264332 1.321442
v 4.282600 0.727707 1.470077
v 3.676727 -2.203993 -0.374499
v 4.688698 -2.471695 0.494470
v 5.207325 -2.314285 0.153780
v 3.837383 -2.280632 0.303595
v 4.144066 -2.282817 0.979621
v 6.268246 -2.433316 1.418009
v 5.502590 -1.233477 1.880072
v 5.431660 -1.619561 1.658185
v 6.162720 -1.578169 2.155809
v 5.879494 -2.042819 1.669901
v 6.286774 -0.902821 2.385525
v 6.442707 -1.994109 1.974419
v 5.446552 -0.621289 1.959105
v 4.979645 0.343960 1.641296
v 5.551033 -0.432208 1.851048
v 5.576164 0.044960 1.606500
v 6.118137 -0.162118 2.152857
v 5.385265 1.591025 1.724153
v 5.496658 0.878350 1.797133
v 6.293728 0.652616 1.688814
v 6.044300 1.255610 1.749557
v 5.938358 -2.746406 0.129591
v 5.874123 -2.545185 0.928168
v 6.522442 -2.751321 0.817137
v 5.265804 -2.217802 0.778160
v 5.339539 -2.073725 1.082673
v 6.891331 -2.498738 1.350702
v 6.921970 -1.384323 2.353250
v 7.047279 -2.004888 1.954717
v 7.501904 -2.157156 1.524132
v 7.717747 -1.253057 2.093596
v 8.092522 -1.779024 1.296526
v 8.247078 -1.245973 1.517717
v 6.744667 0.242783 2.164874
v 7.030937 -0.576818 2.462095
v 7.582245 -0.042231 2.167147
v 7.422501 0.564189 1.834748
v 7.802387 -0.613354 2.150076
v 8.005695 0.213248 1.719723
v 6.535702 1.674572 1.539514
v 6.959507 0.969348 1.467694
v 7.000259 1.904163 1.212998
v 7.562916 1.150803 0.963741
v 8.015068 0.783660 1.083712
v 6.751190 -2.862875 -0.180080
v 7.255768 -2.604026 0.859692
v 7.132648 -2.786974 0.171556
v 8.052139 -2.250516 -0.158981
v 7.831596 -2.335986 0.687909
v 8.401333 -0.526908 1.504265
v 8.379852 0.300471 1.123910
v 8.454941 -1.728877 0.265682
v 8.625107 -1.120224 0.773731
v 8.752018 -0.909730 -0.417670
v 8.679604 -0.180267 0.735907
v 8.509636 0.449338 0.485792
v 8.775723 -0.192211 0.005793
v 7.891544 1.142047 0.237816
v 8.336102 0.778203 -0.183656
v 8.626297 0.302929 -0.193432
v 0.571590 2.795324 2.010896
v 1.205185 2.208875 2.237996
v 1.806194 2.240354 1.990962
v 0.500034 3.301081 1.514396
v 1.370869 2.989408 1.695351
v 1.432808 3.314261 1.250670
v 1.279202 3.703215 0.218480
v 2.062534 3.339582 0.531748
v 1.999420 3.412871 0.004891
v 2.522472 2.121781 1.542809
v 2.333431 2.733913 1.287963
v 3.260895 2.925986 1.552539
v 3.385948 2.274171 1.758618
v 3.467342 1.685070 1.785964
v 3.013248 3.267773 1.289861
v 2.861267 3.919661 -0.072304
v 2.206165 3.037178 1.002527
v 2.891621 3.571197 0.963963
v 2.598289 3.730144 0.371561
v 3.250046 4.002157 0.284445
v 4.260380 2.491059 1.679095
v 4.635139 2.936686 1.375165
v 4.954453 2.037663 1.510619
v 3.941719 3.371609 1.292572
v 3.772743 3.811155 0.840388
v 3.842731 4.039240 -0.186245
v 4.305489 3.916964 0.415495
v 4.607693 3.864398 0.003787
v 4.818054 3.461292 0.859937
v 5.208794 3.463058 0.149423
v 5.962997 2.285727 1.387916
v 5.308193 2.647273 1.091397
v 6.124363 2.773574 0.778592
v 6.645611 2.536574 0.871007
v 6.708542 2.788960 0.064019
v 5.502899 2.912086 0.701896
v 5.585892 3.085562 0.079043
v 7.308868 2.048755 0.772601
v 7.343327 2.320098 0.237552
v 7.701447 1.731931 0.346768
v 7.703445 1.809215 -0.178614
v 0.576767 -3.394521 -0.825289
v 0.836872 -2.880776 -1.559185
v 1.400188 -2.663781 -0.645660
v 1.313568 -2.573895 -1.103492
v 1.420250 -2.286741 -1.442919
v 1.811390 -2.789129 -0.857699
v 2.292828 -2.354236 -1.790918
v 0.790943 -1.915056 -2.255773
v 1.126598 -1.452576 -1.848745
v 1.168499 -2.227989 -1.636391
v 1.219952 -1.789027 -1.737623
v 1.552555 -1.056111 -2.242720
v 1.864033 -1.882739 -2.093509
v 2.013840 -1.058559 -2.429493
v 0.688274 -0.639831 -1.542330
v 0.946400 -0.970458 -1.714132
v 1.077347 -0.134770 -1.676239
v 1.376472 0.151714 -1.845798
v 1.484539 -0.453610 -2.165974
v 2.051483 0.142555 -2.188908
v 1.275192 0.822447 -2.218357
v 1.007000 1.503626 -2.381432
v 1.782455 0.534543 -1.881346
v 1.879498 1.500577 -2.088869
v 2.053555 0.769442 -1.838926
v 2.371056 -2.765301 -1.132492
v 2.921600 -2.494182 -1.326130
v 3.214432 -2.528119 -0.831738
v 3.656055 -2.021257 -0.943770
v 3.494560 -1.870524 -1.422066
v 2.457935 -1.850472 -2.166082
v 2.510460 -1.057463 -2.440224
v 2.955914 -1.163464 -2.266079
v 3.028259 -1.875156 -1.901317
v 3.521126 -1.287274 -1.765625
v 2.326260 -0.285375 -2.410133
v 2.820835 0.282345 -1.998278
v 3.013115 -0.414503 -2.196203
v 3.429367 -0.115556 -1.706726
v 3.504047 -0.742125 -1.828606
v 2.565788 0.917740 -1.501431
v 2.620979 1.393111 -1.564289
v 3.076878 0.704159 -1.455544
v 3.486603 1.736627 -1.787779
v 4.188572 -2.430563 -0.331047
v 4.626396 -2.415396 -0.753556
v 5.261818 -2.219155 -0.741673
v 4.235130 -2.180406 -1.378273
v 3.685295 -1.772816 -1.489530
v 4.813103 -2.062109 -1.604097
v 3.660419 0.252140 -1.275835
v 3.980549 0.414831 -1.360157
v 4.212769 -0.988019 -2.421562
v 4.170982 -1.709981 -1.999973
v 4.416908 -1.335906 -2.354088
v 4.816139 -1.630055 -2.136907
v 4.899529 -1.072146 -2.373772
v 3.647701 -0.233203 -1.759890
v 4.158932 -0.568977 -2.349119
v 4.310493 -0.019128 -2.126509
v 4.847813 -0.308629 -2.298159
v 5.060246 0.292843 -1.631458
v 3.821247 1.174331 -1.697983
v 4.577511 0.483494 -1.561445
v 4.368107 0.968825 -1.539826
v 4.727123 1.661190 -1.593071
v 6.003548 -2.616171 -0.902637
v 6.524601 -2.783252 -0.739832
v 6.572849 -2.349483 -1.627788
v 5.380409 -1.982194 -1.220261
v 5.922531 -2.123405 -1.628738
v 5.430782 -1.605763 -1.657656
v 5.491890 -1.204449 -1.885040
v 5.495243 -0.591276 -1.911474
v 6.314659 -1.682373 -2.171173
v 6.232159 -0.919629 -2.353724
v 5.372078 0.012337 -1.592871
v 6.011013 0.442856 -1.690695
v 5.571175 -0.365354 -1.819561
v 6.375736 -0.147893 -2.282707
v 6.545341 0.332578 -2.033033
v 5.374733 1.096465 -1.803457
v 6.645638 0.805617 -1.634783
v 6.077480 1.304661 -1.734623
v 7.672775 -2.462610 -0.698179
v 7.256550 -2.414112 -1.305134
v 8.083969 -1.763197 -1.310156
v 7.137848 1.697626 -1.193159
v 7.291821 1.091860 -1.225651
v 7.699089 1.134559 -0.787786
v 7.889919 1.147566 -0.223309
v 6.828941 -1.013828 -2.454702
v 7.043350 -2.040981 -1.893360
v 7.373943 -1.451516 -2.200729
v 7.652309 -1.944644 -1.637125
v 7.963821 -1.122195 -1.928888
v 7.381432 0.111432 -2.170387
v 7.210781 -0.559907 -2.409628
v 7.720383 -0.410633 -2.191582
v 7.243496 0.544049 -1.896078
v 7.792191 0.652685 -1.514744
v 8.467796 -1.587060 -0.633988
v 8.380447 -1.184950 -1.316221
v 8.355934 0.425301 -1.011717
v 8.411255 -0.453892 -1.484032
v 8.684723 -0.190031 -0.712214
v 8.115555 0.233428 -1.586250
v 0.701794 3.553662 -1.092682
v 1.416008 3.527547 -0.771579
v 2.212574 3.045783 -1.003672
v 1.270573 2.155403 -2.229027
v 1.930969 2.180951 -1.927359
v 1.328926 2.985258 -1.718401
v 2.344391 2.705562 -1.297911
v 2.073689 3.321017 -0.588146
v 2.955708 3.803204 -0.644573
v 2.933857 3.365117 -1.192564
v 3.790665 3.803772 -0.848341
v 2.523289 2.152959 -1.530933
v 3.096203 2.498538 -1.669293
v 4.434063 3.838075 -0.514756
v 5.094189 3.451360 -0.502419
v 4.811985 3.373099 -0.953495
v 3.722870 2.755084 -1.638052
v 4.332893 2.297507 -1.697439
v 3.959106 3.383968 -1.274739
v 4.578815 2.992502 -1.367354
v 5.320854 2.664646 -1.068539
v 5.736961 2.153568 -1.482033
v 6.107342 2.386312 -1.272808
v 6.745358 2.377872 -0.995485
v 5.555889 2.946649 -0.596317
v 6.345146 2.775535 -0.664521
v 5.060089 2.232728 -1.404167
v 5.506302 1.646518 -1.703940
v 6.595993 1.679593 -1.507891
v 7.335899 2.211898 -0.534968
vn -0.8431 -0.3672 0.3929
vn -0.8600 -0.4926 0.1331
vn -0.9482 0.2494 0.1970
vn -0.8436 0.0563 0.5340
vn -0.5753 -0.4266 0.6979
vn -0.3183 -0.8048 0.5010
vn -0.5807 0.3537 0.7333
vn -0.5450 0.1863 0.8175
vn -0.1296 -0.9836 0.1257
vn -0.6395 -0.7317 0.2360
vn -0.6494 -0.6638 0.3709
vn -0.8890 0.3442 0.3020
vn -0.7175 0.6810 0.1462
vn -0.6110 0.7872 0.0842
vn -0.9899 0.0181 0.1404
vn -0.9707 0.2389 0.0254
vn -0.6480 0.6316 0.4257
vn -0.1482 -0.1369 0.9794
vn -0.2901 -0.0114 0.9569
vn 0.1173 0.0486 0.9919
vn -0.0241 -0.9388 0.3437
vn 0.1118 -0.6364 0.7632
vn 0.1471 -0.3933 0.9076
vn -0.2030 0.7415 0.6395
vn -0.2865 0.5990 0.7478
vn -0.4758 0.0185 0.8793
vn -0.4749 0.0171 0.8799
vn -0.4757 0.0183 0.8794
vn -0.0250 0.7701 0.6374
vn -0.4977 0.1939 0.8454
vn -0.2081 -0.0903 0.9739
vn -0.2139 -0.0831 0.9733
vn -0.2130 -0.0842 0.9734
vn 0.1978 0.6489 0.7347
vn 0.1981 0.6491 0.7344
vn 0.1980 0.6490 0.7345
vn -0.0022 -0.9755 0.2202
vn -0.0059 -0.9472 0.3205
vn 0.1439 -0.9842 0.1027
vn 0.1231 -0.9924 0.0072
vn 0.3133 -0.9337 0.1733
vn 0.5043 -0.6674 0.5480
vn 0.5195 -0.7915 0.3221
vn -0.4206 -0.7161 0.5570
vn -0.3593 -0.8052 0.4718
vn 0.4397 0.0661 0.8957
vn 0.5055 -0.1660 0.8467
vn -0.3836 -0.3576 0.8515
vn -0.3924 -0.1667 0.9045
vn 0.0949 -0.0563 0.9939
vn -0.1758 0.4399 0.8807
vn 0.4516 -0.8916 0.0330
vn 0.5330 -0.8091 0.2474
vn -0.4310 -0.8468 0.3117
vn 0.0605 0.1171 0.9913
vn 0.0503 0.4131 0.9093
vn -0.1694 -0.8529 0.4939
vn -0.1130 -0.6934 0.7116
vn 0.0310 -0.3918 0.9195
vn 0.0311 -0.3921 0.9194
vn 0.0300 -0.3899 0.9204
vn 0.2981 -0.6587 0.6908
vn 0.2916 -0.6576 0.6946
vn 0.2917 -0.6578 0.6944
vn 0.3235 -0.7741 0.5441
vn 0.5477 -0.2283 0.8049
vn 0.5473 -0.2282 0.8052
vn 0.5474 -0.2282 0.8052
vn 0.4851 -0.0039 0.8745
vn -0.0111 0.7512 0.6600
vn 0.1175 0.4733 0.8731
vn 0.1224 0.6908 0.7127
vn 0.4511 0.4618 0.7637
vn 0.4483 0.4656 0.7630
vn 0.4510 0.4621 0.7636
vn 0.4364 0.5226 0.7324
vn -0.2079 -0.0421 0.9772
vn -0.2116 -0.0369 0.9767
vn -0.2112 -0.0374 0.9767
vn 0.1527 -0.9772 0.1479
vn -0.4295 -0.8991 0.0840
vn -0.5164 -0.7330 0.4428
vn -0.6826 -0.5920 0.4285
vn -0.3937 -0.6224 0.6765
vn -0.4704 -0.6526 0.5940
vn -0.7395 -0.2399 0.6290
vn -0.7351 -0.5856 0.3416
vn -0.7163 -0.2062 0.6666
vn -0.5831 -0.2254 0.7805
vn -0.5667 0.3849 0.7285
vn -0.5647 0.3861 0.7294
vn -0.5695 0.3833 0.7271
vn 0.5470 -0.2281 0.8055
vn 0.7255 0.1865 0.6625
vn 0.6367 0.3758 0.6733
vn 0.7541 0.1397 0.6417
vn 0.7521 0.1574 0.6400
vn -0.4078 0.6676 0.6229
vn 0.2343 -0.5077 0.8291
vn 0.2342 -0.5077 0.8291
vn 0.2283 -0.5060 0.8318
vn 0.2349 -0.5077 0.8289
vn 0.0801 -0.3269 0.9417
vn 0.2183 -0.2921 0.9311
vn -0.5734 -0.8064 0.1446
vn -0.4827 -0.8447 0.2312
vn -0.4703 -0.8316 0.2954
vn 0.1762 -0.2653 0.9479
vn -0.1876 0.1437 0.9717
vn -0.2402 0.2833 0.9285
vn -0.0785 -0.3290 0.9411
vn 0.2865 0.2274 0.9307
vn -0.1251 -0.7719 0.6233
vn 0.2091 -0.5606 0.8012
vn 0.1785 -0.8269 0.5332
vn 0.4569 -0.7263 0.5135
vn 0.3187 0.1898 0.9286
vn 0.6080 0.1463 0.7804
vn -0.0646 0.5924 0.8031
vn -0.3936 -0.5979 0.6982
vn -0.3939 -0.5971 0.6988
vn -0.3940 -0.5966 0.6992
vn 0.0481 0.8293 0.5567
vn 0.0493 0.8286 0.5577
vn 0.0478 0.8295 0.5565
vn 0.2464 0.8003 0.5466
vn -0.0261 -0.2739 0.9614
vn 0.3374 0.6337 0.6961
vn 0.4804 0.7079 0.5178
vn -0.3943 -0.1657 0.9039
vn -0.3392 -0.4895 0.8033
vn -0.0652 -0.1039 0.9925
vn -0.1850 -0.9775 0.1015
vn 0.3332 -0.9422 0.0341
vn -0.1768 0.4690 0.8653
vn -0.8451 0.5317 0.0565
vn -0.5288 0.4781 0.7013
vn -0.3399 0.5195 0.7839
vn -0.2015 0.2952 0.9340
vn -0.5909 0.7230 0.3579
vn -0.6429 0.7400 0.1976
vn -0.4393 0.7369 0.5138
vn -0.0954 0.1880 0.9775
vn 0.1014 0.0293 0.9944
vn 0.0536 0.3779 0.9243
vn 0.0767 0.4346 0.8974
vn 0.4360 0.1504 0.8873
vn -0.1509 0.6421 0.7516
vn -0.1520 0.6698 0.7268
vn 0.2661 0.5293 0.8056
vn 0.0471 0.8070 0.5887
vn 0.2297 0.6808 0.6955
vn 0.1525 0.9135 0.3771
vn -0.3643 0.0095 0.9312
vn -0.4970 0.3409 0.7980
vn -0.2699 0.2765 0.9223
vn -0.2066 0.5133 0.8330
vn -0.4240 0.5976 0.6805
vn -0.3231 0.8800 0.3483
vn -0.2896 0.9149 0.2812
vn 0.2171 0.2004 0.9554
vn 0.2095 -0.0774 0.9747
vn 0.2009 -0.0827 0.9761
vn 0.2084 -0.0782 0.9749
vn -0.0886 0.6196 0.7799
vn 0.1004 0.6114 0.7849
vn 0.0762 0.3733 0.9246
vn 0.1315 0.4314 0.8925
vn 0.3421 0.4257 0.8377
vn 0.1786 0.6681 0.7223
vn 0.3581 0.5637 0.7443
vn -0.0872 0.7619 0.6417
vn -0.0031 0.9714 0.2376
vn 0.1224 0.8175 0.5628
vn 0.0787 0.9463 0.3135
vn 0.3481 0.9343 0.0768
vn -0.3672 0.1427 0.9191
vn -0.2899 0.5012 0.8153
vn -0.1572 0.4845 0.8606
vn -0.1306 0.4951 0.8590
vn 0.3040 0.5002 0.8108
vn 0.4814 0.7149 0.5071
vn -0.1304 0.8748 0.4666
vn -0.8586 -0.5032 -0.0978
vn -0.8762 0.4393 -0.1983
vn -0.6404 -0.7669 -0.0406
vn -0.3522 -0.9336 -0.0655
vn -0.2401 -0.9223 -0.3030
vn -0.1458 -0.9866 -0.0733
vn -0.7203 0.6791 -0.1415
vn -0.9293 0.1025 -0.3549
vn -0.9316 0.0959 -0.3506
vn -0.9294 0.1020 -0.3546
vn -0.2730 -0.8451 -0.4597
vn -0.7649 -0.5355 -0.3579
vn -0.7627 -0.2253 -0.6063
vn -0.6314 -0.2651 -0.7287
vn -0.5225 -0.1087 -0.8457
vn -0.6978 0.5983 -0.3938
vn -0.8089 0.3311 -0.4858
vn -0.5679 0.6935 -0.4433
vn -0.5038 0.1041 -0.8575
vn -0.5068 0.6512 -0.5649
vn -0.5210 0.7623 -0.3839
vn -0.7373 0.1093 -0.6666
vn 0.0989 -0.9639 -0.2473
vn 0.3451 -0.9122 -0.2210
vn 0.3025 -0.9505 -0.0712
vn 0.2671 -0.9181 -0.2927
vn -0.2105 -0.4120 -0.8865
vn 0.1951 -0.8207 -0.5370
vn 0.1908 -0.6817 -0.7063
vn 0.2325 -0.6367 -0.7352
vn 0.3012 -0.8478 -0.4364
vn -0.1828 0.4866 -0.8543
vn -0.1843 0.4837 -0.8556
vn -0.1829 0.4861 -0.8545
vn 0.2166 0.6080 -0.7638
vn -0.2347 0.7335 -0.6379
vn -0.2253 0.7706 -0.5962
vn -0.2392 0.7537 -0.6121
vn -0.4904 0.0651 -0.8691
vn -0.4893 0.0668 -0.8695
vn -0.4902 0.0656 -0.8691
vn -0.1195 -0.1975 -0.9730
vn -0.1530 0.1542 -0.9761
vn 0.5111 -0.8229 -0.2481
vn -0.3844 -0.8785 -0.2835
vn 0.5323 -0.6692 -0.5185
vn -0.4076 -0.6824 -0.6068
vn -0.3880 -0.8209 -0.4189
vn -0.3563 -0.7910 -0.4974
vn -0.3832 -0.4780 -0.7903
vn 0.3077 0.2712 -0.9120
vn 0.4463 0.1137 -0.8876
vn -0.4819 -0.0062 -0.8762
vn -0.3793 -0.1389 -0.9148
vn -0.0615 0.0569 -0.9965
vn -0.0207 -0.0016 -0.9998
vn -0.0206 -0.0005 -0.9998
vn -0.0207 -0.0013 -0.9998
vn -0.4559 0.3249 -0.8286
vn 0.1887 -0.0176 -0.9819
vn -0.4084 0.4659 -0.7849
vn -0.0959 0.6391 -0.7631
vn -0.3905 -0.1695 -0.9048
vn -0.2017 -0.9520 -0.2303
vn -0.1112 -0.9926 -0.0481
vn -0.0407 -0.9372 -0.3464
vn -0.0676 -0.9824 -0.1740
vn -0.5790 -0.7270 -0.3690
vn -0.1331 -0.5693 -0.8113
vn -0.0843 -0.8391 -0.5374
vn 0.1245 -0.7614 -0.6362
vn 0.2337 -0.4033 -0.8847
vn -0.6215 -0.5280 -0.5787
vn 0.3902 -0.6746 -0.6267
vn 0.3399 -0.1474 -0.9288
vn 0.3584 0.4954 -0.7913
vn 0.1066 0.0902 -0.9902
vn -0.7420 -0.6621 -0.1051
vn -0.8735 -0.4302 -0.2279
vn -0.7152 -0.6893 -0.1152
vn -0.6107 -0.7417 -0.2773
vn -0.3710 -0.9123 -0.1732
vn 0.0077 0.0459 -0.9989
vn -0.3698 -0.7900 -0.4890
vn -0.3311 -0.4186 -0.8457
vn 0.4259 -0.4837 -0.7646
vn -0.7495 -0.3522 -0.5606
vn 0.6093 -0.3243 -0.7236
vn -0.2034 0.0515 -0.9777
vn -0.7205 -0.3432 -0.6026
vn -0.5425 0.4036 -0.7368
vn -0.3305 -0.3224 -0.8871
vn 0.7808 0.0804 -0.6195
vn 0.7852 0.1367 -0.6040
vn 0.1842 0.5535 -0.8122
vn 0.4532 0.2647 -0.8512
vn 0.2440 -0.4445 -0.8619
vn -0.4972 0.5950 -0.6314
vn 0.1811 -0.3386 -0.9234
vn 0.2347 -0.2500 -0.9394
vn -0.4235 -0.2845 -0.8601
vn 0.3328 -0.9058 -0.2622
vn 0.6051 0.0671 -0.7933
vn -0.3026 -0.0168 -0.9530
vn -0.3668 -0.6004 -0.7106
vn -0.1812 0.5684 -0.8026
vn -0.2091 -0.6336 -0.7449
vn -0.2090 -0.6334 -0.7450
vn -0.2133 -0.6362 -0.7415
vn -0.2087 -0.6334 -0.7452
vn 0.2469 0.5890 -0.7695
vn -0.1393 -0.4058 -0.9033
vn -0.1948 -0.3110 -0.9302
vn -0.1566 0.3124 -0.9369
vn -0.1597 0.3164 -0.9351
vn -0.1597 0.3163 -0.9351
vn 0.1186 -0.2593 -0.9585
vn 0.2115 0.1689 -0.9627
vn -0.9146 0.2412 -0.3246
vn -0.8693 0.3226 -0.3745
vn -0.8274 0.4756 -0.2988
vn -0.6811 0.6001 -0.4195
vn -0.6239 0.4643 -0.6286
vn -0.6481 0.6555 -0.3877
vn -0.4223 0.7219 -0.5482
vn -0.3506 0.9348 0.0570
vn -0.3409 0.8550 -0.3908
vn -0.3605 0.1429 -0.9217
vn -0.3951 0.6910 -0.6053
vn -0.2531 0.9662 -0.0483
vn -0.1514 0.8165 -0.5572
vn 0.0979 0.9687 -0.2282
vn 0.0726 0.8503 -0.5213
vn 0.0832 0.3544 -0.9314
vn 0.3111 0.0751 -0.9474
vn -0.5784 0.8080 -0.1119
vn -0.5024 0.6882 -0.5234
vn -0.4574 0.8763 -0.1513
vn -0.3106 0.9497 -0.0389
vn -0.3918 0.1665 -0.9049
vn -0.4491 0.4535 -0.7698
vn -0.1955 0.4860 -0.8518
vn 0.3896 0.6369 -0.6653
vn -0.0146 0.9993 -0.0358
vn -0.1076 0.9133 -0.3927
vn -0.1186 0.8101 -0.5742
vn 0.2643 0.9392 -0.2193
vn 0.2821 0.8782 -0.3862
vn -0.0565 -0.1038 -0.9930
vn -0.0564 -0.1123 -0.9921
vn -0.0563 -0.1125 -0.9921
vn 0.0604 0.2230 -0.9729
vn 0.0619 0.2213 -0.9733
vn 0.0611 0.2221 -0.9731
vn 0.0531 -0.0372 -0.9979
vn 0.2443 0.1321 -0.9606
vn 0.3097 0.3277 -0.8926
vn 0.4728 0.7523 -0.4588
vn -0.0969 0.9284 -0.3587
vn -0.0714 0.9476 -0.3114
vn -0.4535 -0.0231 -0.8910
vn -0.4089 0.3135 -0.8570
vn -0.2593 0.0906 -0.9615
vn 0.4091 0.5405 -0.7352
vn -0.2120 0.7852 -0.5818
vn 0.5988 -0.2077 0.7735
vn 0.6417 0.1852 0.7443
vn 0.6279 0.4147 0.6585
vn 0.5248 -0.2742 0.8058
vn -0.4406 -0.5088 0.7396
vn -0.4750 -0.5868 0.6558
vn 0.2694 -0.3956 0.8780
vn 0.1063 -0.5772 0.8096
vn -0.7090 0.0922 0.6992
vn -0.3966 0.4155 0.8186
vn 0.2984 -0.3015 0.9056
vn 0.4503 -0.8632 0.2285
vn 0.7162 -0.6143 0.3314
vn 0.6945 -0.7060 0.1387
vn 0.6945 -0.7060 0.1390
vn 0.6961 -0.7052 0.1350
vn 0.6962 -0.7050 0.1349
vn 0.4085 -0.8245 0.3916
vn -0.0073 -0.6791 0.7340
vn 0.3352 -0.6909 0.6405
vn 0.3292 -0.6876 0.6471
vn 0.3299 -0.6880 0.6463
vn 0.3360 -0.6914 0.6396
vn 0.6505 -0.4266 0.6284
vn 0.5715 -0.3255 0.7533
vn -0.2717 0.4204 0.8657
vn 0.0139 0.0512 0.9986
vn 0.1291 0.1438 0.9811
vn 0.2597 0.4479 0.8555
vn 0.4304 -0.0056 0.9026
vn 0.5746 0.3623 0.7339
vn -0.1704 0.5736 0.8012
vn 0.2103 0.6219 0.7543
vn 0.2156 0.6273 0.7483
vn 0.2105 0.6221 0.7541
vn 0.5534 0.5359 0.6376
vn -0.1889 -0.2253 0.9558
vn -0.1850 -0.2295 0.9556
vn -0.1845 -0.2299 0.9556
vn -0.1907 -0.1866 0.9637
vn -0.2224 -0.8224 0.5237
vn -0.0267 -0.9144 0.4040
vn 0.1214 -0.9895 0.0785
vn 0.2192 -0.8724 0.4369
vn 0.3000 -0.9492 0.0951
vn 0.4255 -0.8606 0.2798
vn 0.6209 -0.7277 0.2913
vn 0.6657 -0.7094 0.2313
vn 0.3523 -0.4760 0.8058
vn -0.5457 -0.4132 0.7291
vn -0.0626 -0.6500 0.7573
vn 0.0658 -0.7714 0.6330
vn 0.2877 -0.2782 0.9164
vn 0.2206 0.6204 0.7526
vn -0.5188 -0.2136 0.8278
vn -0.6739 0.2134 0.7074
vn -0.3878 0.5171 0.7631
vn -0.0547 0.2743 0.9601
vn 0.1615 0.3739 0.9133
vn 0.3640 0.5280 0.7673
vn -0.0593 -0.4422 0.8949
vn -0.1525 0.7463 0.6479
vn 0.1069 0.6989 0.7072
vn 0.7140 -0.6996 0.0282
vn -0.2387 -0.9663 0.0966
vn -0.2403 -0.9649 0.1059
vn -0.2402 -0.9650 0.1052
vn -0.3171 -0.9083 0.2728
vn -0.5195 -0.8541 0.0266
vn -0.0527 -0.9492 0.3104
vn 0.4854 -0.7224 0.4924
vn -0.5763 -0.5942 0.5611
vn -0.5122 -0.3553 0.7820
vn -0.4670 -0.2067 0.8598
vn -0.3545 -0.5639 0.7459
vn -0.2890 -0.7053 0.6473
vn 0.2652 0.4287 0.8637
vn 0.7360 -0.0200 0.6767
vn -0.5183 0.1467 0.8426
vn -0.2093 -0.0985 0.9729
vn -0.0575 -0.2278 0.9720
vn 0.0712 -0.2160 0.9738
vn 0.0147 0.1041 0.9945
vn 0.1206 -0.0500 0.9914
vn -0.5057 -0.7261 0.4660
vn -0.4967 -0.8495 0.1779
vn -0.4996 -0.8487 0.1737
vn -0.4979 -0.8492 0.1758
vn -0.2200 -0.8976 0.3820
vn -0.2621 -0.9406 0.2159
vn 0.3543 -0.9286 0.1103
vn -0.4923 -0.7190 0.4905
vn -0.1118 -0.4595 0.8811
vn 0.0061 -0.7858 0.6184
vn 0.3431 -0.4575 0.8203
vn 0.6628 -0.4427 0.6038
vn -0.2069 0.2500 0.9459
vn -0.1948 0.2735 0.9419
vn -0.0462 -0.1273 0.9908
vn 0.1257 0.3767 0.9178
vn 0.3665 -0.1298 0.9213
vn 0.3025 0.0292 0.9527
vn 0.3204 0.0966 0.9423
vn 0.4911 0.2090 0.8457
vn 0.1705 0.5078 0.8444
vn 0.5004 0.6408 0.5821
vn -0.0446 -0.8907 0.4525
vn 0.4540 -0.8779 0.1522
vn 0.5162 -0.8551 0.0481
vn 0.4799 -0.8000 0.3603
vn 0.5983 -0.7021 0.3860
vn -0.7879 0.0232 0.6154
vn 0.8910 0.2131 0.4008
vn 0.9518 0.3067 0.0003
vn 0.7294 -0.1440 0.6687
vn 0.7090 0.1805 0.6817
vn 0.8442 -0.3951 0.3622
vn 0.8886 -0.1828 0.4206
vn 0.8834 0.2145 0.4167
vn 0.8996 0.3478 0.2641
vn 0.9922 -0.0862 0.0905
vn 0.6702 0.5476 0.5010
vn 0.5700 0.7832 0.2486
vn 0.7193 0.6711 0.1793
vn 0.0783 0.4324 0.8983
vn 0.2813 0.0839 0.9559
vn 0.3071 0.4984 0.8107
vn 0.1576 0.7868 0.5967
vn 0.2568 0.9164 0.3071
vn 0.3020 0.9060 0.2965
vn 0.3931 0.9160 0.0803
vn 0.4277 0.7005 0.5713
vn 0.4197 0.8165 0.3964
vn 0.5412 0.1315 0.8306
vn 0.5413 0.1313 0.8305
vn 0.5360 0.1380 0.8329
vn 0.5244 0.4602 0.7164
vn 0.5354 0.1388 0.8331
vn -0.1896 -0.2246 0.9558
vn -0.3280 0.4147 0.8488
vn 0.4328 0.7075 0.5587
vn -0.4835 0.6620 0.5727
vn -0.4146 0.5253 0.7430
vn -0.4440 0.7857 0.4307
vn -0.3107 0.8683 0.3868
vn 0.0114 0.3034 0.9528
vn 0.2284 -0.0122 0.9735
vn 0.3907 0.2713 0.8796
vn 0.0691 0.4218 0.9040
vn 0.1770 0.4486 0.8760
vn -0.0803 0.6996 0.7100
vn 0.2606 0.8082 0.5281
vn 0.2980 0.6140 0.7309
vn 0.0030 0.4337 0.9011
vn -0.0449 0.5836 0.8108
vn 0.1282 0.7573 0.6403
vn 0.2188 0.7326 0.6445
vn 0.5660 0.5222 0.6380
vn 0.3194 0.4992 0.8055
vn 0.8446 0.5293 0.0811
vn 0.6470 -0.7526 -0.1219
vn -0.0097 -0.7619 -0.6476
vn -0.3491 -0.9282 -0.1286
vn -0.3495 -0.9280 -0.1292
vn -0.3449 -0.9311 -0.1187
vn -0.2976 -0.9488 -0.1055
vn 0.5135 -0.7778 -0.3625
vn 0.4996 -0.7309 -0.4649
vn 0.7336 -0.4345 -0.5226
vn 0.5720 -0.1284 -0.8102
vn 0.6241 0.4176 -0.6603
vn 0.6039 0.4419 -0.6634
vn 0.6777 0.1429 -0.7213
vn 0.7766 -0.2266 -0.5879
vn 0.2605 -0.7759 -0.5746
vn -0.4626 -0.3233 -0.8255
vn -0.3114 -0.6974 -0.6455
vn -0.3599 -0.2954 -0.8850
vn 0.3823 -0.2877 -0.8781
vn 0.5023 0.6738 -0.5420
vn 0.0574 -0.6454 -0.7617
vn -0.0251 0.4454 -0.8950
vn -0.6059 0.1305 -0.7848
vn -0.6598 -0.0370 -0.7506
vn -0.6553 0.0222 -0.7551
vn -0.4178 0.3656 -0.8317
vn -0.4179 0.3654 -0.8318
vn -0.3173 0.2667 -0.9100
vn 0.0928 -0.4817 -0.8714
vn 0.4003 -0.3060 -0.8638
vn 0.4178 -0.2032 -0.8855
vn -0.0917 -0.9833 -0.1570
vn 0.3240 -0.8890 -0.3235
vn 0.3975 -0.8689 -0.2951
vn 0.6323 -0.7689 -0.0943
vn -0.2096 -0.8404 -0.4998
vn 0.2744 -0.3304 -0.9031
vn 0.3732 -0.3928 -0.8405
vn 0.6574 -0.4044 -0.6358
vn -0.0217 0.0338 -0.9992
vn 0.6107 0.0272 -0.7914
vn 0.6532 -0.0667 -0.7542
vn 0.5570 -0.1468 -0.8174
vn 0.5763 -0.1725 -0.7988
vn 0.5663 -0.5413 -0.6216
vn 0.0711 0.6455 -0.7604
vn 0.0662 0.6310 -0.7730
vn 0.3362 0.6602 -0.6717
vn 0.5792 0.4883 -0.6527
vn -0.1948 -0.9520 -0.2361
vn -0.4996 -0.7780 -0.3809
vn 0.3118 -0.8709 -0.3798
vn -0.4042 -0.9146 -0.0076
vn -0.3702 -0.8883 -0.2717
vn -0.0458 -0.5055 -0.8616
vn -0.5313 -0.4041 -0.7446
vn -0.4685 -0.4251 -0.7745
vn -0.0774 -0.6581 -0.7490
vn 0.1862 -0.4074 -0.8941
vn 0.2017 0.6890 -0.6961
vn -0.1444 0.1723 -0.9744
vn -0.6595 -0.1066 -0.7441
vn -0.5225 0.6257 -0.5793
vn -0.0808 0.3931 -0.9159
vn -0.0307 -0.4116 -0.9108
vn -0.0310 -0.4114 -0.9109
vn -0.0318 -0.4114 -0.9109
vn 0.2093 -0.1824 -0.9607
vn -0.1518 -0.0215 -0.9882
vn -0.4907 -0.8601 -0.1395
vn -0.2634 -0.9549 -0.1371
vn -0.1682 -0.9831 -0.0718
vn 0.2856 -0.9056 -0.3135
vn 0.5534 -0.4728 -0.6857
vn -0.5803 -0.5830 -0.5686
vn -0.4902 -0.3720 -0.7882
vn -0.5253 -0.0338 -0.8502
vn 0.5469 0.1191 -0.8287
vn 0.6311 -0.0369 -0.7749
vn -0.1978 0.4257 -0.8830
vn -0.5358 0.4093 -0.7385
vn -0.3065 0.4453 -0.8413
vn -0.0340 -0.1732 -0.9843
vn -0.1463 -0.8857 -0.4406
vn 0.1186 -0.8947 -0.4306
vn 0.2691 -0.9323 -0.2416
vn 0.3227 -0.9348 -0.1483
vn 0.5007 -0.8655 -0.0118
vn -0.1996 -0.2484 -0.9479
vn 0.0696 -0.4344 -0.8980
vn 0.1963 -0.7943 -0.5750
vn 0.3909 -0.5883 -0.7078
vn 0.6508 -0.4606 -0.6036
vn -0.0717 0.1581 -0.9848
vn 0.3055 -0.1639 -0.9380
vn 0.4225 -0.1327 -0.8966
vn 0.4828 -0.1531 -0.8622
vn 0.5368 0.3791 -0.7538
vn 0.4737 0.1668 -0.8648
vn 0.4926 0.1524 -0.8568
vn 0.2851 0.7321 -0.6187
vn 0.9123 -0.2908 -0.2882
vn 0.9263 -0.3741 -0.0457
vn 0.8743 0.2713 -0.4025
vn 0.6373 0.7706 0.0070
vn 0.6576 0.5876 -0.4714
vn 0.8346 0.5137 -0.1989
vn 0.8078 -0.1640 -0.5661
vn 0.7067 0.2033 -0.6776
vn 0.2080 0.9676 -0.1429
vn 0.2543 0.8290 -0.4982
vn 0.3765 0.8253 -0.4208
vn 0.0428 0.0920 -0.9948
vn 0.3510 0.4727 -0.8083
vn 0.4027 0.1825 -0.8970
vn -0.4507 0.6674 -0.5928
vn 0.4451 0.5222 -0.7275
vn 0.5854 0.1451 -0.7977
vn -0.2413 0.0116 -0.9704
vn -0.0808 0.9411 -0.3283
vn -0.0700 0.6969 -0.7138
vn 0.2629 0.7665 -0.5859
vn 0.2463 0.7375 -0.6288
vn 0.2832 0.6211 -0.7308
vn 0.4972 0.8420 -0.2092
vn 0.4635 0.7776 -0.4249
vn 0.1507 -0.0682 -0.9862
vn 0.1506 -0.0681 -0.9862
vn 0.1504 -0.0680 -0.9863
vn 0.0109 0.1430 -0.9897
vn 0.1509 -0.0683 -0.9862
vn 0.1532 0.4506 -0.8795
vn 0.4770 0.3414 -0.8099
vn 0.0286 0.6427 -0.7656
vn 0.5707 0.8131 -0.1149
vn 0.5938 0.5255 -0.6093
vn 0.6797 0.7119 -0.1766
vn 0.1595 0.3397 -0.9269
vn 0.1530 0.3377 -0.9287
vn 0.1520 0.3374 -0.9290
vn 0.1596 0.3398 -0.9269
vn 0.4972 0.7931 -0.3517
vn 0.6104 0.7836 -0.1156
vn 0.7756 0.6240 -0.0949
vn 0.8237 0.3771 -0.4235
vn 0.9083 0.2771 -0.3134
vn -0.9667 -0.0288 0.2542
vn -0.9750 -0.1942 0.1076
vn -0.9088 -0.1274 0.3974
vn -0.9439 0.3283 0.0357
vn -0.7370 -0.5040 0.4503
vn -0.7011 -0.1172 0.7034
vn -0.5790 -0.4503 0.6796
vn -0.4442 -0.4387 0.7812
vn -0.3822 -0.7675 0.5147
vn -0.2293 -0.5420 0.8085
vn -0.8317 0.2090 0.5144
vn -0.7789 0.3075 0.5466
vn -0.6738 0.6029 0.4272
vn -0.5864 0.6659 0.4612
vn -0.5073 0.5275 0.6815
vn -0.5362 -0.8289 0.1593
vn -0.4124 -0.8980 0.1534
vn -0.3468 -0.9199 0.1831
vn -0.2482 -0.8940 0.3729
vn -0.8450 -0.5100 0.1607
vn -0.7768 0.6264 0.0649
vn -0.7575 0.5858 0.2882
vn -0.6520 0.7454 0.1390
vn -0.9898 0.1400 0.0261
vn -0.4778 0.7909 0.3823
vn -0.5136 0.7688 0.3809
vn -0.9152 0.1583 0.3706
vn -0.9075 0.2445 0.3417
vn -0.3812 -0.6370 0.6700
vn -0.0279 -0.1456 0.9889
vn -0.3316 0.0700 0.9408
vn 0.0084 -0.8704 0.4922
vn 0.2989 -0.8900 0.3443
vn -0.1289 -0.6524 0.7469
vn -0.1488 -0.7862 0.5998
vn 0.1881 -0.6806 0.7081
vn 0.1966 -0.8257 0.5287
vn 0.2517 -0.8386 0.4831
vn 0.3988 -0.5760 0.7136
vn 0.3526 -0.3677 0.8605
vn -0.1727 0.4983 0.8496
vn -0.2538 0.6158 0.7459
vn 0.0190 0.4335 0.9010
vn 0.4662 -0.0431 0.8836
vn 0.2328 0.5411 0.8081
vn 0.1989 0.6496 0.7338
vn -0.2598 0.8060 0.5319
vn -0.4739 0.0156 0.8804
vn -0.2074 -0.0910 0.9740
vn 0.3296 -0.8904 0.3140
vn -0.2423 0.0786 0.9670
vn 0.5730 -0.4679 0.6729
vn 0.4868 -0.5988 0.6359
vn 0.5279 -0.6792 0.5099
vn 0.0996 -0.9395 0.3277
vn 0.3970 -0.0973 0.9127
vn 0.3164 0.4820 0.8170
vn -0.4285 -0.1389 0.8928
vn -0.5265 0.1210 0.8415
vn -0.4823 0.2460 0.8408
vn -0.3576 -0.3007 0.8841
vn -0.0223 -0.1495 0.9885
vn -0.0214 -0.1516 0.9882
vn -0.0215 -0.1513 0.9883
vn -0.0213 -0.1517 0.9882
vn -0.5515 0.3547 0.7550
vn -0.5225 0.3507 0.7772
vn -0.3955 0.5507 0.7351
vn -0.3216 0.2661 0.9087
vn -0.2201 0.5773 0.7863
vn 0.4273 -0.9034 0.0351
vn -0.3447 -0.9384 0.0248
vn 0.4921 -0.8669 0.0798
vn 0.4510 -0.8062 0.3830
vn 0.9716 0.2252 -0.0728
vn -0.3936 -0.9143 0.0958
vn -0.3643 -0.8993 0.2420
vn 0.0290 -0.3877 0.9213
vn 0.1569 0.0199 0.9874
vn -0.0445 -0.7741 0.6315
vn 0.0089 -0.7755 0.6312
vn 0.2639 -0.4729 0.8407
vn 0.2985 -0.6587 0.6907
vn 0.4563 -0.5559 0.6949
vn 0.3910 0.0722 0.9175
vn 0.0177 0.6402 0.7680
vn 0.2603 0.6858 0.6796
vn 0.4480 0.4657 0.7632
vn -0.0435 -0.1106 0.9929
vn -0.1112 -0.9485 0.2967
vn -0.1618 -0.9527 0.2574
vn -0.1946 -0.9806 0.0247
vn 0.1024 -0.9536 0.2831
vn 0.2497 -0.8877 0.3868
vn 0.1493 -0.9178 0.3679
vn -0.6311 -0.5736 0.5223
vn -0.3189 -0.6412 0.6980
vn -0.3454 -0.8507 0.3962
vn -0.2342 -0.8847 0.4031
vn -0.7023 -0.2229 0.6760
vn -0.7373 0.0711 0.6718
vn -0.5639 0.3866 0.7298
vn -0.5203 -0.1565 0.8395
vn -0.5042 0.3113 0.8055
vn 0.5598 -0.2225 0.7982
vn 0.6757 0.1139 0.7283
vn 0.3035 -0.3942 0.8675
vn -0.3741 0.6915 0.6180
vn -0.3174 0.7860 0.5306
vn -0.1856 0.8709 0.4550
vn -0.0400 -0.1715 0.9844
vn 0.1887 -0.3323 0.9241
vn -0.2204 -0.9705 0.0976
vn -0.7749 -0.5242 0.3534
vn -0.7658 -0.6239 0.1559
vn -0.7913 -0.6001 0.1170
vn -0.2340 -0.1092 0.9661
vn 0.1767 -0.3952 0.9014
vn 0.0826 -0.7674 0.6358
vn 0.5032 -0.6247 0.5972
vn 0.2691 -0.2878 0.9191
vn -0.0897 0.6326 0.7693
vn 0.0498 0.8283 0.5580
vn 0.1994 0.5180 0.8318
vn -0.5952 0.0174 0.8034
vn 0.3245 0.7440 0.5841
vn 0.5218 0.6785 0.5170
vn -0.3951 -0.5925 0.7020
vn -0.4263 -0.3439 0.8367
vn -0.2294 -0.5013 0.8343
vn -0.0909 -0.3652 0.9265
vn -0.1086 -0.1833 0.9770
vn -0.1084 -0.9920 0.0647
vn 0.0964 -0.9881 0.1201
vn 0.2492 -0.9677 0.0373
vn -0.1089 -0.9401 0.3231
vn 0.3866 0.9157 0.1101
vn 0.4333 -0.8739 0.2202
vn -0.9446 0.3125 0.1001
vn -0.7962 0.3824 0.4688
vn -0.7598 0.4804 0.4381
vn -0.8358 0.5447 0.0691
vn -0.6995 0.2582 0.6664
vn -0.5693 0.2796 0.7731
vn -0.4454 0.5337 0.7188
vn -0.7065 0.5265 0.4729
vn -0.7726 0.6312 0.0681
vn -0.5350 0.8449 0.0004
vn -0.4574 0.7594 0.4628
vn -0.1243 0.2596 0.9577
vn 0.2274 0.1063 0.9680
vn 0.2150 0.4597 0.8616
vn 0.3864 0.0889 0.9180
vn -0.2929 0.8953 0.3357
vn -0.2006 0.9059 0.3731
vn -0.0233 0.8042 0.5938
vn -0.0526 0.9968 0.0596
vn -0.0155 0.9705 0.2405
vn -0.6333 0.6786 0.3721
vn -0.4120 0.0749 0.9081
vn -0.3310 0.2524 0.9092
vn -0.2074 -0.0429 0.9773
vn -0.1720 0.2084 0.9628
vn -0.1581 0.5366 0.8289
vn -0.5156 0.4824 0.7082
vn -0.5676 0.7789 0.2667
vn -0.4618 0.5828 0.6687
vn -0.3008 0.8382 0.4550
vn 0.0588 -0.0488 0.9971
vn 0.0375 0.2166 0.9755
vn 0.2001 -0.0829 0.9763
vn 0.2820 0.2288 0.9317
vn 0.0649 0.2396 0.9687
vn 0.1433 0.8472 0.5116
vn 0.3409 0.8248 0.4511
vn -0.9886 -0.0907 -0.1200
vn -0.4494 0.0120 0.8932
vn -0.3641 0.4484 0.8163
vn -0.0703 0.0516 0.9962
vn -0.1895 0.1571 0.9692
vn -0.2953 0.6892 0.6617
vn -0.0266 0.6984 0.7152
vn 0.4841 0.6400 0.5967
vn 0.5816 0.7845 0.2150
vn 0.5817 0.7845 0.2149
vn 0.5815 0.7846 0.2151
vn -0.1529 0.7969 0.5844
vn -0.0800 0.9010 0.4265
vn -0.0902 0.9796 0.1794
vn -0.0053 0.9978 0.0659
vn -0.1087 -0.0078 -0.9940
vn -0.9634 -0.0812 -0.2553
vn -0.8253 -0.5640 -0.0269
vn -0.9455 -0.0121 -0.3254
vn -0.9530 0.3027 -0.0102
vn -0.8905 0.2757 -0.3620
vn -0.5657 -0.8132 -0.1366
vn -0.4538 -0.8768 -0.1593
vn -0.4028 -0.8863 -0.2284
vn -0.1026 -0.9664 -0.2356
vn -0.7626 -0.5816 -0.2832
vn -0.7615 0.6178 -0.1960
vn -0.6702 0.7298 -0.1353
vn -0.9318 0.0955 -0.3502
vn -0.5791 0.7919 -0.1939
vn -0.7142 -0.5290 -0.4584
vn -0.7958 -0.1524 -0.5860
vn -0.4819 -0.7195 -0.5000
vn -0.5001 -0.7003 -0.5094
vn -0.4496 -0.5349 -0.7154
vn -0.1444 -0.8296 -0.5394
vn -0.2076 -0.5645 -0.7989
vn -0.7812 0.2677 -0.5639
vn -0.5779 0.3915 -0.7161
vn -0.5466 0.3588 -0.7566
vn -0.4251 0.8136 -0.3965
vn -0.0835 -0.9965 -0.0029
vn 0.0438 -0.9623 -0.2684
vn 0.1796 -0.9820 -0.0587
vn 0.0339 -0.8774 -0.4786
vn -0.1570 -0.6221 -0.7670
vn 0.2456 -0.3533 -0.9027
vn -0.1847 0.4832 -0.8558
vn 0.2122 0.5202 -0.8273
vn 0.3596 0.2447 -0.9004
vn -0.7134 0.0825 -0.6959
vn -0.4835 0.0761 -0.8720
vn -0.4214 -0.0632 -0.9047
vn 0.0947 0.7405 -0.6653
vn -0.1452 -0.0324 -0.9889
vn -0.0762 -0.2515 -0.9648
vn 0.2356 -0.3396 -0.9106
vn -0.1408 0.1367 -0.9806
vn 0.2423 0.0865 -0.9663
vn 0.4908 -0.8422 -0.2232
vn 0.5182 -0.8513 -0.0820
vn 0.4891 -0.7608 -0.4266
vn 0.4918 -0.7624 -0.4206
vn 0.4912 -0.7621 -0.4218
vn -0.4031 -0.9100 -0.0970
vn -0.3448 -0.9078 -0.2388
vn 0.5008 -0.3238 -0.8027
vn 0.5094 -0.3072 -0.8038
vn 0.4886 -0.7611 -0.4266
vn 0.5047 -0.5762 -0.6429
vn 0.5054 -0.5768 -0.6418
vn 0.5045 -0.5760 -0.6432
vn 0.5055 -0.5769 -0.6416
vn -0.4040 -0.7304 -0.5507
vn -0.3369 -0.5458 -0.7672
vn -0.4714 0.3233 -0.8206
vn -0.0212 -0.0081 -0.9997
vn -0.2162 0.6215 -0.7530
vn -0.4721 0.3092 -0.8255
vn -0.0228 0.5503 -0.8347
vn -0.1997 0.2499 -0.9475
vn 0.0923 -0.9940 -0.0584
vn 0.1327 -0.9496 -0.2840
vn 0.1916 -0.9324 -0.3066
vn 0.0274 -0.9805 -0.1949
vn -0.0036 -0.4384 -0.8988
vn 0.0066 -0.7793 -0.6267
vn 0.2886 -0.4733 -0.8323
vn 0.2510 -0.7728 -0.5829
vn 0.2816 -0.8435 -0.4574
vn 0.4870 0.2793 -0.8276
vn 0.5588 -0.0285 -0.8288
vn 0.0053 0.7363 -0.6766
vn 0.1918 0.7372 -0.6478
vn 0.2059 0.4991 -0.8417
vn 0.3412 0.6301 -0.6975
vn 0.5465 0.3960 -0.7379
vn 0.6273 0.3820 -0.6787
vn 0.0866 -0.9397 -0.3308
vn 0.2530 0.3099 -0.9165
vn -0.5350 -0.8448 -0.0044
vn -0.4236 -0.9046 -0.0477
vn -0.2998 -0.9304 -0.2107
vn -0.7507 -0.5036 -0.4276
vn -0.6114 -0.7101 -0.3492
vn -0.4551 -0.5627 -0.6901
vn -0.3459 -0.7587 -0.5521
vn -0.2486 -0.9096 -0.3330
vn -0.5937 -0.5397 -0.5968
vn -0.6712 -0.3642 -0.6456
vn -0.1512 -0.0044 -0.9885
vn -0.7415 0.1559 -0.6526
vn -0.6695 -0.1247 -0.7323
vn -0.5339 -0.1210 -0.8369
vn 0.6114 -0.0570 -0.7893
vn 0.5868 0.0002 -0.8097
vn 0.2454 0.5617 -0.7901
vn -0.3014 0.8334 -0.4632
vn -0.0916 0.6843 -0.7235
vn -0.3262 0.7626 -0.5586
vn -0.3999 0.6776 -0.6172
vn -0.0564 -0.1137 -0.9919
vn 0.0649 -0.3217 -0.9446
vn 0.2340 -0.4729 -0.8495
vn -0.3884 0.2779 -0.8786
vn -0.0225 -0.9948 -0.0989
vn -0.0260 -0.9934 -0.1114
vn -0.0258 -0.9935 -0.1107
vn -0.0225 -0.9949 -0.0987
vn -0.1635 -0.7703 -0.6164
vn -0.0764 -0.6369 -0.7672
vn 0.1838 -0.6178 -0.7646
vn 0.0989 -0.8497 -0.5180
vn 0.1822 -0.7983 -0.5740
vn -0.1283 0.4640 -0.8765
vn 0.4463 -0.5321 -0.7195
vn 0.4008 0.3660 -0.8399
vn 0.5180 -0.1829 -0.8356
vn 0.3749 0.3740 -0.8483
vn -0.0849 0.8862 -0.4555
vn -0.0386 0.7347 -0.6772
vn -0.0851 0.5576 -0.8257
vn -0.2955 0.4905 -0.8198
vn -0.0152 0.6233 -0.7818
vn 0.0437 0.8138 -0.5795
vn 0.2879 0.7790 -0.5570
vn -0.0261 -0.3940 -0.9188
vn 0.3175 0.7559 -0.5725
vn 0.4799 0.6935 -0.5374
vn -0.4044 -0.5620 -0.7215
vn -0.4018 -0.3114 -0.8611
vn -0.1491 -0.1732 -0.9735
vn -0.1680 -0.2091 -0.9633
vn -0.1599 0.3168 -0.9349
vn 0.2448 -0.1195 -0.9622
vn -0.7675 0.2857 -0.5738
vn -0.6193 0.7518 -0.2263
vn -0.5914 0.7797 -0.2055
vn -0.5532 0.4560 -0.6972
vn -0.5281 0.4355 -0.7291
vn -0.3332 0.3901 -0.8584
vn -0.2846 0.4081 -0.8675
vn -0.2934 0.8769 -0.3807
vn -0.2195 0.9530 -0.2087
vn 0.0525 0.9788 -0.1978
vn 0.0496 0.8249 -0.5631
vn -0.6434 0.7350 -0.2141
vn -0.0570 0.2641 -0.9628
vn 0.3382 0.2518 -0.9067
vn 0.3397 0.1742 -0.9243
vn 0.3231 0.2659 -0.9083
vn -0.2338 0.6624 -0.7117
vn -0.1950 0.6052 -0.7719
vn 0.0300 0.5526 -0.8329
vn 0.1649 0.6304 -0.7586
vn 0.2051 0.6140 -0.7622
vn -0.5025 0.6660 -0.5513
vn -0.3960 0.7997 -0.4513
vn -0.1519 0.9752 -0.1608
vn -0.1403 0.8393 -0.5252
vn -0.3432 -0.0131 -0.9392
vn -0.3434 0.2349 -0.9093
vn -0.2951 -0.0544 -0.9539
vn -0.1958 -0.0339 -0.9801
vn -0.1810 0.2338 -0.9553
vn -0.4108 0.5350 -0.7383
vn -0.2872 0.5495 -0.7846
vn -0.2107 0.2558 -0.9435
vn 0.0510 0.7277 -0.6840
vn 0.2111 0.9534 -0.2155
vn 0.0620 0.2211 -0.9733
vn 0.1730 -0.0626 -0.9829
vn 0.2149 -0.1070 -0.9708
vn 0.2147 0.1851 -0.9590
vn 0.0801 0.6717 -0.7365
vn 0.0429 0.5399 -0.8406
vn 0.1072 0.4351 -0.8940
vn 0.5825 0.7878 -0.1999
vn 0.5937 0.7825 -0.1877
vn -0.1172 0.9805 -0.1575
vn 0.4544 0.7528 -0.4762
vn -0.3559 0.1051 -0.9286
vn -0.2708 0.5084 -0.8175
vn -0.6788 0.1752 0.7131
vn -0.1562 0.1769 -0.9718
vn 0.2937 0.4057 -0.8655
vn -0.2783 0.5249 -0.8044
vn -0.1014 0.8379 -0.5363
vn 0.5230 -0.7641 0.3778
vn 0.6908 -0.3849 0.6121
vn 0.7753 0.0068 0.6316
vn 0.5807 0.4964 0.6452
vn 0.7098 -0.3752 0.5962
vn 0.7903 -0.2419 0.5630
vn -0.5087 -0.1811 0.8417
vn -0.5009 -0.4017 0.7666
vn 0.2435 0.1145 0.9631
vn -0.0311 -0.7074 0.7061
vn -0.0170 -0.7023 0.7117
vn -0.3122 0.3516 0.8825
vn -0.6058 -0.0951 0.7899
vn -0.3733 0.0749 0.9247
vn -0.6691 0.2195 0.7100
vn -0.4463 -0.1455 0.8830
vn 0.0349 -0.3287 0.9438
vn 0.1340 -0.4721 0.8713
vn 0.2455 -0.1390 0.9594
vn 0.2504 -0.3862 0.8878
vn 0.4148 -0.2990 0.8594
vn 0.7754 -0.4953 0.3917
vn -0.2988 -0.8048 0.5129
vn -0.4114 -0.8115 0.4149
vn -0.3411 -0.9271 0.1554
vn -0.3678 -0.9143 0.1695
vn -0.1021 -0.5561 0.8248
vn -0.1807 -0.0970 0.9787
vn 0.3295 -0.3098 0.8919
vn 0.4366 -0.3668 0.8215
vn 0.6560 -0.1045 0.7475
vn -0.2639 0.4104 0.8729
vn 0.1091 0.3312 0.9372
vn 0.6054 0.0417 0.7948
vn 0.6546 0.1588 0.7391
vn 0.5891 -0.1450 0.7949
vn 0.5391 -0.1093 0.8351
vn 0.2161 0.6279 0.7477
vn 0.3540 0.6241 0.6965
vn 0.6109 0.4336 0.6625
vn -0.0739 -0.9643 0.2545
vn 0.5890 -0.6229 0.5149
vn 0.6311 -0.6345 0.4463
vn -0.5655 -0.6126 0.5522
vn -0.4723 -0.7227 0.5046
vn -0.3189 -0.4743 0.8206
vn -0.0265 -0.7328 0.6799
vn 0.0560 0.0958 0.9938
vn -0.7092 -0.0032 0.7050
vn -0.5186 0.4901 0.7006
vn -0.0487 -0.0870 0.9950
vn -0.1303 0.0926 0.9871
vn 0.1992 0.7137 0.6715
vn -0.5442 0.6141 0.5716
vn 0.1108 -0.3313 0.9370
vn -0.2384 0.0248 0.9709
vn 0.0332 -0.4634 0.8855
vn -0.3557 0.7915 0.4971
vn -0.3806 -0.1142 0.9177
vn -0.2385 -0.9664 0.0963
vn 0.1910 -0.8985 0.3952
vn -0.4578 -0.7976 0.3927
vn -0.4692 -0.8577 0.2101
vn -0.4678 -0.7972 0.3817
vn 0.0542 -0.9380 0.3425
vn 0.4469 -0.6902 0.5691
vn 0.5624 -0.4873 0.6681
vn -0.4744 -0.4815 0.7370
vn 0.6287 -0.2116 0.7483
vn 0.4633 -0.0716 0.8833
vn 0.5421 0.2650 0.7974
vn 0.5063 0.1996 0.8389
vn 0.5365 0.5645 0.6273
vn -0.5715 0.3979 0.7177
vn -0.5595 0.0638 0.8264
vn -0.5086 0.5063 0.6964
vn -0.2212 -0.0697 0.9727
vn -0.2232 0.2368 0.9456
vn -0.1573 0.0762 0.9846
vn -0.3506 0.5194 0.7793
vn -0.4964 -0.8497 0.1778
vn -0.1092 -0.9903 0.0857
vn 0.2547 -0.9181 0.3035
vn 0.3313 -0.8814 0.3368
vn -0.4218 -0.7493 0.5105
vn -0.1712 -0.2889 0.9419
vn -0.0125 -0.7725 0.6349
vn 0.0179 -0.5377 0.8429
vn 0.2747 -0.7779 0.5651
vn 0.4712 -0.5479 0.6912
vn 0.5781 -0.5292 0.6210
vn 0.3309 -0.1698 0.9283
vn 0.3771 0.1179 0.9186
vn -0.1017 0.7043 0.7026
vn 0.0270 0.6879 0.7253
vn 0.2382 0.7873 0.5687
vn 0.4543 0.5172 0.7253
vn 0.0782 -0.9886 0.1285
vn 0.1681 -0.9309 0.3244
vn 0.1796 -0.9582 0.2226
vn 0.3431 -0.8333 0.4334
vn 0.5960 0.1868 0.7809
vn 0.4334 0.7136 0.5505
vn 0.7346 -0.1555 0.6605
vn 0.6403 0.2249 0.7344
vn 0.7974 0.2690 0.5401
vn 0.7553 -0.6115 0.2358
vn 0.7341 -0.6677 0.1238
vn 0.8425 -0.4640 0.2736
vn 0.9510 -0.3054 0.0473
vn 0.9453 -0.0418 0.3235
vn 0.9900 -0.0521 0.1312
vn 0.9455 0.3027 0.1195
vn 0.7518 0.5918 0.2910
vn 0.6849 0.7084 0.1704
vn 0.8533 0.5203 0.0344
vn 0.9423 0.3216 0.0925
vn 0.1092 0.1873 0.9762
vn 0.3694 0.1474 0.9175
vn 0.1062 0.7042 0.7020
vn 0.1964 0.5313 0.8241
vn 0.0524 0.9970 0.0569
vn 0.1185 0.8783 0.4631
vn 0.4455 0.5406 0.7137
vn -0.3165 0.2796 0.9064
vn -0.5216 0.8445 0.1212
vn -0.2752 0.2414 0.9306
vn 0.4944 0.8269 0.2679
vn -0.4152 0.5833 0.6981
vn -0.1724 0.8704 0.4611
vn 0.0861 -0.1717 0.9814
vn 0.0764 0.0568 0.9955
vn 0.1583 -0.0249 0.9871
vn -0.0669 0.5771 0.8139
vn -0.0957 0.7105 0.6972
vn 0.0412 0.9562 0.2898
vn 0.0605 0.9862 0.1539
vn 0.2357 0.7394 0.6307
vn -0.3257 0.1234 -0.9374
vn 0.1273 0.3212 0.9384
vn 0.1240 0.3468 0.9297
vn 0.4759 0.2939 0.8289
vn 0.5106 0.5053 0.6957
vn 0.7053 0.6531 0.2759
vn 0.6338 0.6896 0.3503
vn 0.1044 0.7974 0.5943
vn 0.1747 0.9422 0.2857
vn 0.2517 0.9411 0.2260
vn 0.3400 0.5877 0.7342
vn 0.3490 0.8863 0.3044
vn 0.5152 0.8057 0.2922
vn 0.5374 0.6140 0.5781
vn 0.5812 0.7100 0.3975
vn 0.7172 0.3332 0.6120
vn 0.8037 0.3324 0.4936
vn 0.7810 0.5353 0.3218
vn 0.9624 0.2683 0.0431
vn 0.4111 -0.9100 -0.0535
vn 0.6720 -0.7351 -0.0902
vn 0.6718 -0.6924 -0.2631
vn 0.6790 -0.6924 -0.2440
vn -0.3446 -0.9314 -0.1177
vn 0.5782 -0.5868 -0.5668
vn 0.7522 -0.4401 -0.4904
vn -0.2692 -0.8123 -0.5174
vn 0.7699 0.0029 -0.6381
vn 0.7654 -0.2501 -0.5929
vn 0.5532 -0.2482 -0.7952
vn -0.4879 -0.3928 -0.7795
vn -0.4565 -0.5821 -0.6729
vn 0.3435 0.4191 -0.8405
vn 0.0081 -0.7176 -0.6964
vn 0.0167 -0.5221 -0.8527
vn -0.7133 0.1429 -0.6861
vn -0.6525 0.2600 -0.7118
vn -0.0610 -0.3456 -0.9364
vn 0.1043 -0.4708 -0.8760
vn 0.1448 -0.1761 -0.9737
vn 0.0403 -0.0877 -0.9953
vn 0.3235 -0.4217 -0.8471
vn 0.3160 -0.1014 -0.9433
vn -0.4178 0.3658 -0.8317
vn -0.0596 -0.9767 -0.2062
vn 0.5368 -0.8358 -0.1150
vn 0.7051 -0.6673 -0.2398
vn 0.6350 -0.6480 -0.4206
vn 0.6359 -0.6477 -0.4197
vn 0.6365 -0.6474 -0.4192
vn 0.6367 -0.6474 -0.4190
vn 0.2140 -0.8170 -0.5355
vn -0.0675 -0.5816 -0.8107
vn 0.3396 0.0899 -0.9363
vn 0.3040 -0.6311 -0.7137
vn 0.3382 -0.6712 -0.6596
vn 0.5712 -0.6094 -0.5499
vn 0.5874 -0.3210 -0.7429
vn 0.1171 0.5143 -0.8496
vn 0.3375 0.3422 -0.8769
vn -0.0541 -0.7881 -0.6132
vn 0.5860 0.3669 -0.7225
vn 0.6739 0.2177 -0.7060
vn 0.0326 -0.1347 -0.9903
vn -0.1484 -0.2487 -0.9572
vn -0.1555 -0.2460 -0.9567
vn -0.1482 -0.2491 -0.9571
vn 0.6006 0.4199 -0.6804
vn -0.1563 -0.2458 -0.9566
vn -0.0085 -0.9990 -0.0446
vn 0.2956 -0.9536 -0.0578
vn -0.4139 -0.8811 -0.2289
vn 0.0429 -0.9260 -0.3752
vn -0.4424 -0.7365 -0.5117
vn -0.5741 -0.5427 -0.6131
vn 0.1659 0.7014 -0.6932
vn 0.0487 -0.1626 -0.9855
vn -0.6299 0.0530 -0.7749
vn -0.6417 0.2777 -0.7150
vn -0.4800 0.6258 -0.6148
vn -0.5393 0.4395 -0.7183
vn 0.0081 0.1714 -0.9852
vn 0.0817 0.1037 -0.9912
vn -0.5087 -0.7293 -0.4576
vn -0.0374 -0.4105 -0.9111
vn 0.1214 -0.3820 -0.9161
vn -0.2789 0.7792 -0.5613
vn -0.3088 -0.0911 -0.9468
vn -0.2601 0.0607 -0.9637
vn -0.2383 -0.1132 -0.9646
vn 0.2356 -0.9678 -0.0885
vn -0.5081 -0.8527 -0.1215
vn 0.3545 -0.8699 -0.3429
vn -0.0107 0.4980 -0.8671
vn -0.2803 -0.8085 -0.5174
vn 0.4670 -0.6961 -0.5453
vn 0.4617 -0.6903 -0.5571
vn 0.5296 -0.3973 -0.7494
vn -0.4698 -0.4874 -0.7360
vn -0.4459 -0.2537 -0.8584
vn -0.2307 -0.6666 -0.7088
vn 0.5518 0.5242 -0.6487
vn 0.5947 0.4668 -0.6545
vn -0.3586 0.3341 -0.8716
vn -0.5262 0.1745 -0.8322
vn -0.3780 0.5284 -0.7602
vn -0.0298 -0.1980 -0.9797
vn 0.1163 -0.0653 -0.9911
vn 0.1167 -0.0646 -0.9911
vn 0.1189 -0.0553 -0.9914
vn 0.0470 0.1669 -0.9848
vn 0.1165 -0.0656 -0.9910
vn -0.3104 0.6499 -0.6938
vn 0.2685 -0.9280 -0.2583
vn 0.5257 -0.7400 -0.4196
vn 0.5950 -0.6982 -0.3981
vn 0.7045 0.2153 -0.6763
vn 0.4173 0.7812 -0.4644
vn -0.0187 -0.6358 -0.7717
vn 0.0843 -0.4975 -0.8634
vn 0.3622 -0.7221 -0.5894
vn 0.5700 -0.4579 -0.6822
vn -0.1476 0.1178 -0.9820
vn 0.0200 0.3311 -0.9434
vn 0.3199 0.2448 -0.9153
vn 0.3005 0.1537 -0.9413
vn -0.0477 0.6492 -0.7591
vn 0.3348 0.9354 -0.1134
vn 0.0601 0.7708 -0.6342
vn 0.3851 0.5786 -0.7189
vn 0.4876 0.4983 -0.7169
vn 0.7263 -0.6419 -0.2460
vn 0.7247 -0.6394 -0.2571
vn 0.7245 -0.6390 -0.2584
vn 0.7266 -0.6418 -0.2453
vn 0.8188 -0.5688 -0.0780
vn 0.8290 -0.4288 -0.3589
vn 0.9299 -0.1191 -0.3481
vn 0.9912 0.0413 -0.1255
vn 0.9627 0.2417 -0.1213
vn 0.8998 0.3624 -0.2431
vn 0.9462 -0.0428 -0.3206
vn 0.6325 0.7393 -0.2309
vn 0.6580 0.6983 -0.2819
vn 0.6164 0.6904 -0.3787
vn 0.7436 -0.3870 -0.5453
vn 0.7150 -0.0134 -0.6990
vn 0.8423 0.2953 -0.4510
vn 0.1518 0.9536 -0.2600
vn 0.3419 0.8016 -0.4905
vn -0.1085 0.4909 -0.8644
vn 0.1159 0.3985 -0.9098
vn 0.1351 0.1735 -0.9755
vn 0.2320 0.4979 -0.8356
vn 0.3168 0.0926 -0.9439
vn 0.0747 0.7742 -0.6285
vn 0.0793 0.7127 -0.6970
vn 0.4325 0.6798 -0.5923
vn -0.5101 0.8380 -0.1937
vn -0.4187 0.4958 -0.7608
vn -0.4767 0.8427 -0.2502
vn -0.4262 0.7148 -0.5544
vn -0.3585 0.9162 0.1788
vn 0.5565 0.1077 -0.8239
vn 0.5064 0.4691 -0.7236
vn -0.3704 0.2566 -0.8928
vn -0.2569 0.0186 -0.9663
vn -0.3093 0.4132 -0.8565
vn -0.1304 0.9877 -0.0863
vn -0.1431 0.9649 -0.2200
vn -0.1503 0.7751 -0.6137
vn 0.1273 0.9313 -0.3412
vn 0.2149 0.9761 0.0331
vn 0.2521 0.9585 -0.1331
vn 0.5015 0.4774 -0.7215
vn -0.0113 0.1480 -0.9889
vn 0.3791 0.0837 -0.9216
vn 0.3803 0.2835 -0.8803
vn 0.1865 0.3669 -0.9114
vn -0.0177 0.6201 -0.7843
vn 0.1301 0.8214 -0.5553
vn 0.1378 0.8089 -0.5715
vn 0.2671 0.7609 -0.5913
vn 0.7178 0.6824 -0.1384
vn 0.5984 0.6377 -0.4850
vn 0.1903 0.9599 -0.2059
vn 0.2510 0.9574 -0.1429
vn -0.1340 0.2074 -0.9690
vn -0.1236 0.3756 -0.9185
vn -0.0549 0.4212 -0.9053
vn 0.2163 0.4395 -0.8718
vn 0.5027 0.8225 -0.2659
vn 0.4310 0.4721 -0.7690
vn 0.6103 0.5246 -0.5935
vn 0.7610 0.3799 -0.5259
vn 0.3498 0.5045 -0.7894
s 1
f 3//1 27//1 7//1
f 2//2 22//2 3//2
f 28//3 1//3 6//3
f 6//4 7//4 15//4
f 7//5 11//5 8//5
f 5//6 11//6 10//6
f 15//7 18//7 16//7
f 18//8 15//8 8//8
f 26//9 25//9 24//9
f 22//10 10//10 27//10
f 10//11 9//11 27//11
f 28//12 6//12 14//12
f 28//13 17//13 29//13
f 31//14 29//14 33//14
f 31//15 33//15 30//15
f 32//16 30//16 35//16
f 49//17 20//17 33//17
f 12//18 13//18 36//18
f 36//19 8//19 12//19
f 36//20 37//20 38//20
f 39//21 5//21 25//21
f 42//22 13//22 41//22
f 13//23 42//23 37//23
f 46//24 19//24 45//24
f 20//25 49//25 46//25
f 21//26 20//27 50//28
f 46//29 45//29 47//29
f 21//30 50//30 51//30
f 46//31 47//32 52//33
f 53//34 47//35 48//36
f 26//37 54//37 25//37
f 39//38 25//38 54//38
f 55//39 54//39 26//39
f 26//40 206//40 55//40
f 59//41 54//41 55//41
f 43//42 40//42 60//42
f 40//43 59//43 58//43
f 61//44 60//44 58//44
f 58//45 62//45 61//45
f 64//46 38//46 65//46
f 44//47 57//47 65//47
f 65//48 57//48 63//48
f 66//49 65//49 68//49
f 70//50 52//50 69//50
f 79//51 67//51 56//51
f 72//52 59//52 55//52
f 76//53 59//53 77//53
f 77//54 62//54 58//54
f 56//55 68//55 78//55
f 56//56 78//56 79//56
f 81//57 61//57 62//57
f 61//58 80//58 63//58
f 63//59 80//60 82//61
f 84//62 80//63 83//64
f 85//65 83//65 86//65
f 82//66 84//67 88//68
f 87//69 82//69 88//69
f 90//70 70//70 79//70
f 89//71 79//71 78//71
f 79//72 89//72 90//72
f 89//73 78//74 92//75
f 91//76 89//76 92//76
f 90//77 91//78 93//79
f 96//80 95//80 94//80
f 96//81 97//81 95//81
f 86//82 95//82 97//82
f 119//83 100//83 98//83
f 99//84 102//84 101//84
f 102//85 99//85 100//85
f 86//86 98//86 85//86
f 97//87 98//87 86//87
f 107//88 98//88 99//88
f 107//89 99//89 101//89
f 105//90 107//91 108//92
f 104//93 88//68 84//67
f 109//94 87//94 88//94
f 109//95 92//95 87//95
f 110//96 88//96 105//96
f 109//97 88//97 110//97
f 110//98 105//98 108//98
f 113//99 112//100 109//101
f 113//99 131//102 112//100
f 92//103 109//103 115//103
f 115//104 112//104 116//104
f 120//105 119//105 118//105
f 120//106 121//106 119//106
f 121//107 100//107 119//107
f 131//108 113//108 111//108
f 122//109 106//109 123//109
f 108//110 106//110 122//110
f 123//111 101//111 103//111
f 122//112 123//112 124//112
f 126//113 103//113 102//113
f 103//114 127//114 129//114
f 126//115 128//115 127//115
f 128//116 130//116 127//116
f 125//117 124//117 123//117
f 124//118 125//118 358//118
f 132//119 108//119 122//119
f 133//120 134//121 131//122
f 135//123 114//124 132//125
f 135//126 132//126 136//126
f 134//127 135//127 136//127
f 132//128 124//128 137//128
f 136//129 137//129 138//129
f 140//130 116//130 139//130
f 139//131 112//131 134//131
f 141//132 140//132 373//132
f 117//133 142//133 121//133
f 145//134 146//134 144//134
f 131//135 111//135 133//135
f 35//136 147//136 148//136
f 149//137 51//137 150//137
f 152//138 51//138 151//138
f 51//139 50//139 151//139
f 153//140 150//140 154//140
f 155//141 153//141 154//141
f 150//142 152//142 157//142
f 50//143 52//143 158//143
f 52//144 70//144 158//144
f 151//145 158//145 160//145
f 151//146 160//146 159//146
f 161//147 160//147 71//147
f 152//148 151//148 159//148
f 152//149 159//149 157//149
f 162//150 159//150 161//150
f 164//151 159//151 166//151
f 166//152 159//152 162//152
f 164//153 166//153 167//153
f 90//154 169//154 71//154
f 161//155 168//155 162//155
f 170//156 168//156 169//156
f 168//157 170//157 171//157
f 173//158 168//158 171//158
f 172//159 173//159 183//159
f 174//160 172//160 183//160
f 175//161 176//161 179//161
f 176//162 175//163 116//164
f 171//165 178//165 180//165
f 178//166 181//166 180//166
f 178//167 170//167 179//167
f 178//168 179//168 181//168
f 181//169 179//169 191//169
f 182//170 180//170 181//170
f 181//171 191//171 182//171
f 183//172 171//172 180//172
f 184//173 174//173 183//173
f 183//174 182//174 185//174
f 184//175 183//175 185//175
f 184//176 185//176 187//176
f 176//177 140//177 188//177
f 177//178 188//178 189//178
f 188//179 190//179 189//179
f 189//180 190//180 482//180
f 191//181 179//181 177//181
f 193//182 186//182 182//182
f 193//183 191//183 485//183
f 197//184 207//184 2//184
f 201//185 200//185 4//185
f 23//186 22//186 207//186
f 204//187 24//187 23//187
f 205//188 204//188 203//188
f 204//189 206//189 24//189
f 208//190 4//190 29//190
f 210//191 209//192 32//193
f 211//194 205//194 203//194
f 202//195 197//195 198//195
f 212//196 198//196 213//196
f 214//197 212//197 213//197
f 215//198 214//198 213//198
f 216//199 201//199 208//199
f 216//200 199//200 201//200
f 216//201 208//201 217//201
f 219//202 215//202 213//202
f 216//203 217//203 218//203
f 217//204 208//204 209//204
f 231//205 209//205 210//205
f 222//206 206//206 221//206
f 223//207 72//207 222//207
f 72//208 55//208 222//208
f 223//209 222//209 221//209
f 215//210 225//210 214//210
f 224//211 226//211 221//211
f 225//212 226//212 224//212
f 227//213 226//213 225//213
f 226//214 223//214 221//214
f 229//215 239//216 218//217
f 230//218 229//218 234//218
f 220//219 232//219 217//219
f 229//220 218//220 217//220
f 217//221 232//221 229//221
f 233//222 235//223 231//224
f 235//225 237//225 232//225
f 239//226 215//226 219//226
f 243//227 241//227 223//227
f 240//228 241//228 243//228
f 226//229 244//229 242//229
f 245//230 247//230 244//230
f 240//231 243//231 242//231
f 247//232 240//232 242//232
f 248//233 245//233 246//233
f 228//234 230//234 249//234
f 246//235 228//235 249//235
f 250//236 249//236 230//236
f 248//237 246//237 249//237
f 252//238 235//238 236//238
f 253//239 237//240 235//241
f 237//242 250//242 230//242
f 252//243 254//243 253//243
f 253//244 251//244 237//244
f 251//245 254//245 256//245
f 250//246 248//246 249//246
f 240//247 258//247 74//247
f 258//248 94//248 74//248
f 260//249 258//249 240//249
f 259//250 96//250 94//250
f 261//251 262//251 259//251
f 264//252 247//252 248//252
f 260//253 240//253 247//253
f 265//254 260//254 264//254
f 263//255 266//255 264//255
f 262//256 261//256 267//256
f 268//257 267//257 265//257
f 273//258 266//258 263//258
f 272//259 256//259 271//259
f 257//260 273//260 263//260
f 275//261 118//261 96//261
f 275//262 96//262 262//262
f 276//263 118//263 275//263
f 277//264 276//264 275//264
f 277//265 117//265 276//265
f 279//266 293//266 278//266
f 281//267 283//267 277//267
f 300//268 282//268 280//268
f 266//269 268//269 265//269
f 281//270 262//270 284//270
f 266//271 286//271 268//271
f 286//272 285//272 268//272
f 280//273 281//273 284//273
f 289//274 287//274 285//274
f 300//275 280//275 288//275
f 270//276 291//276 286//276
f 270//277 290//277 291//277
f 291//278 292//278 286//278
f 292//279 285//279 286//279
f 290//280 279//280 278//280
f 289//281 285//281 292//281
f 297//282 290//282 296//282
f 298//283 297//283 296//283
f 314//284 297//284 298//284
f 523//285 145//285 299//285
f 320//286 306//286 530//286
f 308//287 293//287 279//287
f 315//288 308//288 279//288
f 312//289 307//289 308//289
f 315//290 312//291 308//292
f 311//293 312//291 315//290
f 305//294 319//294 309//294
f 317//295 311//295 315//295
f 314//296 317//296 315//296
f 289//297 319//298 288//299
f 303//300 300//300 318//300
f 319//301 320//301 318//301
f 210//302 32//302 35//302
f 210//303 35//303 321//303
f 321//304 35//304 148//304
f 322//305 321//305 148//305
f 322//306 231//306 321//306
f 322//307 148//307 323//307
f 322//308 323//308 326//308
f 154//309 163//309 156//309
f 323//310 156//310 326//310
f 236//311 235//311 233//311
f 324//312 322//312 326//312
f 156//313 163//313 165//313
f 326//314 327//314 332//314
f 327//315 165//315 167//315
f 329//316 327//316 328//316
f 325//317 331//317 252//317
f 255//318 254//318 252//318
f 167//319 172//319 333//319
f 333//320 334//320 328//320
f 333//321 172//321 335//321
f 172//322 174//322 335//322
f 338//323 337//323 330//323
f 329//324 339//324 330//324
f 342//325 340//325 339//325
f 349//326 344//326 350//326
f 174//327 184//327 336//327
f 335//328 336//328 343//328
f 334//329 343//329 342//329
f 336//330 184//330 343//330
f 344//331 343//331 187//331
f 341//332 296//333 271//334
f 340//335 345//336 341//337
f 346//338 296//338 341//338
f 346//339 352//339 347//339
f 348//340 352//340 345//340
f 350//341 187//341 351//341
f 351//342 630//342 350//342
f 351//343 195//343 630//343
f 314//344 298//344 347//344
f 353//345 347//345 352//345
f 316//346 314//346 353//346
f 350//347 348//347 349//347
f 348//348 350//348 354//348
f 125//349 129//349 358//349
f 361//350 124//350 358//350
f 361//351 359//351 124//351
f 360//352 357//352 362//352
f 360//353 364//353 363//353
f 360//354 362//354 364//354
f 138//355 367//355 136//355
f 366//356 368//356 369//356
f 367//357 371//357 368//357
f 369//358 371//358 372//358
f 373//359 372//359 374//359
f 146//360 375//360 128//360
f 376//361 130//361 375//361
f 376//362 375//363 146//364
f 377//365 376//362 146//364
f 362//366 357//366 376//366
f 380//367 364//367 379//367
f 379//368 400//369 382//370
f 379//368 382//370 380//371
f 382//372 385//372 404//372
f 382//373 404//373 383//373
f 371//374 387//374 386//374
f 387//375 365//375 381//375
f 387//376 381//376 388//376
f 389//377 386//377 388//377
f 381//378 383//378 388//378
f 391//379 389//379 388//379
f 372//380 386//380 392//380
f 394//381 392//382 389//383
f 389//384 390//384 395//384
f 495//385 394//386 396//387
f 394//388 395//388 396//388
f 379//389 364//389 378//389
f 397//390 379//390 378//390
f 398//391 399//391 397//391
f 400//392 379//392 397//392
f 401//393 397//393 399//393
f 397//394 401//394 400//394
f 400//395 401//395 402//395
f 403//396 402//396 401//396
f 385//397 405//397 404//397
f 404//398 406//398 408//398
f 410//399 409//399 406//399
f 407//400 411//400 410//400
f 409//401 410//401 415//401
f 391//402 412//402 420//402
f 384//403 404//403 413//403
f 384//404 413//404 412//404
f 414//405 413//405 416//405
f 413//406 415//406 416//406
f 418//407 416//407 415//407
f 390//408 391//408 420//408
f 396//409 395//409 390//409
f 417//410 414//410 416//410
f 435//411 417//411 418//411
f 422//412 403//412 401//412
f 423//413 426//414 425//415
f 403//416 425//416 402//416
f 422//417 425//417 403//417
f 423//418 407//418 426//418
f 429//419 411//419 447//419
f 447//420 431//420 429//420
f 428//421 429//421 430//421
f 428//422 430//422 432//422
f 433//423 430//423 431//423
f 433//424 431//424 427//424
f 437//425 435//425 436//425
f 434//426 428//426 436//426
f 436//427 432//427 438//427
f 419//428 417//428 440//428
f 440//429 435//429 437//429
f 440//430 437//430 441//430
f 439//431 440//431 442//431
f 442//432 440//432 441//432
f 444//433 447//433 446//433
f 443//434 444//435 446//436
f 445//437 427//437 444//437
f 443//438 445//438 444//438
f 423//439 424//439 446//439
f 447//440 444//440 431//440
f 430//441 433//441 449//441
f 450//442 433//442 427//442
f 449//443 450//443 452//443
f 452//444 453//444 454//444
f 438//445 432//445 456//445
f 455//446 438//446 456//446
f 456//447 432//447 449//447
f 455//448 456//448 457//448
f 456//449 452//449 459//449
f 442//450 441//450 462//450
f 442//451 462//451 461//451
f 461//452 462//452 463//452
f 458//453 455//453 457//453
f 458//454 460//454 465//454
f 448//455 427//455 445//455
f 468//456 470//456 467//456
f 469//457 470//457 468//457
f 470//458 451//458 467//458
f 470//459 453//459 451//459
f 20//460 21//460 34//460 33//460
f 521//461 464//461 479//461
f 613//462 521//462 479//462
f 471//463 452//463 454//463
f 471//464 460//464 459//464
f 454//465 453//465 474//465
f 474//466 471//466 454//466
f 476//467 472//467 471//467
f 472//468 476//468 477//468
f 478//469 474//469 475//469
f 472//470 465//470 460//470
f 464//471 465//471 479//471
f 480//472 479//472 465//472
f 482//473 190//473 483//473
f 141//474 374//474 483//474
f 486//475 483//475 484//475
f 485//476 486//476 487//476
f 488//477 196//477 487//477
f 488//478 487//478 489//478
f 488//479 489//479 490//479
f 492//480 487//480 486//480
f 489//481 487//481 498//481
f 491//482 484//483 374//484
f 484//485 491//485 492//485
f 374//484 393//486 491//482
f 393//487 394//386 495//385
f 492//488 493//488 496//488
f 498//489 487//489 492//489
f 498//490 499//490 489//490
f 498//491 492//491 496//491
f 500//492 489//492 499//492
f 501//493 500//493 499//493
f 493//494 494//494 502//494
f 502//495 419//495 504//495
f 503//496 502//496 504//496
f 505//497 493//497 502//497
f 505//498 502//498 503//498
f 496//499 505//499 506//499
f 506//500 510//500 508//500
f 505//501 503//501 510//501
f 504//502 439//502 512//502
f 504//503 512//503 513//503
f 513//504 512//504 514//504
f 514//505 512//505 515//505
f 517//506 510//506 513//506
f 512//507 461//507 463//507
f 520//508 521//508 522//508
f 525//509 377//509 146//509
f 527//510 528//510 526//510
f 528//511 377//512 525//513
f 528//514 398//514 377//514
f 299//515 524//515 523//515
f 524//516 299//516 302//516
f 304//517 532//517 524//517
f 320//518 530//518 304//518
f 538//519 531//519 306//519
f 538//520 306//520 305//520
f 306//521 531//521 530//521
f 530//522 533//522 532//522
f 532//523 527//523 526//523
f 535//524 531//524 534//524
f 535//525 529//525 527//525
f 534//526 536//526 535//526
f 312//527 313//527 310//527
f 537//528 538//528 305//528
f 540//529 312//529 311//529
f 313//530 538//530 537//530
f 538//531 313//531 539//531
f 534//532 531//532 538//532
f 534//533 538//533 541//533
f 540//534 542//534 541//535
f 542//536 558//536 541//536
f 317//537 540//537 311//537
f 543//538 547//538 545//538
f 546//539 547//539 543//539
f 528//540 399//540 398//540
f 549//541 399//541 548//541
f 550//542 399//542 549//542
f 550//543 422//543 401//543
f 529//544 548//544 528//544
f 554//545 555//545 553//545
f 555//546 556//546 553//546
f 556//547 557//547 552//547
f 558//548 554//548 536//548
f 555//549 560//549 562//549
f 562//550 557//550 555//550
f 547//551 546//551 564//551
f 564//552 563//552 547//552
f 563//553 545//553 547//553
f 559//554 542//554 545//554
f 559//555 545//555 563//555
f 565//556 559//556 563//556
f 565//557 573//557 559//557
f 570//558 568//558 567//558
f 570//559 551//559 571//559
f 552//560 571//560 551//560
f 567//561 425//561 422//561
f 551//562 567//562 422//562
f 571//563 552//563 557//563
f 576//564 557//564 575//564
f 577//565 576//565 575//565
f 577//566 578//566 576//566
f 577//567 579//567 578//567
f 580//568 561//568 573//568
f 580//569 562//569 561//569
f 557//570 562//570 575//570
f 582//571 580//571 574//571
f 582//572 583//572 581//572
f 574//573 573//574 585//575
f 588//576 587//576 585//576
f 587//577 584//577 586//577
f 589//578 443//578 569//578
f 589//579 590//579 443//579
f 466//580 443//580 590//580
f 569//581 568//581 572//581
f 595//582 594//582 578//582
f 594//583 593//583 592//583
f 597//584 594//584 595//584
f 595//585 596//585 598//585
f 579//586 583//586 596//586
f 596//587 595//587 579//587
f 599//588 601//588 596//588
f 600//589 602//589 601//589
f 601//590 598//590 596//590
f 584//591 600//591 599//591
f 591//592 590//592 589//592
f 608//593 590//593 591//593
f 607//594 466//594 590//594
f 607//595 468//595 466//595
f 607//596 469//596 468//596
f 614//597 597//597 598//597
f 614//598 616//598 597//598
f 615//599 608//599 591//599
f 615//600 616//600 617//600
f 617//601 618//601 609//601
f 620//602 614//602 602//602
f 620//603 616//603 614//603
f 621//604 616//604 620//604
f 621//605 618//605 616//605
f 621//606 619//606 629//606
f 610//607 611//607 605//607
f 610//608 605//608 658//608
f 623//609 622//609 611//609
f 625//610 475//610 624//610
f 475//611 473//611 624//611
f 627//612 626//612 628//612
f 480//613 613//613 479//613
f 629//614 623//614 626//614
f 626//615 480//615 481//615
f 618//616 627//616 625//616
f 629//617 627//617 621//617
f 195//618 488//618 631//618
f 635//619 630//619 631//619
f 632//620 631//620 637//620
f 544//621 316//621 356//621
f 634//622 633//622 635//622
f 634//623 546//623 633//623
f 632//624 637//624 639//624
f 636//625 634//625 635//625
f 634//626 564//626 546//626
f 642//627 564//627 641//627
f 638//628 507//628 640//628
f 648//629 639//629 640//629
f 645//630 640//630 643//630
f 645//631 648//631 640//631
f 649//632 648//632 645//632
f 643//633 509//633 644//633
f 645//634 643//634 644//634
f 647//635 585//636 566//637
f 647//638 566//638 646//638
f 647//635 588//639 585//636
f 648//640 649//640 646//640
f 650//641 656//641 649//641
f 652//642 651//642 650//642
f 644//643 509//643 511//643
f 645//644 654//644 650//644
f 511//645 518//645 654//645
f 651//646 606//647 657//648
f 658//649 606//647 651//646
f 653//650 655//650 659//650
f 659//651 516//651 520//651
f 659//652 520//652 522//652
f 659//653 522//653 612//653
f 522//654 613//654 612//654
f 1//655 3//655 6//655
f 2//656 3//656 1//656
f 6//657 3//657 7//657
f 4//658 1//658 28//658
f 7//659 27//659 9//659
f 8//660 15//660 7//660
f 9//661 11//661 7//661
f 11//662 12//662 8//662
f 11//663 9//663 10//663
f 13//664 12//664 11//664
f 6//665 15//665 14//665
f 16//666 14//666 15//666
f 17//667 14//667 16//667
f 17//668 16//668 19//668
f 16//669 18//669 19//669
f 23//670 10//670 22//670
f 23//671 24//671 10//671
f 24//672 25//672 10//672
f 25//673 5//673 10//673
f 27//674 3//674 22//674
f 4//675 28//675 29//675
f 28//676 14//676 17//676
f 33//677 29//677 17//677
f 32//678 31//678 30//678
f 33//679 17//679 19//679
f 33//680 19//680 49//680
f 30//681 33//681 34//681
f 147//682 30//682 34//682
f 60//683 61//683 63//683 57//683
f 37//684 36//684 13//684
f 18//685 8//685 36//685
f 39//686 41//686 5//686
f 39//687 54//687 40//687
f 11//688 41//688 13//688
f 5//689 41//689 11//689
f 42//690 41//690 43//690
f 39//691 43//691 41//691
f 39//692 40//692 43//692
f 44//693 42//693 43//693
f 37//694 42//694 44//694
f 45//695 18//695 36//695
f 19//696 18//696 45//696
f 45//697 36//697 38//697
f 38//698 37//698 44//698
f 48//699 45//699 38//699
f 47//35 45//700 48//36
f 46//701 49//701 19//701
f 50//28 20//27 46//702
f 52//33 50//703 46//31
f 54//704 59//704 40//704
f 56//705 66//705 68//705
f 57//706 44//706 60//706
f 43//707 60//707 44//707
f 58//708 60//708 40//708
f 126//709 142//709 144//709 128//709
f 44//710 65//710 38//710
f 64//711 48//711 38//711
f 64//712 65//712 66//712
f 66//713 48//713 64//713
f 67//714 48//714 66//714
f 68//715 65//715 63//715
f 52//716 47//717 69//718
f 69//718 47//717 53//719
f 69//720 53//720 48//720
f 69//721 48//721 67//721
f 70//722 69//722 67//722
f 67//723 66//723 56//723
f 70//724 67//724 79//724
f 72//725 75//725 59//725
f 74//726 73//726 75//726
f 59//727 75//727 77//727
f 59//728 76//728 58//728
f 77//729 58//729 76//729
f 75//730 73//730 77//730
f 73//731 62//731 77//731
f 68//732 63//59 82//61
f 78//733 68//733 82//733
f 81//734 80//734 61//734
f 81//735 83//735 80//735
f 82//736 80//736 84//736
f 85//737 84//62 83//64
f 85//738 104//738 84//738
f 87//739 78//739 82//739
f 71//740 70//740 90//740
f 90//741 89//741 91//741
f 92//75 78//74 87//742
f 115//743 93//743 91//743
f 94//744 81//744 62//744
f 94//745 62//745 73//745
f 74//746 94//746 73//746
f 94//747 95//747 81//747
f 81//748 95//748 83//748
f 95//749 86//749 83//749
f 100//750 99//750 98//750
f 101//751 102//751 103//751
f 121//752 102//752 100//752
f 121//753 126//753 102//753
f 85//754 98//754 107//754
f 104//755 85//755 107//755
f 104//756 107//91 105//90
f 107//757 101//757 106//757
f 108//758 107//758 106//758
f 105//759 88//759 104//759
f 110//760 111//760 109//760
f 113//761 109//761 111//761
f 110//762 108//762 114//762
f 111//763 110//763 114//763
f 133//764 111//764 114//764
f 115//765 91//765 92//765
f 115//766 109//766 112//766
f 120//767 117//767 121//767
f 97//768 119//768 98//768
f 97//769 118//769 119//769
f 97//770 96//770 118//770
f 106//771 101//771 123//771
f 123//772 103//772 129//772
f 127//773 103//773 126//773
f 130//774 129//774 127//774
f 125//775 123//775 129//775
f 114//776 108//776 132//776
f 133//777 114//124 135//123
f 124//778 132//778 122//778
f 134//779 133//779 135//779
f 136//780 132//780 137//780
f 359//781 138//781 137//781
f 112//782 131//122 134//121
f 139//783 116//783 112//783
f 139//784 134//784 366//784
f 366//785 373//785 139//785
f 373//786 140//786 139//786
f 117//787 143//787 142//787
f 143//788 144//788 142//788
f 145//789 144//789 143//789
f 121//790 142//790 126//790
f 185//791 186//791 192//791 187//791
f 144//792 146//792 128//792
f 35//793 30//793 147//793
f 147//794 34//794 149//794
f 147//795 149//795 153//795
f 148//796 147//796 153//796
f 149//797 34//797 21//797
f 149//798 21//798 51//798
f 150//799 51//799 152//799
f 153//800 149//800 150//800
f 148//801 153//801 155//801
f 156//802 155//802 154//802
f 154//803 150//803 157//803
f 151//804 50//804 158//804
f 160//805 158//805 70//805
f 161//806 159//806 160//806
f 71//807 160//807 70//807
f 163//808 154//808 157//808
f 163//809 157//809 164//809
f 164//810 157//810 159//810
f 167//811 165//811 163//811
f 167//812 163//812 164//812
f 167//813 166//813 173//813
f 161//814 71//814 169//814
f 168//815 161//815 169//815
f 169//816 90//77 93//79
f 93//817 170//817 169//817
f 178//818 171//818 170//818
f 168//819 166//819 162//819
f 172//820 167//820 173//820
f 173//821 166//821 168//821
f 183//822 173//822 171//822
f 175//823 93//823 115//823
f 170//824 93//824 175//824
f 175//163 115//825 116//164
f 177//826 179//826 176//826
f 179//827 170//827 175//827
f 182//828 183//828 180//828
f 186//829 185//829 182//829
f 2//830 1//830 200//830 197//830
f 176//831 116//831 140//831
f 177//832 176//832 188//832
f 190//833 140//833 141//833
f 188//834 140//834 190//834
f 191//835 177//835 189//835
f 485//836 189//836 482//836
f 193//837 182//837 191//837
f 192//838 186//839 193//838
f 194//840 192//838 193//838
f 485//841 191//841 189//841
f 196//842 193//842 485//842
f 196//843 194//843 193//843
f 195//844 194//844 196//844
f 263//845 248//845 250//845 257//845
f 198//846 197//846 200//846
f 207//847 22//847 2//847
f 199//848 198//848 200//848
f 200//849 1//849 4//849
f 201//850 199//850 200//850
f 207//851 202//851 23//851
f 202//852 204//852 23//852
f 202//853 203//853 204//853
f 204//854 205//854 206//854
f 197//855 202//855 207//855
f 4//856 208//856 201//856
f 208//857 29//857 31//857
f 32//193 209//192 31//858
f 209//859 208//859 31//859
f 212//860 202//860 198//860
f 213//861 198//861 199//861
f 211//862 203//862 202//862
f 212//863 211//863 202//863
f 214//864 211//864 212//864
f 224//865 205//865 211//865
f 225//866 211//866 214//866
f 213//867 199//867 216//867
f 213//868 218//868 219//868
f 213//869 216//869 218//869
f 217//870 209//870 220//870
f 206//871 26//871 24//871
f 205//872 221//872 206//872
f 222//873 55//873 206//873
f 205//874 224//874 221//874
f 225//875 224//875 211//875
f 225//876 228//876 227//876
f 218//217 239//216 219//877
f 229//878 230//878 239//878
f 239//879 230//879 228//879
f 231//880 220//880 209//880
f 231//224 235//223 220//881
f 235//882 232//882 220//882
f 229//883 232//883 234//883
f 232//884 237//884 234//884
f 215//885 238//885 225//885
f 228//886 225//886 238//886
f 239//887 238//887 215//887
f 239//888 228//888 238//888
f 223//889 241//889 72//889
f 241//890 75//890 72//890
f 242//891 243//892 223//893
f 241//894 74//894 75//894
f 241//895 240//895 74//895
f 228//896 245//896 227//896
f 228//897 246//897 245//897
f 226//898 242//891 223//893
f 226//899 245//900 244//901
f 227//902 245//900 226//899
f 244//903 247//903 242//903
f 248//904 247//904 245//904
f 234//905 237//905 230//905
f 252//906 253//239 235//241
f 254//907 251//907 253//907
f 237//908 251//908 250//908
f 251//909 256//909 257//909
f 251//910 257//910 250//910
f 258//911 259//911 94//911
f 260//912 259//912 258//912
f 260//913 261//913 259//913
f 259//914 262//914 96//914
f 248//915 263//915 264//915
f 247//916 264//916 260//916
f 264//917 266//917 265//917
f 265//918 267//918 260//918
f 267//919 261//919 260//919
f 270//920 273//920 269//920
f 273//921 270//921 266//921
f 255//922 256//922 254//922
f 256//923 255//923 271//923
f 257//924 256//924 269//924
f 272//925 269//925 256//925
f 269//926 272//926 270//926
f 272//927 290//927 270//927
f 145//928 274//928 283//928 299//928
f 257//929 269//929 273//929
f 118//930 276//930 120//930
f 276//931 117//931 120//931
f 277//932 274//932 117//932
f 281//933 275//933 262//933
f 281//934 277//934 275//934
f 280//935 282//935 281//935
f 282//936 283//936 281//936
f 277//937 283//937 274//937
f 284//938 262//938 267//938
f 284//939 267//939 268//939
f 268//940 285//940 284//940
f 284//941 285//941 287//941
f 280//942 284//942 287//942
f 287//943 288//943 280//943
f 266//944 270//944 286//944
f 290//945 278//945 291//945
f 291//946 278//946 292//946
f 292//947 293//947 294//947
f 292//948 278//948 293//948
f 295//949 292//949 294//949
f 289//950 292//950 295//950
f 271//334 296//333 272//951
f 272//952 296//952 290//952
f 290//953 297//953 279//953
f 287//954 289//954 288//954
f 145//955 143//956 117//957
f 274//958 145//955 117//957
f 282//959 301//959 283//959
f 300//960 301//960 282//960
f 302//961 301//961 300//961 303//961
f 301//962 299//962 283//962
f 301//963 302//963 299//963
f 356//964 353//964 354//964 355//964
f 303//965 304//965 302//965
f 305//966 320//966 319//966
f 303//967 320//967 304//967
f 305//968 306//968 320//968
f 307//969 294//969 293//969
f 294//970 309//970 295//970
f 295//971 319//971 289//971
f 307//972 293//972 308//972
f 295//973 309//973 319//973
f 309//974 294//974 307//974
f 310//975 309//975 307//975
f 307//976 312//976 310//976
f 305//977 309//977 310//977
f 305//978 310//978 537//978
f 315//979 279//979 297//979
f 314//980 315//980 297//980
f 316//981 317//981 314//981
f 288//982 318//982 300//982
f 319//298 318//983 288//299
f 320//984 303//984 318//984
f 321//985 231//985 210//985
f 323//986 148//986 155//986
f 323//987 155//987 156//987
f 324//988 231//988 322//988
f 233//989 231//989 324//989
f 233//990 324//990 236//990
f 324//991 325//991 236//991
f 326//992 156//992 327//992
f 327//993 156//993 165//993
f 328//994 327//994 167//994
f 329//995 332//995 327//995
f 333//996 328//996 167//996
f 325//997 252//997 236//997
f 331//998 330//998 252//998
f 337//999 255//999 252//999
f 330//1000 337//1000 252//1000
f 324//1001 326//1001 332//1001
f 324//1002 332//1002 325//1002
f 332//1003 331//1003 325//1003
f 331//1004 332//1004 329//1004
f 330//1005 331//1005 329//1005
f 334//1006 329//1006 328//1006
f 334//1007 333//1007 335//1007
f 335//1008 174//1008 336//1008
f 334//1009 335//1009 343//1009
f 338//1010 255//1010 337//1010
f 330//1011 339//1011 338//1011
f 338//1012 271//1012 255//1012
f 338//1013 341//1013 271//1013
f 338//1014 340//1014 341//1014
f 329//1015 334//1015 339//1015
f 342//1016 339//1016 334//1016
f 340//1017 338//1017 339//1017
f 342//1018 343//1018 344//1018
f 343//1019 184//1019 187//1019
f 345//336 346//1020 341//337
f 346//1021 347//1021 296//1021
f 347//1022 298//1022 296//1022
f 345//1023 352//1023 346//1023
f 342//1024 344//1024 349//1024
f 342//1025 349//1025 340//1025
f 349//1026 345//1026 340//1026
f 351//1027 192//1027 194//1027
f 351//1028 187//1028 192//1028
f 195//1029 351//1029 194//1029
f 187//1030 350//1030 344//1030
f 347//1031 353//1031 314//1031
f 352//1032 354//1032 353//1032
f 371//1033 367//1033 359//1033 370//1033
f 353//1034 356//1034 316//1034
f 349//1035 348//1035 345//1035
f 352//1036 348//1036 354//1036
f 354//1037 350//1037 630//1037
f 375//1038 130//1038 128//1038
f 358//1039 129//1039 130//1039
f 360//1040 361//1040 358//1040
f 359//1041 137//1041 124//1041
f 357//1042 358//1042 130//1042
f 357//1043 360//1043 358//1043
f 361//1044 363//1044 370//1044
f 363//1045 361//1045 360//1045
f 134//1046 136//1046 367//1046
f 134//1047 367//1047 366//1047
f 367//1048 368//1048 366//1048
f 367//1049 138//1049 359//1049
f 359//1050 361//1050 370//1050
f 365//1051 387//1051 371//1051 370//1051
f 369//1052 368//1052 371//1052
f 370//1053 363//1053 365//1053
f 363//1054 380//1054 381//1054 365//1054
f 373//1055 366//1055 369//1055
f 374//1056 141//1056 373//1056
f 373//1057 369//1057 372//1057
f 374//1058 372//1058 392//1058
f 376//1059 357//1059 130//1059
f 362//1060 378//1060 364//1060
f 376//1061 378//1061 362//1061
f 377//1062 378//1062 376//1062
f 398//1063 378//1063 377//1063
f 363//1064 364//1064 380//1064
f 420//1065 417//1065 421//1065 390//1065
f 383//1066 381//1066 380//1066
f 383//1067 380//1067 382//1067
f 384//1068 383//1068 404//1068
f 372//1069 371//1069 386//1069
f 388//1070 386//1070 387//1070
f 384//1071 388//1071 383//1071
f 391//1072 388//1072 384//1072
f 392//1073 393//1073 374//1073
f 393//1074 392//1074 394//1074
f 389//383 392//382 386//1075
f 395//1076 394//1076 389//1076
f 391//1077 390//1077 389//1077
f 398//1078 397//1078 378//1078
f 385//1079 382//1079 400//1079
f 385//1080 400//1080 402//1080
f 404//1081 405//1081 406//1081
f 405//1082 407//1082 406//1082
f 409//1083 408//1083 406//1083
f 407//1084 410//1084 406//1084
f 391//1085 384//1085 412//1085
f 413//1086 404//1086 408//1086
f 414//1087 412//1087 413//1087
f 415//1088 408//1088 409//1088
f 415//1089 413//1089 408//1089
f 418//1090 417//1090 416//1090
f 420//1091 412//1091 414//1091
f 421//1092 419//1092 396//1092
f 393//1093 495//1093 494//1093 491//1093
f 396//1094 390//1094 421//1094
f 417//1095 420//1095 414//1095
f 419//1096 421//1096 417//1096
f 425//415 567//1097 423//413
f 402//1098 405//1098 385//1098
f 426//1099 405//1099 402//1099
f 426//1100 402//1100 425//1100
f 426//1101 407//1101 405//1101
f 423//1102 411//1102 407//1102
f 429//1103 410//1103 411//1103
f 428//1104 410//1104 429//1104
f 429//1105 431//1105 430//1105
f 410//1106 434//1106 415//1106
f 434//1107 410//1107 428//1107
f 434//1108 418//1108 415//1108
f 434//1109 436//1109 418//1109
f 435//1110 418//1110 436//1110
f 437//1111 436//1111 438//1111
f 432//1112 436//1112 428//1112
f 441//1113 437//1113 438//1113
f 440//1114 417//1114 435//1114
f 504//1115 419//1115 439//1115
f 440//1116 439//1116 419//1116
f 441//1117 438//1117 455//1117
f 443//434 446//436 424//1118
f 466//1119 445//1119 443//1119
f 423//1120 446//1120 411//1120
f 446//1121 447//1121 411//1121
f 444//1122 427//1122 431//1122
f 432//1123 430//1123 449//1123
f 448//1124 450//1124 427//1124
f 449//1125 433//1125 450//1125
f 448//1126 451//1126 450//1126
f 452//1127 450//1127 451//1127
f 453//1128 452//1128 451//1128
f 456//1129 449//1129 452//1129
f 457//1130 456//1130 459//1130
f 462//1131 441//1131 455//1131
f 458//1132 462//1132 455//1132
f 464//1133 462//1133 458//1133
f 460//1134 458//1134 457//1134
f 466//1135 468//1135 445//1135
f 445//1136 467//1136 448//1136
f 468//1137 467//1137 445//1137
f 448//1138 467//1138 451//1138
f 463//1139 462//1139 464//1139
f 465//1140 464//1140 458//1140
f 471//1141 459//1141 452//1141
f 460//1142 457//1142 459//1142
f 472//1143 460//1143 471//1143
f 473//1144 453//1144 470//1144
f 469//1145 473//1145 470//1145
f 473//1146 474//1146 453//1146
f 473//1147 475//1147 474//1147
f 474//1148 476//1148 471//1148
f 474//1149 478//1149 476//1149
f 478//1150 477//1150 476//1150
f 472//1151 477//1151 465//1151
f 477//1152 480//1152 465//1152
f 481//1153 480//1153 477//1153
f 478//1154 481//1154 477//1154
f 483//1155 190//1155 141//1155
f 484//1156 483//1156 374//1156
f 486//1157 485//1157 482//1157
f 482//1158 483//1158 486//1158
f 488//1159 195//1159 196//1159
f 196//1160 485//1160 487//1160
f 492//1161 486//1161 484//1161
f 493//1162 492//1162 491//1162
f 489//1163 500//1163 497//1163 490//1163
f 494//1164 493//1164 491//1164
f 510//1165 511//1165 509//1165 508//1165
f 499//1166 498//1166 496//1166
f 506//1167 501//1167 499//1167
f 419//1168 495//1168 396//1168
f 494//1169 495//1169 502//1169
f 502//1170 495//1170 419//1170
f 505//1171 496//1171 493//1171
f 499//1172 496//1172 506//1172
f 501//1173 506//1173 508//1173
f 508//1174 507//1174 501//1174
f 510//1175 506//1175 505//1175
f 536//1176 534//1176 541//1176 558//1176
f 461//1177 439//1177 442//1177
f 512//1178 439//1178 461//1178
f 513//1179 503//1179 504//1179
f 510//1180 503//1180 513//1180
f 518//1181 511//1181 517//1181
f 511//1182 510//1182 517//1182
f 517//1183 513//1183 514//1183
f 518//1184 517//1184 514//1184
f 516//1185 518//1185 514//1185
f 463//1186 515//1186 512//1186
f 516//1187 514//1187 515//1187
f 516//1188 515//1188 520//1188
f 515//1189 463//1189 519//1189
f 520//1190 515//1190 519//1190
f 519//1191 463//1191 464//1191
f 464//1192 521//1192 519//1192
f 521//1193 520//1193 519//1193
f 613//1194 522//1194 521//1194
f 145//1195 523//1195 146//1195
f 523//1196 525//1196 146//1196
f 523//1197 526//1197 525//1197
f 524//1198 526//1198 523//1198
f 526//1199 528//511 525//513
f 304//1200 524//1200 302//1200
f 524//1201 532//1201 526//1201
f 527//1202 529//1202 528//1202
f 530//1203 531//1203 533//1203
f 304//1204 530//1204 532//1204
f 533//1205 527//1205 532//1205
f 535//1206 533//1206 531//1206
f 533//1207 535//1207 527//1207
f 310//1208 313//1208 537//1208
f 312//1209 539//1209 313//1209
f 312//1210 540//1210 539//1210
f 539//1211 541//1211 538//1211
f 541//1212 539//1212 540//1212
f 553//1213 535//1213 536//1213 554//1213
f 317//1214 543//1214 540//1214
f 317//1215 544//1215 543//1215
f 316//1216 544//1216 317//1216
f 543//1217 545//1217 540//1217
f 544//1218 546//1218 543//1218
f 545//1219 542//534 540//534
f 548//1220 399//1220 528//1220
f 550//1221 401//1221 399//1221
f 550//1222 551//1222 422//1222
f 549//1223 552//1224 550//1225
f 550//1225 552//1224 551//1226
f 529//1227 549//1227 548//1227
f 553//1228 529//1228 535//1228
f 554//1229 558//1229 560//1229 555//1229
f 553//1230 556//1230 529//1230
f 529//1231 556//1231 549//1231
f 556//1232 552//1232 549//1232
f 556//1233 555//1233 557//1233
f 542//1234 559//1234 558//1234
f 559//1235 560//1235 558//1235
f 572//1236 570//1236 576//1236 578//1236
f 559//1237 561//1237 560//1237
f 561//1238 562//1238 560//1238
f 564//1239 565//1239 563//1239
f 566//1240 565//1241 564//1242
f 561//1243 559//1243 573//1243
f 565//1241 566//1240 585//1244
f 568//1245 423//1245 567//1245
f 568//1246 569//1246 423//1246
f 570//1247 567//1247 551//1247
f 570//1248 572//1248 568//1248
f 576//1249 570//1249 571//1249
f 557//1250 576//1250 571//1250
f 586//1251 584//1251 583//1251 582//1251
f 575//1252 579//1252 577//1252
f 581//1253 575//1253 562//1253
f 580//1254 581//1254 562//1254
f 573//1255 574//1255 580//1255
f 582//1256 581//1256 580//1256
f 581//1257 583//1257 575//1257
f 575//1258 583//1258 579//1258
f 589//1259 569//1259 592//1259 593//1259
f 565//1260 585//575 573//574
f 585//1261 587//1261 574//1261
f 574//1262 586//1262 582//1262
f 587//1263 586//1263 574//1263
f 588//1264 604//1264 587//1264
f 604//1265 584//1265 587//1265
f 569//1266 424//1266 423//1266
f 424//1267 569//1267 443//1267
f 572//1268 592//1268 569//1268
f 602//1269 603//1269 622//1269 619//1269
f 593//1270 591//1270 589//1270
f 572//1271 594//1271 592//1271
f 572//1272 578//1272 594//1272
f 578//1273 579//1273 595//1273
f 597//1274 593//1274 594//1274
f 595//1275 598//1275 597//1275
f 597//1276 591//1276 593//1276
f 583//1277 584//1277 599//1277
f 583//1278 599//1278 596//1278
f 599//1279 600//1279 601//1279
f 601//1280 602//1280 598//1280
f 600//1281 603//1281 602//1281
f 584//1282 604//1282 600//1282
f 604//1283 605//1284 600//1285
f 657//1286 606//1286 604//1286
f 606//1287 605//1284 604//1283
f 603//1288 600//1288 605//1288
f 608//1289 607//1289 590//1289
f 608//1290 617//1290 607//1290
f 617//1291 609//1291 607//1291
f 612//1292 611//1292 610//1292
f 623//1293 611//1293 612//1293
f 597//1294 615//1294 591//1294
f 597//1295 616//1295 615//1295
f 615//1296 617//1296 608//1296
f 616//1297 618//1297 617//1297
f 598//1298 602//1298 614//1298
f 619//1299 620//1299 602//1299
f 619//1300 621//1300 620//1300
f 606//1301 658//1301 605//1301
f 603//1302 605//1302 622//1302
f 488//1303 490//1303 637//1303 631//1303
f 622//1304 605//1304 611//1304
f 622//1305 623//1305 619//1305
f 623//1306 629//1306 619//1306
f 607//1307 624//1308 469//1309
f 609//1310 624//1308 607//1307
f 624//1311 473//1311 469//1311
f 609//1312 625//1312 624//1312
f 625//1313 627//1313 475//1313
f 628//1314 478//1314 475//1314
f 628//1315 481//1315 478//1315
f 628//1316 626//1316 481//1316
f 627//1317 628//1317 475//1317
f 612//1318 613//1318 480//1318
f 612//1319 480//1319 626//1319
f 612//1320 626//1320 623//1320
f 618//1321 625//1321 609//1321
f 618//1322 621//1322 627//1322
f 629//1323 626//1323 627//1323
f 631//1324 630//1324 195//1324
f 632//1325 635//1325 631//1325
f 646//1326 642//1326 639//1326 648//1326
f 355//1327 633//1327 356//1327
f 633//1328 544//1328 356//1328
f 355//1329 635//1329 633//1329
f 544//1330 633//1330 546//1330
f 635//1331 354//1331 630//1331
f 354//1332 635//1332 355//1332
f 635//1333 632//1333 636//1333
f 637//1334 490//1334 497//1334
f 632//1335 639//1335 636//1335
f 638//1336 637//1336 497//1336
f 639//1337 637//1337 638//1337
f 497//1338 500//1338 501//1338
f 634//1339 641//1339 564//1339
f 641//1340 634//1340 636//1340
f 636//1341 642//1341 641//1341
f 642//1342 566//1342 564//1342
f 636//1343 639//1343 642//1343
f 497//1344 501//1344 507//1344
f 507//1345 638//1345 497//1345
f 639//1346 638//1346 640//1346
f 643//1347 640//1347 507//1347
f 509//1348 507//1348 508//1348
f 643//1349 507//1349 509//1349
f 649//1350 645//1350 650//1350
f 642//1351 646//1351 566//1351
f 588//1352 647//1352 656//1352
f 649//1353 656//1353 647//1353
f 649//1354 647//1354 646//1354
f 650//1355 651//1355 656//1355
f 650//1356 654//1356 655//1356
f 652//1357 650//1357 655//1357
f 653//1358 652//1358 655//1358
f 511//1359 654//1359 644//1359
f 644//1360 654//1360 645//1360
f 655//1361 654//1361 518//1361
f 655//1362 518//1362 516//1362
f 657//1363 604//1363 588//1363
f 588//1364 656//1364 657//1364
f 656//1365 651//1365 657//1365
f 652//1366 658//1366 651//1366
f 659//1367 655//1367 516//1367
f 610//1368 658//1368 653//1368
f 610//1369 653//1369 659//1369
f 612//1370 610//1370 659//1370
f 652//1371 653//1371 658//1371
