# Blender 4.5.0
# www.blender.org
mtllib cloudA.mtl
o cloudA
v -6.282736 -1.471850 0.057632
v -6.281782 -1.168035 -0.233811
v -6.131281 -1.452049 0.604175
v -5.920818 -1.913144 0.608993
v -5.718817 -1.669388 1.038862
v -5.829258 -1.217384 1.025875
v -6.121672 -0.960629 0.498915
v -5.815546 -0.558652 0.497391
v -5.647306 -2.261933 0.325504
v -5.682409 -2.262292 -0.411662
v -6.015463 -2.037673 -0.029138
v -6.005699 -0.601954 -0.000754
v -5.591352 -0.279980 -0.061935
v -5.129881 -1.653654 1.359182
v -5.191967 -1.983204 1.141522
v -5.261209 -1.193981 1.361020
v -5.588984 -0.731819 0.987610
v -5.018244 -0.925352 1.348333
v -5.288322 -2.272291 0.720936
v -5.505119 -0.310302 0.415379
v -5.225712 -0.427161 0.874580
v -5.095169 -0.112059 1.066568
v -5.279049 0.208003 0.818474
v -5.117458 -2.491496 0.202099
v -5.542542 0.233140 0.124758
v -5.346642 0.666614 0.273484
v -4.585112 -1.433229 1.426589
v -4.311407 -1.990392 1.100065
v -4.875586 -0.635905 1.192026
v -4.464037 -0.329518 1.519774
v -4.616959 0.312497 1.390778
v -4.602045 0.696260 1.249548
v -4.671865 -2.250847 0.887591
v -4.659439 -2.510973 -0.353664
v -4.578062 -2.478999 0.279803
v -4.315317 -1.096733 1.357269
v -3.979393 -1.548469 1.169518
v -3.822645 -1.128946 1.522772
v -4.028215 -0.385466 1.696984
v -3.979027 0.674301 1.557611
v -4.078608 -2.293170 0.461703
v -3.801971 -1.978504 0.707362
v -4.123398 -2.392271 -0.242245
v -3.307066 -0.373232 1.839204
v -3.890589 0.293889 1.704331
v -3.346273 0.874937 1.610814
v -3.411266 -1.767775 1.125923
v -3.406963 -0.945932 1.674207
v -3.370974 -2.060902 0.665850
v -3.722965 -2.146733 -0.382482
v -3.738020 -2.156869 0.169077
v -2.842976 0.100169 1.839647
v -2.930946 -2.062671 1.219726
v -2.893820 -1.782124 1.462483
v -3.034006 -1.203403 1.582530
v -2.806623 -2.377436 0.585129
v -2.959509 -2.230695 0.107613
v -2.434319 -1.302263 1.767658
v -2.396152 -0.661932 1.707237
v -2.084635 -1.052397 1.819644
v -2.569807 0.488070 1.721031
v -2.025187 0.276600 1.626222
v -2.548178 -2.372793 0.963017
v -1.996820 -2.239483 1.344565
v -2.406809 -1.815599 1.607984
v -2.479570 -2.468841 0.325582
v -2.568945 -2.192586 -0.213770
v -1.678793 -1.574870 1.753533
v -1.919003 -0.295995 1.613775
v -1.677313 -0.638728 1.742127
v -1.939032 0.437656 1.707372
v -1.555027 -1.924618 1.583862
v -1.913210 -2.501119 0.866813
v -1.762384 -2.359808 -0.120059
v -0.968695 -0.118745 2.393277
v -1.246269 -1.222673 1.762570
v -1.032589 -0.693106 2.196064
v -1.545225 -0.032940 2.065659
v -1.431997 0.463046 2.190474
v -1.239044 -2.237308 1.228409
v -0.908716 -1.723461 1.534216
v -1.496584 -2.536102 0.600962
v -0.874939 -2.327186 0.246050
v -1.075129 -2.264142 -0.046930
v -0.453274 -0.668010 2.402260
v -0.973347 0.459171 2.448446
v -0.571264 -1.194898 2.112522
v -0.727751 -2.078093 1.141083
v -0.372663 -2.021056 1.393596
v -0.727369 -2.267645 0.743674
v -0.198795 -2.528696 0.160807
v -0.544975 0.139722 2.582170
v 0.018360 -0.505923 2.518862
v 0.019228 0.461466 2.655201
v 0.044310 -1.693091 1.841170
v 0.229540 -1.221061 2.182929
v -0.287262 -2.298059 0.925446
v 0.349718 -2.312813 0.916980
v 0.299116 -2.486985 0.339923
v -5.089949 0.680332 0.799883
v -5.132946 1.072653 0.144326
v -5.375998 0.693054 -0.255433
v -4.623075 1.194409 0.855268
v -4.652143 1.471997 0.294320
v -4.802216 1.386623 -0.323018
v -3.925318 1.724396 0.597934
v -4.041201 1.821654 -0.001040
v -4.114252 1.025366 1.324831
v -3.780394 1.367991 1.172822
v -3.220018 1.955008 0.242371
v -2.826738 1.239172 1.378110
v -3.328272 1.624706 0.973860
v -3.187033 1.977006 -0.319994
v -2.089167 0.678955 1.524958
v -2.160879 1.106886 1.318416
v -2.238028 1.572963 0.881708
v -2.879044 1.827276 0.632310
v -2.265980 1.802732 0.373162
v -2.273836 1.873362 -0.025237
v -1.788523 1.038359 1.815268
v -1.828487 1.614216 1.550679
v -1.897930 2.140067 0.965579
v -2.138004 2.131625 0.111764
v -1.807304 2.612400 -0.028799
v -1.183765 0.980947 2.305128
v -1.135616 1.496161 2.199941
v -1.512869 2.113241 1.531843
v -1.182243 2.583302 1.386242
v -1.620977 2.575995 0.806827
v -1.243979 2.948635 0.662053
v -1.424667 2.945603 0.062425
v -0.939377 3.225409 -0.445305
v -0.476412 1.039510 2.551536
v -0.994177 2.164674 1.909068
v -0.520699 2.563132 1.794876
v -0.881439 2.956488 1.098038
v -0.448133 3.229912 0.842462
v -0.892267 3.225219 0.345093
v -0.229677 1.691817 2.410562
v -0.222221 2.198034 2.139114
v -0.092068 2.986161 1.409190
v -0.310753 3.422032 0.258737
v -0.186502 3.448817 -0.317946
v -6.176558 -1.544462 -0.625810
v -6.120073 -1.222057 -0.790384
v -6.081694 -1.837530 -0.508893
v -5.810692 -1.896835 -0.926471
v -5.995096 -0.642659 -0.461080
v -5.705002 -1.516895 -1.274042
v -5.893167 -0.948629 -1.004481
v -5.384577 -0.916508 -1.395403
v -5.649288 -0.619392 -0.969866
v -5.175488 -2.401464 -0.666383
v -5.520639 -0.297608 -0.507291
v -5.483732 0.282171 -0.446424
v -5.368200 0.122124 -0.833004
v -5.437033 -2.109553 -1.027205
v -5.368303 -1.685087 -1.400415
v -4.895725 -2.037228 -1.310140
v -5.223038 -0.433929 -1.042119
v -5.051130 -0.076739 -1.272854
v -4.944269 0.270143 -1.312904
v -5.239344 -1.212792 -1.524402
v -4.782801 -2.255083 -1.035493
v -4.204714 -2.295760 -0.740468
v -4.930380 -1.661198 -1.533990
v -4.359545 -1.710484 -1.443069
v -4.846918 -0.652673 -1.365677
v -4.665388 -1.241826 -1.591443
v -4.464373 -0.347460 -1.675123
v -4.196131 -2.084905 -1.087492
v -3.876503 -1.757833 -1.163262
v -4.315290 -1.099061 -1.515446
v -3.736095 -0.844010 -1.827624
v -3.418371 -1.344287 -1.642092
v -4.035818 -0.349984 -1.853897
v -4.101313 0.648411 -1.683530
v -4.230810 0.338531 -1.740436
v -3.260984 -1.642588 -1.408481
v -3.109282 0.128979 -1.991109
v -3.349997 -0.349086 -1.995873
v -3.678598 0.494832 -1.867663
v -3.143801 -2.160263 -0.632743
v -2.905590 -1.894120 -1.130808
v -2.449457 -1.627656 -1.343054
v -2.846798 -0.958140 -1.837147
v -2.458288 -2.000488 -0.848587
v -2.116844 -2.034621 -0.458691
v -2.490608 -1.293585 -1.611120
v -2.023287 0.310739 -1.775095
v -2.611071 -0.291925 -1.961481
v -2.773956 0.503454 -1.906512
v -1.662626 -1.739367 -0.648036
v -1.702856 -1.559299 -1.007068
v -2.156359 -0.777934 -1.765590
v -1.771730 -1.132496 -1.446120
v -1.868649 -0.616585 -1.691697
v -1.942200 -0.145720 -1.789201
v -1.847944 0.093002 -1.955760
v -1.429104 0.454701 -2.348228
v -1.403173 -2.022762 -0.433053
v -1.140446 -2.047834 -0.965518
v -1.383045 -1.670159 -1.305122
v -0.864037 -1.631771 -1.810357
v -1.506989 -1.204070 -1.683771
v -1.314219 -0.685074 -2.177972
v -1.203148 -0.178515 -2.437816
v -0.770037 -2.323487 -0.683356
v -0.662373 -2.022149 -1.425904
v -0.962805 -1.171852 -2.125857
v -0.610828 -0.770517 -2.484332
v -0.814157 0.544474 -2.674724
v -0.348654 -2.479678 -0.442961
v -0.128588 -2.021647 -1.595650
v -0.172649 -2.296940 -1.125029
v -0.200291 -1.661561 -1.989149
v -0.199484 -1.182312 -2.363106
v 0.022295 -0.678064 -2.604221
v -0.154177 -0.135366 -2.750002
v -5.130936 0.692466 -0.892436
v -5.004885 1.020457 -0.749356
v -4.450068 1.618826 -0.310922
v -4.710981 0.676491 -1.334949
v -4.402617 1.057119 -1.306521
v -4.330538 1.380652 -1.031553
v -4.046404 1.625291 -0.846029
v -3.659046 1.819974 -0.682504
v -3.385889 1.497582 -1.296131
v -3.665228 1.055512 -1.608994
v -2.703270 1.746082 -0.917259
v -2.854542 1.026996 -1.674837
v -2.626419 1.364743 -1.383271
v -2.274065 1.789844 -0.583536
v -2.236662 1.529349 -1.086055
v -2.131695 0.895936 -1.604229
v -2.042351 2.127062 -0.773437
v -1.690884 2.101671 -1.502763
v -1.778919 1.040298 -1.980215
v -1.972151 1.598796 -1.494300
v -1.393303 1.046067 -2.309261
v -1.346140 2.940167 -0.644495
v -1.596851 2.584792 -0.993898
v -0.900957 2.944942 -1.259379
v -1.184727 2.122566 -1.964278
v -1.159761 2.599453 -1.535936
v -1.449903 1.558997 -2.107525
v -0.580225 2.109220 -2.278169
v -0.952160 1.041517 -2.556575
v -0.474537 1.053632 -2.705115
v -0.673254 1.649768 -2.488880
v -0.375513 3.226524 -1.034281
v 0.296663 3.219428 -1.112752
v -0.366295 2.954417 -1.533404
v 0.175966 2.946954 -1.589999
v -0.537521 2.562371 -1.942535
v 0.291391 1.064117 -2.749743
v 0.024313 1.601574 -2.603542
v 0.547354 0.117265 2.596267
v 0.288723 -2.039498 1.405648
v 0.489902 -0.684315 2.397006
v 1.023129 -0.473207 2.307552
v 1.011419 0.457417 2.448530
v 0.876469 -1.671050 1.618594
v 1.021763 -1.213117 1.929381
v 0.942343 -2.020738 1.105242
v 0.991154 -2.297200 0.262926
v 1.347075 -1.986056 0.682412
v 1.430040 -1.023324 1.770695
v 1.635118 -0.193516 1.999273
v 1.508221 -0.677750 1.926143
v 1.461422 0.469710 2.195676
v 1.801886 0.343844 1.914256
v 1.348837 -1.744107 1.108957
v 1.377327 -1.477933 1.431520
v 1.566013 -2.298309 -0.029349
v 1.320723 -2.127797 0.097354
v 2.164665 -0.949616 2.393613
v 2.187780 -0.597533 2.474181
v 1.826775 -1.448064 1.922508
v 2.255106 -1.735405 2.028420
v 2.406139 -2.027231 1.796933
v 2.630538 -1.327178 2.518067
v 2.320229 0.251658 2.340417
v 1.810019 -2.021868 1.294915
v 1.841631 -2.272772 0.795675
v 2.561452 -2.292823 1.496906
v 2.067488 -2.481378 -0.391614
v 2.234114 -0.093167 2.430422
v 3.189220 -0.220417 2.871794
v 2.692219 0.621097 2.280077
v 2.850168 -2.546081 0.975414
v 2.146049 -2.477491 0.524342
v 2.720585 -2.621520 0.309159
v 2.653860 -2.595515 -0.229137
v 2.943631 -1.701483 2.386792
v 3.570651 -1.733309 2.484086
v 3.409252 -1.338178 2.736122
v 2.893908 -0.823148 2.787729
v 3.396943 -0.752171 2.936067
v 3.166253 0.266200 2.684194
v 3.401908 -2.272709 1.768733
v 3.108959 -2.019644 2.117256
v 3.565690 -2.489883 1.212032
v 3.994053 -0.733748 2.951657
v 3.921080 0.065405 2.836262
v 4.110598 -1.392016 2.696187
v 3.539783 0.623987 2.498855
v 4.030472 -2.280252 1.592545
v 3.451633 -2.605599 0.335089
v 3.988554 -2.470532 0.516579
v 3.592831 -2.470572 -0.357735
v 4.364080 -0.959343 2.819158
v 3.919274 -1.886065 2.317899
v 4.427434 -0.306559 2.850139
v 4.308994 0.606319 2.384388
v 4.496555 0.223275 2.615843
v 4.407570 -2.299135 0.855647
v 4.042393 -2.309301 -0.339105
v 4.862474 -1.305227 2.395048
v 4.794135 -0.678257 2.687449
v 4.919445 -0.138232 2.539050
v 5.106153 -0.797150 2.419039
v 5.091530 0.276155 2.077778
v 4.643679 -1.684362 2.188070
v 4.409408 -2.010497 1.896282
v 4.749212 -2.057554 1.242357
v 5.045157 -1.715906 1.590357
v 5.252611 -1.386169 1.737511
v 4.760149 -2.023637 0.325689
v 4.475049 -2.015254 -0.352836
v 5.016925 -1.569724 -0.141353
v 5.336015 -0.956440 1.998421
v 5.371820 -0.549927 2.052661
v 5.534458 -0.542552 1.616214
v 5.331274 -0.135196 2.004502
v 5.371867 0.280927 1.262248
v 5.520864 -0.098794 1.357034
v 5.401021 -1.333886 1.069680
v 5.544127 -0.928160 1.324191
v 5.585615 -0.619109 0.804736
v 5.143814 -1.717467 0.824413
v 5.450781 -1.188802 0.651785
v 5.469828 -0.147615 0.396714
v 5.359152 0.246215 0.590948
v 5.327141 -1.125382 0.087548
v 5.412796 -0.543788 0.078468
v 5.138044 0.223238 -0.174339
v 0.352837 1.031869 2.582464
v 0.443052 2.117970 2.151168
v 0.455101 2.588368 1.799880
v 0.208021 3.215745 0.975968
v 0.390387 3.398044 0.295491
v 1.201677 1.043257 2.306371
v 0.661671 1.653373 2.336621
v 1.352428 1.607784 2.020877
v 1.013304 2.104594 1.953503
v 0.702425 2.943666 1.268003
v 1.179300 2.589309 1.405603
v 1.152044 2.952299 0.858887
v 0.822374 3.241862 0.520213
v 1.755537 1.444884 1.753278
v 1.644911 2.136419 1.417347
v 1.636007 2.566213 0.877254
v 1.436716 2.954080 0.231472
v 1.919088 0.629923 1.785627
v 2.137409 1.062303 1.425962
v 2.117926 1.468825 1.290769
v 2.006060 2.032520 0.965765
v 1.926519 2.456319 0.394248
v 2.467678 2.807127 0.307531
v 1.826799 2.613698 -0.243033
v 2.286184 2.883065 -0.272739
v 2.755294 0.926024 1.989512
v 2.798578 1.683559 1.469733
v 2.776340 1.215253 1.570947
v 2.510403 1.996398 1.264673
v 2.565361 2.519271 0.844574
v 2.776839 2.711443 0.618344
v 3.473228 0.925519 2.165532
v 3.222701 1.296485 1.550088
v 3.510435 1.821242 1.314414
v 3.097303 2.177115 1.205206
v 3.287568 2.572429 0.793893
v 3.141298 2.945758 0.119289
v 4.129606 0.922183 2.054355
v 3.643366 1.329270 1.423988
v 4.162209 1.293741 1.081704
v 3.598758 2.351054 0.911163
v 4.011766 1.837298 1.006940
v 3.997801 2.324568 0.619366
v 3.669184 2.715648 0.312666
v 3.532299 2.940424 -0.335258
v 4.529119 1.014463 1.523521
v 4.441391 1.182466 0.775404
v 4.396623 2.008920 0.386960
v 4.111617 2.582936 -0.142746
v 4.860703 0.633507 1.903837
v 4.816579 0.928398 1.030247
v 5.132921 0.615175 1.241434
v 4.691420 0.988948 0.274267
v 4.807198 1.282666 -0.430418
v 4.687649 1.510586 0.088908
v 4.586958 2.006957 -0.289210
v 5.089066 0.608470 0.373820
v 0.352402 -2.492134 -0.449745
v 0.435297 -2.300505 -1.038369
v 0.525103 -2.016464 -1.525798
v 0.545441 -1.651748 -1.943481
v 0.678612 -1.178179 -2.262329
v 0.704823 -0.695916 -2.494685
v 0.517384 0.019037 -2.732905
v 0.018126 0.460847 -2.811177
v 0.887793 -2.311229 -0.576646
v 0.999575 -0.119334 -2.552695
v 1.012884 0.463726 -2.603654
v 1.278870 -2.104019 -0.509106
v 1.926260 -2.290022 -1.049077
v 1.227476 -1.952083 -1.104246
v 1.632725 -2.028592 -1.389196
v 1.166197 -1.198535 -2.007220
v 1.193390 -1.642662 -1.601741
v 1.667717 -1.708885 -1.863504
v 1.915548 -1.371184 -2.199895
v 1.574825 -0.756503 -2.344986
v 1.309454 -0.615377 -2.238515
v 1.549416 -0.019816 -2.258827
v 2.136644 -1.997397 -1.657131
v 2.430304 -1.693882 -1.997317
v 2.288277 -0.930577 -2.404626
v 2.033747 -0.268627 -2.418023
v 2.500552 -0.416348 -2.423508
v 1.842199 0.506769 -2.034065
v 2.185514 0.308408 -2.208019
v 2.660210 -2.388949 -1.031121
v 2.837428 -1.338873 -2.172701
v 2.745129 0.046645 -2.284577
v 2.970513 0.816393 -2.569031
v 2.861256 -2.040112 -1.570862
v 3.032953 -1.701994 -1.862884
v 3.034173 -0.777208 -2.296317
v 3.104149 -0.060424 -2.208778
v 3.543385 -0.553830 -2.076847
v 3.428714 -2.275319 -0.962472
v 3.679846 -1.711288 -1.549552
v 3.950788 -1.343058 -1.613394
v 3.926001 -0.113092 -1.781108
v 3.533718 -1.102800 -1.992717
v 3.546826 -0.115978 -2.025414
v 3.446556 0.294294 -2.334791
v 4.398335 -1.714313 -0.919702
v 3.773392 -2.056007 -1.107646
v 4.303361 0.046876 -1.437132
v 4.206594 -0.547742 -1.630256
v 4.276905 0.511614 -1.846557
v 3.951049 0.559895 -2.176265
v 4.765785 0.633040 -0.385174
v 4.217923 -1.037217 -1.556057
v 4.618452 -1.289697 -1.020267
v 4.973198 -0.925512 -0.725776
v 5.032798 -0.137730 -0.627959
v 4.968039 -0.543646 -0.802276
v 4.609785 0.279923 -0.994188
v 0.316851 3.409802 -0.492984
v 0.732960 2.947120 -1.402786
v 0.243206 2.161550 -2.323760
v 0.488548 2.579718 -1.960269
v 0.700933 1.633826 -2.499757
v 0.968935 3.229138 -0.488501
v 1.169283 2.606387 -1.554173
v 1.020670 2.155644 -2.082791
v 0.998478 1.045923 -2.552290
v 1.402292 2.950445 -0.512139
v 1.165197 2.946028 -1.010939
v 1.623878 2.529357 -1.107799
v 1.697502 2.162384 -1.472979
v 1.689266 1.917332 -1.724147
v 1.450106 0.836145 -2.343328
v 1.742558 0.997540 -2.062049
v 1.362810 1.596283 -2.173041
v 1.701391 1.477729 -1.948318
v 1.758526 2.503539 -0.942544
v 2.297113 2.712553 -1.374222
v 2.055313 2.355917 -1.704098
v 2.137018 1.097631 -2.361410
v 2.182655 1.655010 -2.293218
v 2.402126 2.347108 -1.968919
v 2.255060 2.831889 -1.014280
v 2.736530 3.031979 -0.504915
v 2.957540 2.793525 -1.529995
v 2.368016 0.725484 -2.444553
v 2.817608 2.135685 -2.247868
v 2.608289 1.282870 -2.539853
v 2.823757 1.675906 -2.489453
v 3.128328 2.955903 -1.104519
v 3.482706 0.708966 -2.463449
v 3.369592 2.004601 -2.288390
v 3.259864 2.464608 -1.948866
v 3.565604 1.267360 -2.475913
v 3.832734 2.777900 -0.908857
v 3.688678 2.592979 -1.564437
v 3.825441 1.826543 -2.165612
v 4.260265 2.467190 -0.616339
v 4.481225 1.261230 -1.683707
v 3.951104 2.146769 -1.850942
v 4.270584 2.295092 -1.230353
v 4.301819 1.803952 -1.719668
v 4.172298 1.277128 -2.079090
v 4.691917 1.502024 -1.100453
v 4.553440 1.986572 -0.989401
v 4.737619 0.962796 -1.100517
v 4.516557 0.723669 -1.563581
vn -0.9616 0.0753 0.2638
vn -0.9087 0.4091 0.0828
vn -0.5015 -0.7474 0.4357
vn -0.8799 -0.3989 0.2583
vn -0.7712 0.5882 0.2433
vn -0.5914 0.7910 0.1570
vn -0.5913 0.7910 0.1571
vn -0.4928 0.3080 0.8138
vn -0.3920 0.3938 0.8314
vn -0.2967 0.5629 0.7715
vn -0.1293 -0.8031 0.5816
vn -0.4697 0.7440 0.4752
vn -0.4715 0.7403 0.4792
vn -0.4699 0.7437 0.4756
vn -0.8502 0.0321 0.5255
vn -0.2921 0.6189 0.7292
vn -0.3937 -0.9190 0.0192
vn -0.9258 0.1268 0.3562
vn -0.8930 0.2837 0.3495
vn 0.0830 -0.4732 0.8770
vn -0.1087 -0.0350 0.9935
vn 0.0309 0.1779 0.9836
vn -0.7074 -0.1302 0.6947
vn -0.4694 -0.2691 0.8410
vn -0.5770 0.0266 0.8163
vn 0.3710 -0.1075 0.9224
vn 0.3100 -0.9440 0.1132
vn -0.1838 -0.2424 0.9526
vn -0.1939 0.0287 0.9806
vn -0.0821 0.2329 0.9690
vn -0.2177 -0.2793 0.9352
vn -0.1520 -0.9435 0.2946
vn 0.0415 -0.2826 0.9583
vn 0.0401 -0.2831 0.9583
vn 0.0414 -0.2827 0.9583
vn -0.5329 -0.7340 0.4210
vn -0.4979 -0.8609 -0.1051
vn -0.3803 -0.9112 -0.1583
vn 0.2212 -0.0396 0.9744
vn -0.2928 -0.2617 0.9197
vn -0.2649 -0.6107 0.7463
vn -0.2209 -0.6599 0.7181
vn -0.3260 -0.2967 0.8976
vn -0.1767 -0.9753 0.1323
vn -0.1757 -0.9760 0.1286
vn -0.1769 -0.9752 0.1330
vn -0.1744 -0.9768 0.1242
vn -0.0483 -0.5605 0.8267
vn -0.5522 -0.1203 0.8250
vn -0.1077 -0.8798 0.4630
vn -0.5674 -0.2882 0.7713
vn -0.4881 -0.1066 0.8662
vn -0.5019 -0.0862 0.8606
vn 0.0775 -0.8687 0.4893
vn 0.1864 -0.3747 0.9082
vn -0.3583 -0.0916 0.9291
vn -0.3574 -0.5761 0.7351
vn -0.3865 -0.4858 0.7840
vn -0.2802 -0.7734 0.5687
vn 0.3342 -0.8506 0.4060
vn 0.3268 -0.9450 0.0162
vn -0.2583 -0.9472 0.1899
vn -0.1577 -0.2317 0.9599
vn -0.0486 -0.1393 0.9891
vn -0.2122 -0.6565 0.7239
vn -0.0332 -0.7912 0.6107
vn -0.0555 -0.4715 0.8801
vn -0.0907 -0.5604 0.8232
vn -0.0132 -0.8616 0.5074
vn -0.2016 -0.6910 0.6941
vn -0.1752 -0.9480 0.2657
vn -0.0183 -0.9567 0.2904
vn -0.0225 -0.9578 0.2865
vn -0.0186 -0.9568 0.2901
vn -0.0227 -0.9579 0.2863
vn -0.8443 0.3539 0.4025
vn -0.7721 0.5218 0.3629
vn -0.5508 0.8344 0.0185
vn -0.3634 0.7480 0.5553
vn -0.4483 0.7917 0.4150
vn -0.4013 0.8887 0.2219
vn -0.1685 0.9853 0.0287
vn 0.0074 0.2877 0.9577
vn -0.0652 0.6805 0.7299
vn 0.0897 0.7740 0.6268
vn -0.1028 0.9152 0.3897
vn 0.2675 0.2750 0.9235
vn 0.1992 0.6874 0.6984
vn 0.1116 0.9789 0.1713
vn -0.4897 0.3111 0.8145
vn -0.8178 0.3155 0.4812
vn -0.7647 0.2245 0.6040
vn -0.7179 0.4733 0.5106
vn -0.7918 0.5765 0.2017
vn -0.9007 0.4244 0.0930
vn -0.7751 0.5952 0.2121
vn -0.6174 0.1240 0.7768
vn -0.6026 0.2133 0.7690
vn -0.5673 0.3862 0.7273
vn -0.6484 0.5880 0.4835
vn -0.5206 0.7436 0.4195
vn -0.6514 0.7339 0.1926
vn -0.4895 0.0418 0.8710
vn -0.3355 0.1213 0.9342
vn -0.2615 0.0527 0.9638
vn -0.3371 0.2185 0.9158
vn -0.3862 0.6473 0.6572
vn -0.2918 0.4329 0.8529
vn -0.2720 0.4579 0.8464
vn -0.3421 0.7314 0.5900
vn -0.2548 0.7797 0.5720
vn -0.3960 0.8630 0.3137
vn -0.4767 0.8786 0.0286
vn -0.3180 0.9479 0.0192
vn -0.1536 0.0453 0.9871
vn -0.2773 0.3020 0.9121
vn -0.0219 0.6850 0.7282
vn -0.0213 0.6766 0.7360
vn -0.0216 0.6771 0.7356
vn -0.0215 0.6854 0.7279
vn -0.9060 -0.4203 -0.0502
vn -0.9324 -0.3450 -0.1082
vn -0.8870 0.4577 -0.0609
vn -0.9594 0.0246 -0.2811
vn -0.6191 0.7809 -0.0833
vn -0.5915 0.7965 -0.1254
vn -0.7833 -0.4319 -0.4470
vn -0.7632 -0.3076 -0.5683
vn -0.5326 -0.7471 -0.3977
vn -0.4835 -0.5138 -0.7087
vn -0.8359 0.3962 -0.3799
vn -0.6075 0.1672 -0.7766
vn -0.6956 0.5623 -0.4471
vn -0.5531 0.4812 -0.6801
vn -0.1532 -0.9839 -0.0918
vn -0.9557 0.2850 -0.0739
vn -0.1905 -0.8261 -0.5303
vn -0.4201 0.7955 -0.4366
vn -0.8091 0.0098 -0.5876
vn -0.3870 0.6255 -0.6775
vn -0.7638 0.1632 -0.6244
vn -0.7624 0.2552 -0.5947
vn -0.3061 -0.6002 -0.7390
vn -0.2788 -0.1719 -0.9448
vn -0.2666 0.6258 -0.7330
vn 0.0160 -0.9352 -0.3539
vn 0.1230 -0.9216 -0.3681
vn 0.1572 -0.7412 -0.6526
vn 0.1351 -0.2178 -0.9666
vn -0.0902 0.3600 -0.9286
vn -0.1083 0.3265 -0.9390
vn -0.5882 -0.0788 -0.8049
vn -0.4652 -0.2713 -0.8426
vn 0.1966 -0.6287 -0.7524
vn 0.2614 -0.1321 -0.9561
vn 0.4864 -0.1373 -0.8629
vn -0.2684 -0.5871 -0.7638
vn -0.2484 -0.4716 -0.8461
vn -0.3844 0.0431 -0.9221
vn 0.4451 -0.8628 -0.2398
vn -0.0912 -0.7934 -0.6019
vn -0.1995 -0.1723 -0.9646
vn -0.2475 0.0889 -0.9648
vn -0.0579 -0.9951 -0.0802
vn 0.0682 -0.8931 -0.4446
vn -0.0586 -0.3796 -0.9233
vn -0.0472 -0.2883 -0.9564
vn 0.0476 -0.0140 -0.9988
vn 0.0613 -0.2040 -0.9770
vn 0.0159 -0.9950 -0.0986
vn 0.1658 -0.9395 -0.2999
vn 0.1551 -0.9630 -0.2202
vn 0.1963 -0.3960 -0.8970
vn 0.3032 -0.5734 -0.7611
vn 0.1609 -0.2358 -0.9584
vn 0.1983 0.1079 -0.9742
vn -0.0829 -0.7607 -0.6437
vn 0.3241 -0.7581 -0.5659
vn 0.3636 -0.6388 -0.6780
vn 0.3922 -0.8208 -0.4153
vn 0.3465 -0.8224 -0.4513
vn 0.2938 -0.4440 -0.8465
vn 0.2736 -0.1283 -0.9533
vn -0.6441 -0.2502 -0.7228
vn -0.6442 -0.2502 -0.7228
vn -0.6438 -0.2503 -0.7231
vn 0.2341 0.0715 -0.9696
vn -0.7807 -0.1197 -0.6134
vn 0.0372 -0.7010 -0.7122
vn 0.0389 -0.5811 -0.8129
vn -0.4406 -0.8803 -0.1760
vn -0.6197 -0.7365 -0.2711
vn -0.5022 -0.5599 -0.6590
vn -0.6322 -0.3981 -0.6647
vn -0.4864 -0.1184 0.8657
vn -0.3152 -0.9470 -0.0628
vn -0.4505 -0.7337 -0.5087
vn -0.4498 -0.7341 -0.5087
vn -0.4407 -0.7398 -0.5085
vn -0.2626 -0.5044 -0.8226
vn -0.2483 -0.5837 -0.7731
vn -0.2753 -0.1624 -0.9475
vn -0.0197 -0.9645 -0.2635
vn -0.1169 -0.3861 -0.9150
vn -0.1354 -0.2979 -0.9449
vn -0.1667 -0.0528 -0.9846
vn -0.8629 0.3807 -0.3323
vn -0.8295 0.4582 -0.3195
vn -0.6729 0.3510 -0.6512
vn -0.5943 0.5268 -0.6077
vn -0.5540 0.7433 -0.3750
vn -0.5600 0.6054 -0.5655
vn -0.3221 0.9289 -0.1829
vn -0.3478 0.9032 -0.2515
vn -0.4374 0.4140 -0.7983
vn -0.2775 0.6646 -0.6938
vn -0.2834 0.6585 -0.6972
vn -0.2849 0.6568 -0.6981
vn -0.2614 0.7574 -0.5984
vn -0.2340 0.4119 -0.8807
vn -0.2919 0.2894 -0.9116
vn 0.0642 0.7775 -0.6256
vn -0.0508 0.8746 -0.4821
vn -0.0429 0.4194 -0.9068
vn 0.1163 0.9544 -0.2748
vn 0.1634 0.4201 -0.8926
vn 0.2805 0.6352 -0.7196
vn -0.8593 0.5026 -0.0954
vn -0.8573 0.4282 -0.2858
vn -0.7911 0.4650 -0.3974
vn -0.7477 0.5450 -0.3793
vn -0.7469 0.6397 -0.1812
vn -0.7392 0.0590 -0.6709
vn -0.8292 0.2652 -0.4921
vn -0.7519 0.2651 -0.6037
vn -0.7150 0.6768 -0.1753
vn -0.5186 0.7569 -0.3977
vn -0.6109 0.4526 -0.6496
vn -0.6158 0.6251 -0.4797
vn -0.5680 0.5662 -0.5973
vn -0.4402 0.4101 -0.7988
vn -0.2819 0.9593 -0.0162
vn -0.3667 0.5758 -0.7307
vn -0.4675 0.2784 -0.8390
vn -0.2939 0.2378 -0.9258
vn -0.2411 0.9431 -0.2290
vn -0.0264 0.9567 -0.2900
vn -0.0266 0.9567 -0.2899
vn -0.0242 0.9559 -0.2926
vn -0.0241 0.9559 -0.2928
vn -0.0392 0.8723 -0.4873
vn -0.0382 0.8725 -0.4872
vn -0.0389 0.8720 -0.4880
vn -0.0771 0.4285 -0.9003
vn -0.0241 0.6639 -0.7474
vn -0.1571 0.0459 -0.9865
vn -0.0594 0.1277 -0.9900
vn -0.1348 0.2979 -0.9450
vn -0.0597 0.2343 -0.9703
vn 0.1531 -0.2487 0.9564
vn 0.2558 -0.2504 0.9337
vn 0.2500 -0.5968 0.7625
vn 0.3131 -0.4327 0.8454
vn 0.3950 -0.8658 0.3071
vn 0.2669 -0.9634 0.0243
vn 0.5266 -0.2602 0.8093
vn 0.4526 -0.4065 0.7937
vn 0.4969 -0.4470 0.7438
vn -0.5981 -0.2123 0.7728
vn 0.4885 -0.1277 0.8632
vn 0.4899 -0.1260 0.8626
vn 0.4889 -0.1272 0.8630
vn 0.4709 -0.7001 0.5368
vn 0.4705 -0.7005 0.5365
vn 0.5122 -0.5510 0.6589
vn 0.5070 -0.7506 0.4237
vn -0.5859 -0.7039 0.4017
vn -0.5266 -0.8205 0.2225
vn -0.4731 -0.6847 0.5545
vn -0.6005 -0.2953 0.7431
vn -0.6305 0.0482 0.7747
vn -0.6332 -0.1329 0.7625
vn -0.5933 0.1235 0.7955
vn -0.5613 0.3374 0.7557
vn -0.3225 -0.9460 0.0317
vn -0.4451 -0.1719 0.8788
vn -0.4420 0.5596 0.7011
vn -0.2762 -0.9157 0.2918
vn -0.1885 -0.9711 0.1466
vn -0.2487 -0.9684 -0.0160
vn -0.1539 -0.5753 0.8034
vn -0.1458 -0.6825 0.7162
vn -0.2409 -0.4944 0.8352
vn -0.2140 -0.3715 0.9034
vn -0.2599 -0.3167 0.9122
vn -0.3884 0.0621 0.9194
vn -0.2835 0.0052 0.9590
vn -0.3619 0.3202 0.8755
vn -0.3619 0.3204 0.8754
vn -0.3616 0.3193 0.8760
vn -0.1416 -0.8538 0.5010
vn -0.2892 -0.7018 0.6510
vn 0.0178 -0.9939 0.1091
vn -0.0075 0.1422 0.9898
vn -0.0317 -0.7681 0.6395
vn 0.0070 -0.5357 0.8444
vn -0.0147 -0.3232 0.9462
vn 0.0257 -0.3577 0.9335
vn -0.0432 0.4948 0.8680
vn 0.0973 -0.9172 0.3864
vn 0.0362 -0.9914 0.1261
vn 0.2105 -0.9724 0.1009
vn 0.0831 0.1498 0.9852
vn 0.2959 -0.0739 0.9523
vn 0.3132 -0.7482 0.5849
vn 0.3849 -0.8964 0.2199
vn 0.2751 -0.9511 0.1408
vn 0.3393 -0.9281 -0.1535
vn 0.4674 -0.8736 -0.1355
vn 0.4675 -0.8736 -0.1355
vn 0.4669 -0.8739 -0.1353
vn 0.4735 -0.8701 -0.1373
vn 0.4675 -0.3313 0.8196
vn 0.5011 0.1192 0.8571
vn 0.5531 0.5065 0.6614
vn 0.5226 -0.7869 0.3282
vn 0.4034 -0.8735 0.2725
vn 0.7043 -0.7039 0.0921
vn 0.6728 -0.6801 -0.2911
vn 0.6625 0.0516 0.7473
vn 0.7445 -0.4461 0.4967
vn 0.8446 -0.1432 0.5158
vn 0.7706 0.1038 0.6288
vn 0.9403 -0.1902 0.2823
vn 0.8194 -0.5632 0.1067
vn 0.9976 -0.0244 0.0652
vn 0.9964 0.0637 0.0568
vn 0.9436 -0.3312 -0.0026
vn 0.9748 -0.2170 -0.0512
vn 0.8138 0.5793 -0.0455
vn 0.8139 0.5792 -0.0455
vn 0.8137 0.5795 -0.0454
vn 0.9344 0.3498 -0.0674
vn 0.9593 -0.1656 -0.2288
vn 0.9591 -0.1450 -0.2433
vn 0.9729 0.0424 -0.2271
vn 0.8423 0.4736 -0.2576
vn 0.8853 0.3806 -0.2672
vn 0.1394 0.0446 0.9892
vn 0.0921 0.3264 0.9407
vn 0.0929 0.4065 0.9089
vn 0.0573 0.5964 0.8006
vn 0.1481 0.7892 0.5960
vn 0.0192 0.9645 0.2635
vn 0.3051 0.1298 0.9434
vn 0.2992 0.2187 0.9288
vn 0.2811 0.5696 0.7724
vn 0.3402 0.7012 0.6266
vn 0.4269 0.7630 0.4853
vn 0.3236 0.9455 0.0351
vn 0.6605 0.1358 0.7384
vn 0.6136 0.4223 0.6672
vn 0.5224 0.5539 0.6483
vn 0.5487 0.7088 0.4433
vn 0.6007 0.6304 0.4917
vn 0.5939 0.7573 0.2716
vn 0.7048 0.5607 0.4346
vn 0.5518 0.1433 0.8216
vn 0.7585 0.2381 0.6066
vn 0.7490 0.4362 0.4987
vn -0.4188 0.7664 0.4870
vn -0.3093 0.7896 0.5300
vn -0.3112 0.2149 0.9257
vn -0.1661 0.7146 0.6796
vn -0.1345 0.8235 0.5511
vn 0.0073 0.2109 0.9775
vn -0.0675 0.5027 0.8618
vn 0.0779 0.8794 0.4698
vn 0.1145 0.7480 0.6538
vn 0.1145 0.7480 0.6537
vn 0.5440 0.2603 0.7977
vn 0.2694 0.5544 0.7874
vn 0.3588 0.7778 0.5160
vn 0.3071 0.9173 0.2534
vn 0.2821 0.8993 0.3342
vn 0.4916 0.8602 0.1355
vn 0.4911 0.8605 0.1357
vn 0.4911 0.8605 0.1356
vn 0.7744 0.2916 0.5615
vn 0.8676 0.2493 0.4303
vn 0.5725 0.7467 0.3386
vn 0.4048 0.7605 0.5078
vn 0.4067 0.7980 0.4448
vn 0.6127 0.7577 0.2248
vn 0.6047 0.7634 0.2268
vn 0.6123 0.7581 0.2246
vn 0.9785 0.0754 0.1922
vn 0.7358 0.6142 0.2854
vn 0.7169 0.6960 -0.0416
vn 0.2509 -0.9303 -0.2675
vn 0.0606 -0.8641 -0.4996
vn 0.0651 -0.8671 -0.4938
vn 0.0603 -0.8640 -0.4998
vn 0.0563 -0.6143 -0.7871
vn 0.0960 -0.5744 -0.8130
vn 0.0786 -0.2347 -0.9689
vn 0.3151 -0.9488 -0.0229
vn 0.4411 -0.8966 -0.0393
vn 0.4867 -0.8354 -0.2553
vn 0.3338 -0.8399 -0.4279
vn 0.3324 -0.7184 -0.6111
vn 0.3756 -0.6122 -0.6958
vn 0.2798 -0.2367 -0.9304
vn 0.3260 -0.0897 -0.9411
vn -0.5683 -0.8228 0.0070
vn -0.4151 -0.8895 -0.1912
vn -0.3909 -0.8613 -0.3247
vn -0.4440 -0.6188 -0.6480
vn -0.4589 -0.7682 -0.4464
vn 0.4058 -0.2945 -0.8652
vn -0.4638 -0.2258 -0.8567
vn -0.3248 0.0988 -0.9406
vn 0.6160 -0.0063 -0.7877
vn 0.4818 -0.0872 -0.8719
vn -0.4399 -0.8832 -0.1626
vn -0.1179 -0.6560 -0.7455
vn -0.0207 -0.0282 -0.9994
vn -0.1153 0.3663 -0.9233
vn -0.1074 -0.8808 -0.4611
vn 0.0145 -0.8422 -0.5389
vn 0.1933 -0.2750 -0.9418
vn 0.0280 0.3353 -0.9417
vn 0.0944 -0.9642 -0.2476
vn 0.1072 -0.9798 -0.1691
vn 0.1702 -0.8553 -0.4894
vn 0.2678 -0.7879 -0.5544
vn 0.1490 -0.6886 -0.7097
vn 0.3105 -0.7067 -0.6357
vn 0.3358 -0.3131 -0.8884
vn 0.3692 -0.4808 -0.7953
vn 0.3755 -0.4848 -0.7899
vn 0.3686 -0.4805 -0.7958
vn 0.2872 0.0885 -0.9538
vn 0.4441 -0.1434 -0.8844
vn 0.3657 0.0776 -0.9275
vn 0.0747 -0.3971 -0.9147
vn 0.3273 -0.8696 -0.3696
vn 0.4395 -0.4574 -0.7730
vn 0.5316 -0.3171 -0.7854
vn 0.2638 -0.5388 -0.8001
vn 0.5409 -0.8069 -0.2372
vn 0.5287 -0.7180 -0.4527
vn 0.6216 -0.4188 -0.6620
vn 0.5557 -0.1120 -0.8238
vn 0.6156 -0.4159 -0.6693
vn 0.7901 -0.3816 -0.4798
vn 0.7622 0.4559 -0.4596
vn 0.7382 -0.1976 -0.6450
vn 0.7336 -0.0852 -0.6742
vn 0.7321 0.0997 -0.6738
vn 0.7511 0.1557 -0.6416
vn 0.8899 -0.0780 -0.4494
vn 0.1735 0.0217 -0.9846
vn 0.1196 0.4059 -0.9060
vn 0.3222 0.8780 -0.3540
vn 0.3191 0.8793 -0.3536
vn 0.3232 0.8776 -0.3541
vn 0.3402 0.7097 -0.6169
vn 0.3687 0.6536 -0.6610
vn 0.4330 0.7658 -0.4755
vn 0.2517 0.5466 -0.7987
vn 0.2700 0.0912 -0.9585
vn 0.2676 0.2193 -0.9382
vn 0.5396 0.8414 -0.0291
vn 0.6339 0.7727 -0.0331
vn 0.5515 0.7092 -0.4392
vn 0.5935 0.7512 -0.2888
vn 0.6784 0.7127 -0.1784
vn 0.6135 0.5919 -0.5227
vn 0.4522 0.0895 -0.8874
vn 0.4362 0.2967 -0.8495
vn 0.4982 0.2436 -0.8321
vn 0.6007 0.2392 -0.7628
vn 0.5945 0.2343 -0.7692
vn 0.6010 0.2398 -0.7624
vn 0.5396 0.3942 -0.7439
vn -0.5576 0.8266 -0.0758
vn -0.5544 0.7685 -0.3196
vn -0.5769 0.7300 -0.3663
vn -0.5694 -0.1624 -0.8058
vn -0.5626 -0.1679 -0.8095
vn -0.5702 -0.1617 -0.8054
vn -0.6111 0.1452 -0.7781
vn -0.6273 0.3400 -0.7006
vn -0.5397 0.4820 -0.6902
vn -0.2169 0.9569 0.1931
vn -0.1598 0.9608 -0.2264
vn -0.1641 0.9418 -0.2936
vn -0.3867 0.7537 -0.5314
vn -0.2895 0.2762 -0.9164
vn -0.3061 0.4818 -0.8211
vn -0.2754 0.4443 -0.8525
vn 0.2210 0.8783 -0.4239
vn 0.2054 0.8363 -0.5084
vn 0.0855 0.6048 -0.7918
vn -0.1892 -0.0857 -0.9782
vn 0.1915 -0.0503 -0.9802
vn 0.5179 0.8549 0.0290
vn 0.4267 -0.3017 -0.8526
vn 0.5331 0.2074 -0.8202
vn 0.4110 0.5518 -0.7257
vn 0.8325 0.5512 -0.0559
vn 0.6597 0.7265 -0.1925
vn 0.8271 -0.3696 -0.4235
vn 0.7735 0.2162 -0.5957
vn 0.8691 0.2594 -0.4211
vn 0.6001 0.6512 -0.4646
vn 0.8100 0.4389 -0.3889
vn 0.5750 0.7457 -0.3367
vn 0.6367 0.3987 -0.6600
vn 0.7776 0.5450 -0.3136
vn 0.9705 -0.2021 -0.1314
vn 0.9548 0.2889 -0.0697
vn 0.9863 0.0836 -0.1423
vn 0.9523 0.3002 -0.0543
vn 0.9085 -0.0334 -0.4165
vn 0.9268 0.0786 -0.3672
vn -0.9725 0.1627 0.1664
vn -0.7611 -0.3416 0.5514
vn -0.4942 -0.6358 0.5928
vn -0.8389 0.1296 0.5287
vn -0.7555 -0.1664 0.6337
vn -0.7073 0.3961 0.5855
vn -0.6868 0.5249 0.5028
vn -0.5382 -0.8424 0.0260
vn -0.8697 -0.4439 0.2156
vn -0.6616 -0.7114 0.2370
vn -0.5914 0.7909 0.1570
vn -0.3557 -0.2820 0.8910
vn -0.4799 -0.6678 0.5690
vn -0.4189 -0.4442 0.7920
vn -0.4716 0.7401 0.4794
vn -0.8367 -0.0586 0.5446
vn -0.3279 -0.9041 0.2740
vn -0.9834 0.0283 0.1795
vn -0.9178 0.3906 0.0705
vn 0.0346 -0.5553 0.8309
vn 0.0301 -0.6565 0.7537
vn -0.0604 0.1015 0.9930
vn 0.0950 0.4364 0.8947
vn -0.5953 -0.0576 0.8014
vn -0.6592 0.1861 0.7286
vn -0.0676 -0.9268 0.3693
vn 0.0162 -0.9987 0.0483
vn -0.0283 -0.9373 0.3475
vn 0.3036 -0.3663 0.8796
vn -0.2985 -0.5470 0.7821
vn 0.4807 -0.8754 0.0506
vn -0.3928 0.0903 0.9152
vn -0.3687 0.0647 0.9273
vn 0.2975 -0.8160 0.4956
vn 0.4097 -0.7573 0.5086
vn 0.5335 -0.5072 0.6768
vn 0.2019 -0.9063 0.3714
vn 0.2118 -0.9771 0.0221
vn -0.1082 0.1052 0.9885
vn -0.1702 -0.5967 0.7842
vn -0.1108 -0.4720 0.8746
vn -0.2447 -0.7549 0.6085
vn -0.1103 -0.8426 0.5272
vn 0.5750 -0.7538 0.3181
vn -0.2047 -0.7394 -0.6414
vn 0.0502 -0.2799 0.9587
vn -0.4688 -0.5417 0.6977
vn -0.5270 -0.2931 0.7977
vn -0.1157 -0.5768 0.8086
vn -0.4393 -0.8289 0.3463
vn -0.4321 -0.8484 0.3059
vn -0.0728 -0.9679 0.2407
vn -0.2772 0.1066 0.9549
vn -0.2190 0.1046 0.9701
vn 0.1090 -0.1078 0.9882
vn 0.2219 0.1388 0.9651
vn -0.2255 -0.7712 0.5953
vn -0.2502 -0.8779 -0.4082
vn -0.1343 -0.8908 -0.4340
vn -0.0906 -0.3002 0.9496
vn -0.0370 -0.1537 0.9874
vn 0.0501 -0.0870 0.9949
vn -0.0547 0.2357 0.9703
vn -0.6839 -0.2220 0.6950
vn 0.2474 0.0248 0.9686
vn -0.7352 -0.1055 0.6696
vn -0.6889 -0.0250 0.7244
vn -0.0317 -0.4453 0.8948
vn -0.0562 0.3152 0.9474
vn -0.0730 -0.9972 0.0169
vn 0.0001 -0.9714 -0.2375
vn 0.0877 0.0994 0.9912
vn -0.5533 -0.3825 0.7400
vn -0.5065 -0.2291 0.8313
vn 0.1109 -0.6953 0.7102
vn 0.2116 -0.2838 0.9352
vn 0.1595 -0.9151 0.3703
vn 0.2565 -0.9093 0.3277
vn 0.1534 -0.9453 -0.2877
vn 0.1635 -0.9355 -0.3131
vn -0.3115 -0.2774 0.9089
vn -0.2704 -0.2385 0.9328
vn -0.2899 -0.4105 0.8645
vn 0.2472 -0.6079 0.7545
vn 0.3168 -0.6271 0.7116
vn -0.1978 -0.8590 0.4722
vn -0.2872 -0.9578 -0.0083
vn -0.2870 -0.9579 -0.0093
vn -0.2868 -0.9579 -0.0102
vn -0.0928 -0.4457 0.8904
vn -0.0332 -0.8740 0.4847
vn -0.2335 -0.8777 0.4184
vn -0.8729 0.4825 0.0726
vn -0.6535 0.2885 0.6998
vn -0.6524 0.2846 0.7024
vn -0.6523 0.2840 0.7028
vn -0.6538 0.2893 0.6992
vn -0.6994 0.5921 0.4002
vn -0.6032 0.4792 0.6376
vn -0.6600 0.6592 0.3604
vn -0.6477 0.7601 0.0523
vn -0.4697 0.5356 0.7018
vn -0.4092 0.3291 0.8510
vn -0.3776 0.2555 0.8900
vn -0.3956 0.3968 0.8283
vn -0.3803 0.6587 0.6492
vn -0.4762 0.8777 0.0539
vn -0.2229 0.4776 0.8498
vn -0.1790 0.3175 0.9312
vn -0.1947 0.5500 0.8121
vn -0.2138 0.8052 0.5531
vn -0.1027 0.9089 0.4041
vn -0.2137 0.9569 0.1967
vn -0.0844 0.6192 0.7807
vn 0.0880 0.8017 0.5912
vn 0.0984 0.9941 0.0447
vn 0.0921 0.4395 0.8935
vn 0.1686 0.4515 0.8762
vn 0.1740 0.4576 0.8720
vn 0.1688 0.4517 0.8760
vn 0.1682 0.4512 0.8764
vn 0.2024 0.8966 0.3940
vn 0.1392 0.9706 0.1962
vn -0.6903 0.0432 0.7222
vn -0.7354 0.0531 0.6755
vn -0.7910 0.0895 0.6052
vn -0.7903 0.4061 0.4588
vn -0.8449 0.4685 0.2581
vn -0.8318 0.5056 0.2289
vn -0.6281 0.2885 0.7227
vn -0.5793 0.4252 0.6955
vn -0.6476 0.6007 0.4688
vn -0.5213 0.5648 0.6397
vn -0.5558 0.7222 0.4117
vn -0.6701 0.7200 0.1808
vn -0.5220 0.8391 0.1530
vn -0.2617 0.5402 0.7998
vn -0.2295 0.8335 0.5027
vn -0.3649 0.8752 0.3176
vn -0.2790 0.9297 0.2403
vn -0.0355 0.1468 0.9885
vn -0.0343 0.2235 0.9741
vn -0.0680 0.9003 0.4300
vn -0.0412 0.9519 0.3036
vn -0.9818 -0.1300 -0.1387
vn -0.8870 0.3575 -0.2924
vn -0.6921 -0.6951 -0.1944
vn -0.6508 -0.6862 -0.3249
vn -0.5722 0.7392 -0.3551
vn -0.7951 -0.1594 -0.5852
vn -0.7325 0.0783 -0.6763
vn -0.3004 -0.9506 -0.0785
vn -0.9877 0.1270 -0.0908
vn -0.9840 0.0794 -0.1594
vn -0.9426 0.0936 -0.3205
vn -0.4147 -0.8307 -0.3714
vn -0.1863 -0.8056 -0.5624
vn -0.5150 -0.5175 -0.6834
vn -0.8781 -0.0503 -0.4758
vn -0.2246 -0.5137 -0.8281
vn -0.5254 0.1098 -0.8438
vn -0.4038 -0.1276 -0.9059
vn 0.1988 -0.8397 -0.5053
vn 0.0934 -0.5029 -0.8593
vn -0.1188 -0.0607 -0.9911
vn 0.0501 0.3708 -0.9274
vn -0.6888 -0.1293 -0.7133
vn -0.5151 0.2513 -0.8194
vn -0.5418 0.0702 -0.8376
vn -0.5184 0.0956 -0.8498
vn 0.2548 -0.9407 -0.2238
vn 0.5413 -0.7245 -0.4268
vn 0.5838 -0.6750 -0.4510
vn 0.3798 -0.5444 -0.7479
vn -0.3658 -0.2623 -0.8930
vn -0.3713 -0.2719 -0.8878
vn -0.3709 -0.2712 -0.8882
vn -0.3718 -0.2727 -0.8874
vn -0.0960 -0.9952 -0.0209
vn -0.1963 -0.8926 -0.4060
vn -0.1032 -0.8559 -0.5067
vn -0.1676 -0.6611 -0.7313
vn -0.2023 0.0696 -0.9768
vn -0.1564 0.0886 -0.9837
vn 0.0757 -0.5897 -0.8040
vn 0.0706 -0.6926 -0.7178
vn 0.0567 -0.5158 -0.8548
vn 0.1850 -0.7863 -0.5895
vn 0.0600 -0.6202 -0.7821
vn 0.1404 0.0969 -0.9853
vn -0.6667 -0.4187 -0.6166
vn 0.3210 -0.1437 -0.9361
vn 0.4042 -0.3301 -0.8530
vn -0.6451 -0.2499 -0.7221
vn 0.1725 -0.7627 -0.6233
vn -0.5058 -0.8470 -0.1635
vn -0.5670 -0.7600 -0.3177
vn -0.5933 -0.7145 -0.3708
vn -0.4403 -0.7400 -0.5085
vn -0.6134 -0.6122 -0.4989
vn -0.6561 -0.5732 -0.4908
vn -0.5255 -0.6163 -0.5866
vn -0.5412 -0.4657 -0.7002
vn -0.6581 -0.2244 -0.7187
vn -0.6252 -0.1139 -0.7721
vn -0.2528 -0.8832 -0.3951
vn -0.3350 -0.8551 -0.3956
vn -0.4076 -0.3830 -0.8290
vn -0.4098 -0.3436 -0.8450
vn -0.4640 -0.0404 -0.8849
vn -0.2876 -0.9577 -0.0064
vn -0.1781 -0.9380 -0.2973
vn -0.1612 -0.8452 -0.5095
vn 0.6410 -0.6149 0.4593
vn -0.2334 -0.5979 -0.7668
vn -0.2721 -0.1982 -0.9416
vn -0.7564 0.6377 -0.1456
vn -0.8638 0.3187 -0.3901
vn -0.7826 0.6048 -0.1475
vn -0.6184 0.5016 -0.6050
vn -0.5084 0.7890 -0.3451
vn -0.4720 0.8108 -0.3463
vn -0.4547 0.3411 -0.8227
vn -0.3281 0.4984 -0.8025
vn -0.2234 0.9663 -0.1277
vn -0.1961 0.8294 -0.5231
vn -0.2766 0.6654 -0.6933
vn -0.0204 0.9268 -0.3749
vn -0.0605 0.3961 -0.9162
vn -0.0442 0.5956 -0.8021
vn 0.0248 0.6436 -0.7650
vn -0.0439 0.2574 -0.9653
vn 0.1580 0.9766 -0.1462
vn 0.2470 0.8677 -0.4314
vn 0.1393 0.7775 -0.6133
vn 0.2412 0.3129 -0.9187
vn 0.1816 0.5695 -0.8017
vn -0.8419 0.5337 -0.0795
vn -0.8328 0.5457 -0.0928
vn -0.7882 0.4335 -0.4369
vn -0.6929 0.3772 -0.6146
vn -0.6975 0.0323 -0.7159
vn -0.6976 0.0323 -0.7157
vn -0.6978 0.0324 -0.7155
vn -0.6982 0.0324 -0.7152
vn -0.7166 0.3000 -0.6297
vn -0.6442 0.7609 -0.0774
vn -0.5505 0.8321 -0.0675
vn -0.5544 0.7321 -0.3957
vn -0.6473 0.0891 -0.7570
vn -0.4770 0.0865 -0.8746
vn -0.6350 0.2211 -0.7402
vn -0.4388 0.8430 -0.3111
vn -0.3369 0.8852 -0.3209
vn -0.4012 0.6236 -0.6709
vn -0.3428 0.7300 -0.5912
vn -0.2541 0.8472 -0.4666
vn -0.3133 0.7478 -0.5854
vn -0.4485 0.2994 -0.8421
vn -0.4043 0.4476 -0.7976
vn -0.4872 0.0716 -0.8703
vn -0.2972 0.1419 -0.9442
vn -0.0606 0.7332 -0.6773
vn -0.0466 0.8767 -0.4788
vn -0.1102 0.4784 -0.8712
vn -0.0242 0.6995 -0.7142
vn -0.0822 0.5982 -0.7972
vn 0.0195 -0.1395 0.9900
vn 0.2168 -0.6269 0.7484
vn 0.0828 -0.4036 0.9112
vn 0.3880 -0.1333 0.9120
vn 0.2736 -0.4679 0.8403
vn 0.1996 -0.7092 0.6761
vn 0.2818 -0.7758 0.5646
vn 0.2519 -0.8309 0.4962
vn 0.3388 -0.8879 0.3111
vn 0.2820 -0.9250 0.2545
vn -0.6655 -0.3953 0.6332
vn 0.4912 -0.1244 0.8621
vn 0.6203 -0.0689 0.7813
vn 0.4722 -0.5927 0.6525
vn 0.4712 -0.6997 0.5371
vn -0.5649 -0.6113 0.5543
vn -0.5284 -0.7715 0.3543
vn 0.5194 -0.8355 0.1790
vn -0.4920 -0.8495 0.1907
vn -0.5133 -0.3796 0.7697
vn -0.4870 -0.4500 0.7486
vn -0.5898 0.3016 0.7492
vn -0.4872 0.5163 0.7043
vn -0.4034 -0.8276 0.3904
vn -0.5816 -0.5926 0.5573
vn -0.5499 -0.6091 0.5715
vn -0.4088 -0.7780 0.4771
vn -0.4383 -0.8819 0.1737
vn -0.3257 -0.8936 0.3088
vn -0.3599 -0.5622 0.7446
vn -0.4285 -0.2418 0.8706
vn -0.4039 0.1158 0.9074
vn -0.3385 0.4737 0.8131
vn -0.3099 -0.6841 0.6602
vn -0.1966 -0.9803 0.0210
vn -0.3615 0.3190 0.8761
vn -0.2496 -0.7856 0.5662
vn -0.0632 -0.9110 0.4075
vn -0.0874 -0.9365 0.3396
vn 0.0236 -0.9984 -0.0512
vn -0.0293 0.1087 0.9936
vn -0.0932 0.3543 0.9305
vn 0.1266 -0.8633 0.4886
vn -0.0101 -0.8131 0.5820
vn 0.2824 -0.9508 -0.1278
vn 0.0933 -0.6278 0.7728
vn 0.3057 -0.6506 0.6951
vn 0.3566 -0.5978 0.7180
vn 0.1269 -0.3393 0.9321
vn 0.3763 -0.4505 0.8096
vn 0.1551 0.5655 0.8101
vn 0.2438 0.3654 0.8983
vn 0.4262 0.3188 0.8466
vn 0.2081 -0.8457 0.4915
vn 0.2858 -0.9430 0.1704
vn 0.5530 -0.3019 0.7766
vn 0.3378 -0.0773 0.9380
vn 0.4988 0.6144 0.6113
vn 0.4988 0.6174 0.6083
vn 0.4988 0.6139 0.6118
vn 0.5367 -0.7431 0.3997
vn 0.0630 -0.7422 -0.6672
vn 0.4988 0.6180 0.6077
vn 0.5942 -0.8040 -0.0227
vn 0.6400 -0.7681 -0.0208
vn 0.7540 -0.6272 -0.1950
vn 0.7424 -0.3820 0.5504
vn 0.7832 0.1467 0.6042
vn 0.9282 0.1312 0.3481
vn 0.9301 -0.1279 0.3444
vn 0.7463 0.3322 0.5768
vn 0.7845 -0.6071 0.1268
vn 0.8928 -0.4188 0.1656
vn 0.9038 -0.3362 0.2649
vn 0.9381 0.1956 0.2857
vn 0.7753 0.5710 0.2698
vn 0.8513 0.4473 0.2744
vn 0.8608 0.4123 0.2983
vn 0.8506 -0.5198 -0.0792
vn 0.9803 0.1874 -0.0616
vn 0.9578 0.2854 -0.0329
vn 0.8207 -0.5387 -0.1902
vn 0.8497 -0.4701 -0.2390
vn 0.8987 0.2170 -0.3812
vn 0.0408 0.4717 0.8808
vn 0.1400 0.8315 0.5376
vn 0.1826 0.9364 0.2998
vn 0.0314 0.9981 0.0531
vn 0.0798 0.9968 0.0074
vn 0.2563 0.0691 0.9641
vn 0.4111 0.3216 0.8530
vn 0.2986 0.4717 0.8296
vn 0.4042 0.3882 0.8282
vn 0.3673 0.6386 0.6762
vn 0.3430 0.8523 0.3949
vn 0.2541 0.8837 0.3931
vn 0.4881 0.0529 0.8712
vn 0.6437 0.1466 0.7511
vn 0.6007 0.2272 0.7665
vn 0.5564 0.4725 0.6835
vn 0.4991 0.8358 0.2288
vn 0.6550 0.7198 0.2302
vn 0.4440 0.8944 0.0532
vn 0.7354 0.1736 0.6551
vn 0.7130 0.3954 0.5791
vn -0.4522 0.3764 0.8086
vn 0.7523 0.5750 0.3217
vn -0.4670 0.6779 0.5677
vn 0.7004 0.7107 0.0659
vn -0.4901 0.8253 0.2805
vn -0.4761 0.8404 0.2589
vn -0.3916 0.6759 0.6243
vn -0.3931 0.6972 0.5995
vn -0.2775 0.2912 0.9156
vn -0.3275 0.2881 0.8998
vn -0.3737 0.6045 0.7035
vn -0.2353 0.8382 0.4921
vn -0.2005 0.6075 0.7686
vn -0.1813 0.6978 0.6930
vn -0.1229 0.8193 0.5600
vn 0.1365 0.3426 0.9295
vn 0.1171 0.4131 0.9031
vn -0.1160 0.6295 0.7683
vn -0.0046 0.7220 0.6918
vn 0.1963 0.6600 0.7251
vn -0.0115 0.7674 0.6411
vn -0.0867 0.9246 0.3708
vn 0.2211 0.8728 0.4351
vn 0.0870 0.8664 0.4917
vn 0.0795 0.8677 0.4907
vn 0.0808 0.8675 0.4909
vn 0.0877 0.8663 0.4918
vn 0.2562 0.2756 0.9265
vn 0.4892 0.3135 0.8139
vn 0.4426 0.4952 0.7476
vn 0.5195 0.5410 0.6614
vn 0.4210 0.7518 0.5075
vn 0.4653 0.8621 0.2008
vn 0.1331 0.5774 0.8055
vn 0.2757 0.8903 0.3623
vn 0.7559 0.3116 0.5758
vn 0.6903 0.4624 0.5565
vn 0.6957 0.6423 0.3216
vn 0.6044 0.7636 0.2272
vn 0.5741 0.8182 -0.0295
vn 0.6977 0.7140 -0.0583
vn 0.4906 0.8607 0.1358
vn 0.6996 0.6588 -0.2767
vn 0.9066 0.1471 0.3955
vn 0.8937 0.3721 0.2505
vn 0.8140 0.5791 -0.0456
vn -0.0185 -0.9969 -0.0764
vn 0.0792 -0.9968 0.0118
vn 0.0378 -0.9518 -0.3045
vn 0.0652 -0.8673 -0.4934
vn 0.1046 -0.4363 -0.8937
vn 0.1275 -0.4730 -0.8718
vn 0.1451 -0.2783 -0.9495
vn 0.0521 -0.1168 -0.9918
vn 0.3497 -0.8637 -0.3628
vn 0.3759 -0.7751 -0.5078
vn 0.3553 -0.5887 -0.7260
vn 0.4038 -0.4182 -0.8136
vn 0.4039 -0.4183 -0.8135
vn 0.4065 -0.4214 -0.8106
vn 0.4012 -0.4152 -0.8165
vn 0.4762 -0.8768 -0.0672
vn -0.3809 -0.9136 -0.1420
vn -0.3982 -0.7467 -0.5327
vn -0.3240 -0.5376 -0.7784
vn -0.3113 -0.3783 -0.8717
vn 0.4907 -0.2264 -0.8414
vn 0.5258 -0.0229 -0.8503
vn -0.1232 -0.9596 -0.2528
vn -0.1187 -0.9613 -0.2485
vn -0.1231 -0.9598 -0.2524
vn -0.2454 -0.7954 -0.5542
vn -0.2028 -0.8531 -0.4807
vn -0.1116 -0.6917 -0.7135
vn -0.1534 -0.3067 -0.9394
vn -0.2624 0.1032 -0.9594
vn -0.0971 -0.0574 -0.9936
vn -0.1709 0.4656 -0.8683
vn -0.1183 -0.9614 -0.2486
vn 0.0326 -0.7596 -0.6496
vn 0.0427 -0.4815 -0.8754
vn 0.0421 -0.4501 -0.8920
vn 0.1638 -0.1036 -0.9810
vn 0.0688 0.2532 -0.9650
vn 0.2483 0.1557 -0.9561
vn 0.1673 -0.9240 -0.3438
vn 0.2928 -0.7229 -0.6259
vn 0.1690 -0.5855 -0.7929
vn 0.3639 -0.8393 -0.4040
vn 0.5164 -0.6188 -0.5920
vn 0.3756 -0.4850 -0.7898
vn 0.3917 0.1043 -0.9141
vn 0.5422 -0.1366 -0.8291
vn 0.5387 0.0941 -0.8372
vn 0.5566 0.0721 -0.8276
vn 0.4869 -0.4469 -0.7505
vn 0.4769 -0.4582 -0.7501
vn 0.4999 -0.7553 -0.4239
vn 0.6078 -0.4672 -0.6421
vn 0.5604 -0.5236 -0.6417
vn 0.6325 0.1442 -0.7610
vn 0.6982 -0.4505 -0.5564
vn 0.8495 -0.3207 -0.4189
vn 0.6688 -0.6154 -0.4172
vn 0.7903 0.3768 -0.4832
vn 0.7244 -0.4903 -0.4846
vn 0.7496 0.2084 -0.6282
vn 0.7423 -0.1220 -0.6589
vn 0.8256 -0.3473 -0.4446
vn 0.8952 -0.1385 -0.4236
vn 0.8915 0.0511 -0.4502
vn 0.9057 0.1785 -0.3846
vn 0.2573 0.9214 -0.2914
vn 0.1749 0.8353 -0.5212
vn 0.2011 0.7751 -0.5990
vn 0.1288 0.3194 -0.9388
vn 0.2671 0.9636 -0.0105
vn 0.3151 0.8809 -0.3531
vn 0.2245 0.0329 -0.9739
vn 0.2597 0.5007 -0.8257
vn 0.5837 0.7267 -0.3621
vn 0.5138 0.8202 -0.2515
vn 0.5376 0.5610 -0.6295
vn 0.0888 0.7115 -0.6971
vn 0.6633 0.0923 -0.7426
vn 0.4250 0.3916 -0.8161
vn 0.5931 0.2334 -0.7705
vn 0.5964 0.4698 -0.6508
vn -0.5073 0.8609 -0.0381
vn 0.6703 0.5867 -0.4545
vn -0.6416 0.5595 -0.5248
vn -0.6165 0.6926 -0.3745
vn -0.5622 -0.1681 -0.8097
vn -0.5403 -0.2237 -0.8112
vn -0.6201 0.1301 -0.7736
vn -0.5204 0.4920 -0.6979
vn -0.3370 0.9401 -0.0507
vn -0.1910 0.9248 -0.3289
vn -0.2265 0.8115 -0.5387
vn -0.2940 -0.3709 -0.8809
vn -0.3511 -0.0087 -0.9363
vn -0.1485 -0.3042 -0.9409
vn -0.3993 0.1435 -0.9055
vn 0.0493 0.1004 -0.9937
vn -0.1367 0.9654 0.2220
vn 0.0986 0.9924 0.0732
vn 0.1236 0.9913 -0.0450
vn -0.0877 0.7517 -0.6536
vn 0.0456 0.4651 -0.8841
vn -0.0841 0.7298 -0.6784
vn 0.0611 -0.3617 -0.9303
vn 0.1307 -0.3042 -0.9436
vn 0.0758 0.1047 -0.9916
vn 0.1748 0.2861 -0.9421
vn 0.2757 0.9530 -0.1256
vn 0.3149 0.8931 -0.3211
vn 0.4987 -0.0933 -0.8617
vn 0.5472 -0.0556 -0.8352
vn 0.3606 0.3188 -0.8765
vn 0.3780 0.6065 -0.6995
vn 0.3909 0.6490 -0.6527
vn 0.7792 0.5877 0.2176
vn 0.7794 0.6195 0.0932
vn 0.5927 0.8054 -0.0108
vn 0.7855 0.5993 -0.1548
vn 0.7894 -0.0830 -0.6082
vn 0.7905 -0.0836 -0.6068
vn 0.7842 -0.0797 -0.6154
vn 0.6973 0.5276 -0.4851
vn 0.6974 -0.1194 -0.7067
vn 0.7839 -0.0799 -0.6157
vn 0.6581 0.3072 -0.6874
vn 0.9887 -0.0533 0.1402
vn 0.9572 0.2713 0.1013
vn 0.9952 -0.0684 -0.0707
vn 0.9195 -0.2226 -0.3240
vn 0.8624 0.3337 -0.3806
s 1
f 1//1 3//1 7//1
f 2//2 7//2 12//2
f 19//3 4//3 9//3
f 3//4 1//4 4//4
f 7//5 8//5 12//5
f 13//6 8//6 20//7
f 17//8 6//8 16//8
f 17//9 16//9 18//9
f 17//10 18//10 29//10
f 33//11 15//11 19//11
f 20//12 8//13 21//14
f 20//15 21//15 22//15
f 21//16 17//16 29//16
f 24//17 9//17 10//17
f 20//18 23//18 25//18
f 25//19 23//19 26//19
f 14//20 28//20 27//20
f 16//21 14//21 27//21
f 36//22 18//22 27//22
f 22//23 21//23 29//23
f 29//24 36//24 30//24
f 22//25 30//25 31//25
f 36//26 27//26 37//26
f 43//27 41//27 35//27
f 39//28 48//28 44//28
f 45//29 39//29 44//29
f 46//30 45//30 52//30
f 39//31 38//31 48//31
f 51//32 49//32 42//32
f 44//33 48//34 55//35
f 49//36 53//36 47//36
f 57//37 56//37 49//37
f 66//38 56//38 57//38
f 52//39 59//39 69//39
f 55//40 54//40 65//40
f 54//41 53//41 65//41
f 53//42 64//42 65//42
f 58//43 55//43 65//43
f 56//44 73//45 63//46
f 66//47 73//45 56//44
f 64//48 72//48 65//48
f 71//49 62//49 69//49
f 73//50 64//50 63//50
f 78//51 70//51 77//51
f 79//52 78//52 86//52
f 86//53 78//53 75//53
f 80//54 64//54 73//54
f 81//55 68//55 72//55
f 86//56 75//56 92//56
f 76//57 81//57 87//57
f 77//58 76//58 87//58
f 81//59 88//59 89//59
f 90//60 88//60 80//60
f 83//61 90//61 82//61
f 91//62 90//62 83//62
f 92//63 85//63 93//63
f 92//64 93//64 94//64
f 95//65 87//65 81//65
f 259//66 95//66 89//66
f 87//67 93//67 85//67
f 95//68 96//68 87//68
f 98//69 89//69 97//69
f 95//70 81//70 89//70
f 97//71 90//71 91//71
f 98//72 97//73 99//74
f 99//74 97//73 91//75
f 26//76 23//76 100//76
f 26//77 100//77 101//77
f 105//78 104//78 222//78
f 106//79 103//79 109//79
f 104//80 103//80 106//80
f 107//81 104//81 106//81
f 113//82 107//82 110//82
f 46//83 52//83 61//83
f 112//84 109//84 111//84
f 112//85 111//85 116//85
f 110//86 106//86 117//86
f 114//87 61//87 62//87
f 116//88 111//88 115//88
f 119//89 117//89 118//89
f 114//90 71//90 115//90
f 116//91 115//91 121//91
f 115//92 120//92 121//92
f 121//93 127//93 122//93
f 122//94 129//94 124//94
f 118//95 123//95 119//95
f 124//96 123//96 122//96
f 120//97 79//97 125//97
f 120//98 125//98 126//98
f 127//99 121//99 134//99
f 122//100 128//100 129//100
f 130//101 128//101 136//101
f 131//102 129//102 130//102
f 79//103 86//103 125//103
f 125//104 86//104 133//104
f 133//105 86//105 92//105
f 126//106 125//106 133//106
f 128//107 134//107 135//107
f 134//108 126//108 139//108
f 134//109 139//109 140//109
f 128//110 135//110 136//110
f 136//111 135//111 141//111
f 130//112 136//112 138//112
f 132//113 131//113 138//113
f 132//114 138//114 142//114
f 133//115 92//115 94//115
f 126//116 133//116 139//116
f 135//117 140//118 350//119
f 141//120 135//117 350//119
f 146//121 11//121 1//121
f 146//122 1//122 144//122
f 148//123 2//123 12//123
f 144//124 2//124 145//124
f 148//125 12//125 13//125
f 148//126 13//126 154//126
f 147//127 146//127 144//127
f 149//128 147//128 144//128
f 147//129 157//129 10//129
f 149//130 157//130 147//130
f 150//131 145//131 148//131
f 151//132 149//132 150//132
f 152//133 150//133 148//133
f 152//134 151//134 150//134
f 34//135 24//135 153//135
f 25//136 102//136 155//136
f 164//137 153//137 157//137
f 152//138 154//138 160//138
f 160//139 156//139 161//139
f 152//140 160//140 151//140
f 162//141 161//141 156//141
f 220//142 162//142 156//142
f 158//143 159//143 157//143
f 163//144 166//144 158//144
f 151//145 160//145 168//145
f 164//146 34//146 153//146
f 165//147 34//147 164//147
f 171//148 164//148 159//148
f 169//149 167//149 166//149
f 151//150 169//150 163//150
f 168//151 169//151 151//151
f 170//152 168//152 161//152
f 170//153 173//153 168//153
f 167//154 171//154 159//154
f 169//155 173//155 167//155
f 167//156 173//156 172//156
f 175//157 172//157 173//157
f 175//158 173//158 174//158
f 178//159 176//159 170//159
f 50//160 43//160 165//160
f 179//161 184//161 172//161
f 181//162 174//162 176//162
f 182//163 176//163 178//163
f 183//164 57//164 50//164
f 184//165 187//165 183//165
f 174//166 186//166 175//166
f 181//167 186//167 174//167
f 191//168 181//168 180//168
f 191//169 186//169 181//169
f 183//170 67//170 57//170
f 183//171 188//171 67//171
f 187//172 188//172 183//172
f 195//173 189//173 186//173
f 196//174 185//174 189//174
f 195//175 186//175 191//175
f 190//176 191//176 192//176
f 188//177 74//177 67//177
f 194//178 187//178 185//178
f 194//179 185//179 196//179
f 194//180 188//180 187//180
f 193//181 188//181 194//181
f 195//182 196//182 189//182
f 191//183 198//183 195//183
f 199//184 197//185 198//186
f 198//187 191//187 190//187
f 198//188 190//188 199//188
f 201//189 74//189 188//189
f 193//190 201//190 188//190
f 202//191 84//191 201//191
f 202//192 201//192 194//192
f 204//193 205//193 210//193
f 206//194 205//194 197//194
f 5//195 14//195 16//195 6//195
f 213//196 84//196 208//196
f 209//197 202//198 204//199
f 211//200 217//200 210//200
f 210//201 217//201 204//201
f 212//202 219//202 207//202
f 215//203 405//203 213//203
f 218//204 217//204 211//204
f 219//205 218//205 211//205
f 212//206 412//206 219//206
f 220//207 155//207 102//207
f 220//208 102//208 221//208
f 223//209 162//209 220//209
f 224//210 223//210 221//210
f 225//211 221//211 105//211
f 225//212 224//212 221//212
f 227//213 222//213 107//213
f 222//214 227//214 226//214
f 223//215 224//215 177//215
f 225//216 229//217 224//218
f 228//219 225//219 226//219
f 229//220 182//220 177//220
f 177//221 182//221 178//221
f 228//222 230//222 232//222
f 230//223 228//223 227//223
f 229//224 192//224 182//224
f 230//225 113//225 233//225
f 231//226 235//226 192//226
f 232//227 234//227 235//227
f 119//228 123//228 236//228
f 234//229 233//229 236//229
f 237//230 234//230 236//230
f 237//231 236//231 242//231
f 236//232 124//232 242//232
f 190//233 235//233 238//233
f 235//234 234//234 239//234
f 239//235 238//235 235//235
f 124//236 241//236 242//236
f 242//237 241//237 245//237
f 237//238 244//238 246//238
f 237//239 242//239 245//239
f 244//240 237//240 245//240
f 244//241 250//241 246//241
f 132//242 142//242 143//242
f 247//243 244//243 255//243
f 246//244 248//244 240//244
f 248//245 250//245 249//245
f 143//246 251//246 132//246
f 251//247 143//248 463//249
f 252//250 251//247 463//249
f 253//251 252//252 254//253
f 250//254 247//254 465//254
f 465//255 255//255 466//255
f 412//256 212//256 249//256
f 256//257 412//257 249//257
f 257//258 249//258 250//258
f 257//259 256//259 249//259
f 258//260 93//260 260//260
f 258//261 260//261 261//261
f 96//262 263//262 264//262
f 260//263 264//263 261//263
f 267//264 265//264 266//264
f 405//265 266//265 99//265
f 261//266 270//266 269//266
f 261//267 264//267 270//267
f 264//268 268//268 270//268
f 268//269 278//269 270//269
f 271//270 262//271 269//272
f 273//273 274//274 263//273
f 274//275 268//275 264//275
f 265//276 267//276 273//276
f 267//277 284//277 273//277
f 285//278 267//278 276//278
f 280//279 284//279 281//279
f 268//280 279//280 277//280
f 269//281 270//281 278//281
f 278//282 268//282 277//282
f 269//283 278//283 288//283
f 272//284 288//284 283//284
f 287//285 292//285 275//285
f 278//286 277//286 298//286
f 290//287 365//287 283//287
f 292//288 291//288 286//288
f 293//289 291//289 292//289
f 294//290 293//290 292//290
f 297//291 295//291 296//291
f 296//292 295//292 302//292
f 297//293 282//293 295//293
f 298//294 282//294 299//294
f 299//295 282//295 297//295
f 289//296 278//296 298//296
f 289//297 298//297 299//297
f 288//298 289//299 300//300
f 301//301 302//301 286//301
f 302//302 295//302 281//302
f 293//303 309//303 291//303
f 289//304 304//304 305//304
f 313//305 296//305 302//305
f 297//306 296//306 306//306
f 297//307 304//307 299//307
f 297//308 306//308 304//308
f 307//309 300//309 305//309
f 303//310 308//310 301//310
f 309//311 303//311 291//311
f 309//312 310//312 303//312
f 305//313 304//313 314//313
f 304//314 312//314 314//314
f 325//315 324//315 313//315
f 317//316 326//316 308//316
f 310//317 317//317 303//317
f 311//318 318//318 310//318
f 318//319 317//320 310//321
f 329//322 317//320 318//319
f 312//323 319//323 320//323
f 321//324 314//324 320//324
f 316//325 321//325 323//325
f 326//326 327//326 325//326
f 326//327 325//327 308//327
f 341//328 327//328 326//328
f 330//329 331//329 329//329
f 321//330 320//330 322//330
f 332//331 319//331 328//331
f 333//332 322//332 332//332
f 333//333 321//333 322//333
f 332//334 339//334 334//334
f 328//335 327//335 341//335
f 340//336 334//336 339//336
f 337//337 334//337 340//337
f 342//338 339//338 338//338
f 342//339 340//339 339//339
f 404//340 336//341 344//342
f 336//343 337//343 343//343
f 345//344 340//344 342//344
f 346//345 340//345 345//345
f 346//346 343//346 340//346
f 404//347 344//347 347//347
f 344//348 343//348 347//348
f 94//349 258//349 348//349
f 139//350 348//350 354//350
f 349//351 139//351 354//351
f 350//352 140//352 349//352
f 141//353 350//353 357//353
f 142//354 351//354 352//354
f 348//355 262//355 353//355
f 354//356 348//356 353//356
f 349//357 356//357 350//357
f 350//358 358//358 357//358
f 357//359 358//359 359//359
f 468//360 352//360 360//360
f 361//361 271//361 272//361
f 362//362 355//362 361//362
f 362//363 358//363 356//363
f 363//364 359//364 358//364
f 363//365 358//365 362//365
f 359//366 363//366 364//366
f 368//367 363//367 362//367
f 361//368 272//368 365//368
f 361//369 366//369 367//369
f 368//370 362//370 367//370
f 370//371 369//371 377//371
f 366//372 373//372 375//372
f 367//373 375//373 374//373
f 379//374 373//374 307//374
f 380//375 373//375 379//375
f 374//376 375//376 380//376
f 376//377 374//377 382//377
f 378//378 383//378 384//378
f 379//379 307//380 385//380
f 307//380 315//380 385//380
f 389//381 386//381 387//381
f 382//382 381//382 388//382
f 383//383 388//383 391//383
f 384//384 391//384 392//384
f 387//385 386//385 393//385
f 387//386 393//387 394//388
f 395//389 389//389 387//389
f 402//390 395//390 394//390
f 396//391 391//391 390//391
f 385//392 315//392 397//392
f 385//393 397//393 393//393
f 393//394 397//395 398//396
f 402//397 400//397 401//397
f 399//398 397//398 323//398
f 404//399 398//399 399//399
f 413//400 405//400 406//400
f 407//401 215//402 214//403
f 217//404 408//404 216//404
f 217//405 409//405 408//405
f 411//406 218//406 219//406
f 413//407 266//407 405//407
f 276//408 266//408 413//408
f 418//409 416//409 413//409
f 418//410 406//410 407//410
f 408//411 421//411 407//411
f 408//412 420//412 421//412
f 414//413 410//413 411//413
f 414//414 411//414 415//414
f 416//415 275//415 276//415
f 417//416 416//416 418//416
f 417//417 418//417 419//417
f 422//418 421//418 420//418
f 421//419 419//419 418//419
f 414//420 425//420 410//420
f 424//421 420//421 425//421
f 425//422 426//422 424//422
f 477//423 432//423 426//423
f 415//424 426//424 414//424
f 287//425 275//425 417//425
f 428//426 422//426 423//426
f 431//427 429//427 430//427
f 433//428 430//428 426//428
f 434//429 417//429 427//429
f 438//430 434//430 427//430
f 429//431 440//431 435//431
f 436//432 430//432 433//432
f 311//433 294//433 434//433
f 311//434 309//434 294//434
f 443//435 434//435 438//435
f 451//436 443//436 438//436
f 439//437 438//437 428//437
f 439//438 451//438 438//438
f 440//439 447//439 435//439
f 447//440 439//441 435//442
f 441//443 440//443 431//443
f 442//444 447//444 440//444
f 441//445 442//445 440//445
f 449//446 441//446 436//446
f 443//447 318//447 311//447
f 447//448 445//448 444//448
f 457//449 445//449 447//449
f 449//450 448//450 441//450
f 330//451 329//451 318//451
f 451//452 450//452 330//452
f 445//453 457//453 458//453
f 453//454 457//454 442//454
f 454//455 446//455 455//455
f 458//456 459//456 331//456
f 456//457 347//457 462//457
f 457//458 459//458 458//458
f 453//459 461//459 457//459
f 452//460 461//460 453//460
f 460//461 461//461 452//461
f 346//462 459//462 461//462
f 256//463 411//463 412//463
f 257//464 465//464 467//464
f 464//465 468//466 473//467
f 469//468 466//468 464//468
f 466//469 469//469 470//469
f 464//470 473//470 469//470
f 466//471 470//471 465//471
f 471//472 415//472 256//472
f 471//473 256//473 467//473
f 472//474 468//474 364//474
f 472//475 364//475 371//475
f 474//476 469//476 473//476
f 481//477 473//477 472//477
f 481//478 472//478 371//478
f 476//479 469//479 474//479
f 477//480 415//480 471//480
f 479//481 471//481 467//481
f 479//482 477//482 471//482
f 479//483 478//484 477//485
f 476//486 480//486 470//486
f 481//487 371//487 487//487
f 482//488 481//488 487//488
f 481//489 482//489 483//489
f 484//490 432//491 478//492
f 484//493 480//493 485//493
f 485//494 480//494 476//494
f 483//495 485//495 476//495
f 372//496 370//496 488//496
f 487//497 488//497 494//497
f 489//498 487//498 494//498
f 483//499 482//499 486//499
f 493//500 492//500 485//500
f 486//501 491//501 485//501
f 491//502 493//502 485//502
f 500//503 489//503 494//503
f 497//504 489//504 500//504
f 496//505 491//505 497//505
f 492//506 437//506 490//506
f 498//507 495//507 437//507
f 392//508 396//508 499//508
f 495//509 455//509 449//509
f 501//510 507//510 498//510
f 504//511 501//511 496//511
f 509//512 502//512 403//512
f 499//513 502//513 505//513
f 454//514 511//514 462//514
f 503//515 507//515 506//515
f 506//516 508//516 503//516
f 504//517 500//517 505//517
f 505//518 509//518 506//518
f 500//519 499//519 505//519
f 501//520 504//520 506//520
f 347//521 456//521 404//521
f 510//522 456//522 462//522
f 509//523 401//523 508//523
f 508//524 401//524 510//524
f 509//525 403//525 401//525
f 503//526 510//526 511//526
f 508//527 510//527 503//527
f 7//528 2//528 1//528
f 4//529 5//529 3//529
f 4//530 15//530 5//530
f 7//531 3//531 6//531
f 5//532 6//532 3//532
f 17//533 7//533 6//533
f 8//534 7//534 17//534
f 11//535 10//535 9//535
f 11//536 4//536 1//536
f 9//537 4//537 11//537
f 13//6 12//538 8//6
f 38//539 39//539 30//539 36//539
f 19//540 15//540 4//540
f 15//541 14//541 5//541
f 8//13 17//542 21//14
f 23//543 20//543 22//543
f 24//544 19//544 9//544
f 25//545 13//545 20//545
f 102//546 25//546 26//546
f 14//547 15//547 28//547
f 33//548 28//548 15//548
f 18//549 16//549 27//549
f 29//550 18//550 36//550
f 22//551 29//551 30//551
f 23//552 22//552 31//552
f 24//553 33//553 19//553
f 34//554 35//554 24//554
f 24//555 35//555 33//555
f 37//556 27//556 28//556
f 38//557 36//557 37//557
f 51//558 41//558 43//558 50//558
f 31//559 30//559 45//559
f 45//560 30//560 39//560
f 33//561 41//561 28//561
f 28//562 41//562 42//562
f 28//563 42//563 37//563
f 35//564 41//564 33//564
f 34//565 43//565 35//565
f 52//566 45//566 44//566
f 47//567 38//567 37//567
f 48//568 38//568 55//568
f 37//569 42//569 47//569
f 49//570 47//570 42//570
f 51//571 42//571 41//571
f 214//572 209//572 204//572 216//572
f 59//573 44//33 55//35
f 53//574 54//574 47//574
f 55//575 47//575 54//575
f 38//576 47//576 55//576
f 49//577 63//577 53//577
f 63//578 49//578 56//578
f 51//579 57//579 49//579
f 59//580 55//580 58//580
f 59//581 58//581 60//581
f 59//582 52//582 44//582
f 62//583 61//583 52//583
f 63//584 64//584 53//584
f 57//585 67//585 66//585
f 67//586 74//586 66//586
f 58//587 65//587 68//587
f 60//588 58//588 68//588
f 76//589 60//589 68//589
f 59//590 60//590 70//590
f 78//591 69//591 70//591
f 62//592 52//592 69//592
f 71//593 69//593 78//593
f 71//594 78//594 79//594
f 65//595 72//595 68//595
f 69//596 59//596 70//596
f 66//597 82//597 73//597
f 74//598 82//598 66//598
f 70//599 60//599 76//599
f 76//600 77//600 70//600
f 78//601 77//601 75//601
f 64//602 80//602 72//602
f 68//603 81//603 76//603
f 73//604 82//604 80//604
f 82//605 90//605 80//605
f 74//606 83//606 82//606
f 84//607 83//607 74//607
f 85//608 75//608 77//608
f 85//609 92//609 75//609
f 87//610 85//610 77//610
f 72//611 80//611 81//611
f 81//612 80//612 88//612
f 97//613 89//613 88//613
f 84//614 91//615 83//616
f 93//617 87//617 96//617
f 98//618 259//618 89//618
f 90//619 97//619 88//619
f 101//620 102//620 26//620
f 32//621 23//622 31//623
f 100//624 23//622 32//621
f 101//625 100//625 103//625
f 103//626 100//626 32//626
f 104//627 101//627 103//627
f 105//628 101//628 104//628
f 103//629 32//629 108//629
f 40//630 32//630 31//630
f 45//631 40//631 31//631
f 108//632 32//632 40//632
f 103//633 108//633 109//633
f 107//634 222//634 104//634
f 108//635 40//635 46//635
f 40//636 45//636 46//636
f 109//637 108//637 46//637
f 106//638 109//638 112//638
f 117//639 106//639 112//639
f 110//640 107//640 106//640
f 111//641 109//641 46//641
f 117//642 112//642 116//642
f 119//643 113//643 110//643
f 111//644 46//644 61//644
f 111//645 61//646 114//647
f 115//648 111//645 114//647
f 118//649 117//649 116//649
f 119//650 110//650 117//650
f 120//651 71//651 79//651
f 71//652 114//652 62//652
f 115//653 71//653 120//653
f 122//654 116//654 121//654
f 118//655 116//655 122//655
f 123//656 118//656 122//656
f 121//657 120//657 126//657
f 121//658 126//658 134//658
f 128//659 122//659 127//659
f 128//660 127//660 134//660
f 128//661 130//661 129//661
f 131//662 124//662 129//662
f 138//663 131//663 130//663
f 135//664 134//664 140//664
f 141//665 137//665 136//665
f 137//666 138//666 136//666
f 142//667 138//667 137//667
f 348//668 133//668 94//668
f 139//669 133//669 348//669
f 351//670 137//670 141//670
f 142//671 137//671 351//671
f 2//672 144//672 1//672
f 148//673 145//673 2//673
f 10//674 11//674 146//674
f 147//675 10//675 146//675
f 152//676 148//676 154//676
f 149//677 144//677 145//677
f 150//678 149//678 145//678
f 153//679 24//679 10//679
f 155//680 13//680 25//680
f 154//681 13//681 155//681
f 155//682 156//682 154//682
f 157//683 153//683 10//683
f 157//684 159//684 164//684
f 158//685 157//685 149//685
f 156//686 160//686 154//686
f 158//687 166//687 159//687
f 151//688 163//688 149//688
f 163//689 158//689 149//689
f 171//690 165//690 164//690
f 166//691 167//691 159//691
f 163//692 169//692 166//692
f 168//693 173//693 169//693
f 161//694 168//694 160//694
f 178//695 162//695 223//695
f 161//696 162//696 170//696
f 178//697 170//697 162//697
f 34//698 165//698 43//698
f 171//699 50//699 165//699
f 171//700 172//700 50//700
f 167//701 172//701 171//701
f 173//702 170//703 174//704
f 176//705 174//704 170//703
f 50//706 57//706 51//706
f 172//707 183//707 50//707
f 172//708 184//708 183//708
f 175//709 179//709 172//709
f 182//710 181//710 176//710
f 180//711 181//711 182//711
f 179//712 175//712 185//712
f 185//713 184//713 179//713
f 175//714 186//714 189//714
f 185//715 187//715 184//715
f 175//716 189//716 185//716
f 180//717 192//717 191//717
f 205//718 196//718 197//718
f 198//719 197//719 195//719
f 197//720 196//720 195//720
f 207//721 197//185 199//184
f 201//722 84//722 74//722
f 202//723 208//723 84//723
f 193//724 194//724 201//724
f 194//725 203//725 202//725
f 204//199 202//198 203//726
f 196//727 205//727 194//727
f 194//728 205//728 203//728
f 204//729 203//729 205//729
f 206//730 210//730 205//730
f 207//731 206//731 197//731
f 200//732 207//732 199//732
f 209//733 215//733 208//733
f 202//734 209//734 208//734
f 211//735 210//735 206//735
f 207//736 211//736 206//736
f 212//737 207//737 200//737
f 213//738 91//615 84//614
f 208//739 215//739 213//739
f 209//740 214//740 215//740
f 319//741 324//741 327//741 328//741
f 204//742 217//742 216//742
f 207//743 219//743 211//743
f 221//744 102//744 101//744
f 220//745 156//745 155//745
f 221//746 101//746 105//746
f 223//747 220//747 221//747
f 225//748 105//748 222//748
f 225//749 222//749 226//749
f 178//750 223//750 177//750
f 177//751 224//751 229//751
f 227//752 107//752 113//752
f 228//753 226//753 227//753
f 229//217 225//216 228//754
f 230//755 227//755 113//755
f 229//756 231//756 192//756
f 228//757 231//757 229//757
f 228//758 232//758 231//758
f 192//759 180//759 182//759
f 233//760 113//760 119//760
f 234//761 230//761 233//761
f 234//762 232//762 230//762
f 192//763 235//763 190//763
f 235//764 231//764 232//764
f 233//765 119//765 236//765
f 124//766 236//766 123//766
f 239//767 234//767 237//767
f 237//768 246//768 239//768
f 190//769 238//770 199//771
f 200//772 199//771 238//770
f 239//773 246//773 238//773
f 241//774 124//774 131//774
f 241//775 131//775 132//775
f 241//776 243//776 245//776
f 238//777 240//777 200//777
f 240//778 212//778 200//778
f 238//779 246//779 240//779
f 243//780 241//780 132//780
f 251//781 243//781 132//781
f 255//782 244//782 245//782
f 245//783 243//783 255//783
f 243//784 251//784 253//784
f 255//785 243//785 253//785
f 246//786 250//786 248//786
f 244//787 247//787 250//787
f 240//788 248//788 212//788
f 249//789 212//789 248//789
f 254//790 255//790 253//790
f 253//251 251//791 252//252
f 465//792 257//792 250//792
f 466//793 255//793 254//793
f 255//794 465//794 247//794
f 258//795 94//795 93//795
f 263//796 96//796 95//796
f 260//797 93//797 96//797
f 262//798 258//798 261//798
f 96//799 264//799 260//799
f 95//800 259//800 263//800
f 259//801 265//801 263//801
f 259//802 98//802 265//802
f 98//803 266//803 265//803
f 99//804 266//804 98//804
f 268//805 274//805 279//805
f 262//271 261//806 269//272
f 272//807 271//807 269//807
f 274//808 264//808 263//808
f 265//809 273//273 263//273
f 274//810 273//810 279//810
f 285//811 284//811 267//811
f 267//812 266//812 276//812
f 275//813 285//813 276//813
f 282//814 277//814 279//814
f 280//815 282//815 279//815
f 272//816 269//816 288//816
f 365//817 272//817 283//817
f 286//818 284//818 285//818
f 284//819 279//819 273//819
f 284//820 280//820 279//820
f 286//821 281//821 284//821
f 292//822 285//822 275//822
f 292//823 286//823 285//823
f 295//824 282//824 280//824
f 298//825 277//825 282//825
f 288//826 278//826 289//826
f 290//827 283//827 300//827
f 281//828 295//828 280//828
f 287//829 294//829 292//829
f 283//830 288//298 300//300
f 281//831 286//831 302//831
f 303//832 286//832 291//832
f 303//833 301//833 286//833
f 294//834 309//834 293//834
f 304//835 289//835 299//835
f 300//836 289//836 305//836
f 313//837 301//837 308//837
f 301//838 313//838 302//838
f 311//839 310//839 309//839
f 306//840 296//840 313//840
f 324//841 306//841 313//841
f 324//842 319//842 306//842
f 304//843 306//843 312//843
f 306//844 319//844 312//844
f 315//845 305//845 316//845
f 314//846 316//846 305//846
f 321//847 316//847 314//847
f 313//848 308//848 325//848
f 303//849 317//849 308//849
f 320//850 319//850 322//850
f 314//851 312//851 320//851
f 323//852 315//853 316//854
f 325//855 327//855 324//855
f 214//856 216//856 408//856 407//856
f 397//857 315//853 323//852
f 317//858 329//858 326//858
f 329//859 341//859 326//859
f 329//860 331//860 341//860
f 319//861 332//861 322//861
f 335//862 321//862 333//862
f 334//863 335//863 333//863
f 332//864 334//864 333//864
f 335//865 323//865 321//865
f 338//866 328//866 341//866
f 338//867 339//867 328//867
f 332//868 328//868 339//868
f 334//869 337//869 335//869
f 336//870 399//870 323//870
f 337//871 323//871 335//871
f 337//872 336//872 323//872
f 341//873 342//873 338//873
f 340//874 343//874 337//874
f 344//875 336//875 343//875
f 331//876 342//876 341//876
f 345//877 342//877 331//877
f 347//878 343//878 460//878
f 349//879 140//879 139//879
f 351//880 141//880 357//880
f 352//881 351//881 360//881
f 143//882 142//882 352//882
f 463//883 143//883 352//883
f 348//884 258//884 262//884
f 355//885 354//885 353//885
f 354//886 356//886 349//886
f 355//887 356//887 354//887
f 358//888 350//888 356//888
f 360//889 357//889 359//889
f 360//890 351//890 357//890
f 271//891 353//891 262//891
f 361//892 353//892 271//892
f 361//893 355//893 353//893
f 362//894 356//894 355//894
f 360//895 359//895 364//895
f 369//896 364//896 363//896
f 468//897 360//897 364//897
f 365//898 366//898 361//898
f 367//899 362//899 361//899
f 376//900 368//900 367//900
f 369//901 363//901 368//901
f 369//902 368//902 377//902
f 371//903 364//903 369//903
f 370//904 371//904 369//904
f 372//905 371//905 370//905
f 365//906 290//906 373//906
f 366//907 365//907 373//907
f 367//908 366//908 375//908
f 376//909 367//909 374//909
f 377//910 368//910 376//910
f 378//911 370//911 377//911
f 307//912 290//912 300//912
f 307//913 373//913 290//913
f 375//914 373//914 380//914
f 374//915 380//915 381//915
f 382//916 374//916 381//916
f 377//917 376//917 382//917
f 383//918 377//918 382//918
f 388//919 383//919 382//919
f 378//920 377//920 383//920
f 370//921 378//921 384//921
f 391//922 384//922 383//922
f 386//923 380//924 379//925
f 386//923 379//925 385//926
f 381//927 380//927 386//927
f 389//928 381//928 386//928
f 388//929 381//929 389//929
f 389//930 390//930 388//930
f 390//931 391//931 388//931
f 396//932 392//932 391//932
f 307//933 305//933 315//933
f 393//934 386//934 385//934
f 394//935 395//935 387//935
f 395//936 390//936 389//936
f 396//937 390//937 395//937
f 398//396 397//395 399//938
f 398//939 400//939 394//939
f 404//940 400//940 398//940
f 394//388 393//387 398//941
f 400//942 404//942 456//942
f 400//943 402//943 394//943
f 403//944 395//944 402//944
f 404//340 399//945 336//341
f 405//946 91//946 213//946
f 405//947 99//947 91//947
f 215//948 406//948 405//948
f 407//401 406//949 215//402
f 217//950 410//950 409//950
f 218//951 410//951 217//951
f 411//952 410//952 218//952
f 412//953 411//953 219//953
f 406//954 418//954 413//954
f 421//955 418//955 407//955
f 409//956 420//956 408//956
f 409//957 425//958 420//959
f 409//957 410//960 425//958
f 416//961 276//961 413//961
f 416//962 417//962 275//962
f 422//963 419//963 421//963
f 423//964 422//964 420//964
f 424//965 423//965 420//965
f 414//966 426//966 425//966
f 415//967 477//967 426//967
f 417//968 434//969 287//970
f 422//971 427//971 419//971
f 419//972 427//972 417//972
f 422//973 428//973 427//973
f 429//974 423//974 424//974
f 424//975 426//975 430//975
f 424//976 430//976 429//976
f 433//977 426//977 432//977
f 287//970 434//969 294//978
f 428//979 438//979 427//979
f 435//980 428//980 423//980
f 429//981 435//981 423//981
f 431//982 440//982 429//982
f 436//983 431//983 430//983
f 436//984 441//984 431//984
f 443//985 311//985 434//985
f 439//986 444//986 451//986
f 435//987 439//987 428//987
f 451//988 318//988 443//988
f 444//989 450//989 451//989
f 439//441 447//440 444//990
f 441//991 448//991 442//991
f 442//992 457//992 447//992
f 448//993 446//993 442//993
f 446//994 453//994 442//994
f 449//995 446//995 448//995
f 449//996 455//996 446//996
f 451//997 330//997 318//997
f 445//998 458//998 450//998
f 444//999 445//999 450//999
f 452//1000 453//1000 446//1000
f 446//1001 454//1001 452//1001
f 452//1002 454//1002 462//1002
f 450//1003 331//1003 330//1003
f 462//1004 347//1004 460//1004
f 458//1005 331//1005 450//1005
f 462//1006 460//1006 452//1006
f 461//1007 459//1007 457//1007
f 331//1008 459//1008 345//1008
f 459//1009 346//1009 345//1009
f 346//1010 461//1010 460//1010
f 460//1011 343//1011 346//1011
f 468//1012 252//1012 463//1012
f 464//1013 254//1013 252//1013
f 464//1014 466//1014 254//1014
f 257//1015 467//1015 256//1015
f 463//1016 352//1016 468//1016
f 464//465 252//1017 468//466
f 256//1018 415//1018 411//1018
f 470//1019 467//1019 465//1019
f 474//1020 473//1020 481//1020
f 472//1021 473//1021 468//1021
f 470//1022 469//1022 476//1022
f 474//1023 475//1023 476//1023
f 477//1024 478//1024 432//1024
f 479//1025 467//1025 470//1025
f 479//483 480//1026 478//484
f 479//1027 470//1027 480//1027
f 372//1028 487//1028 371//1028
f 481//1029 475//1029 474//1029
f 475//1030 483//1030 476//1030
f 483//1031 475//1031 481//1031
f 484//490 490//1032 432//491
f 490//1033 433//1033 432//1033
f 484//1034 478//1034 480//1034
f 483//1035 486//1035 485//1035
f 487//1036 372//1036 488//1036
f 482//1037 487//1037 489//1037
f 486//1038 482//1038 489//1038
f 433//1039 490//1039 436//1039
f 492//1040 490//1040 484//1040
f 490//1041 437//1041 436//1041
f 485//1042 492//1042 484//1042
f 493//1043 437//1043 492//1043
f 488//1044 370//1044 384//1044
f 392//1045 488//1045 384//1045
f 494//1046 488//1046 392//1046
f 497//1047 486//1047 489//1047
f 491//1048 496//1048 493//1048
f 486//1049 497//1049 491//1049
f 436//1050 437//1050 449//1050
f 437//1051 495//1051 449//1051
f 493//1052 498//1052 437//1052
f 493//1053 496//1053 498//1053
f 494//1054 392//1054 499//1054
f 500//1055 494//1055 499//1055
f 498//1056 455//1056 495//1056
f 455//1057 498//1057 507//1057
f 496//1058 501//1058 498//1058
f 504//1059 496//1059 497//1059
f 504//1060 497//1060 500//1060
f 403//1061 396//1061 395//1061
f 403//1062 502//1062 396//1062
f 499//1063 396//1063 502//1063
f 505//1064 502//1064 509//1064
f 503//1065 511//1066 454//1067
f 504//1068 505//1068 506//1068
f 507//1069 454//1069 455//1069
f 454//1067 507//1070 503//1065
f 507//1071 501//1071 506//1071
f 400//1072 456//1072 401//1072
f 402//1073 401//1073 403//1073
f 510//1074 401//1074 456//1074
f 511//1075 510//1075 462//1075
f 506//1076 509//1076 508//1076
